<svg width="992" height="44" viewBox="0 0 992 44" fill="none" xmlns="http://www.w3.org/2000/svg">
<rect x="0.640625" width="991.358" height="43.0713" rx="4" fill="#5B5B5B"/>
<path d="M62.9609 19.6703H40.8161L47.594 11.5294C47.9109 11.1481 48.0634 10.6565 48.0179 10.1627C47.9724 9.669 47.7326 9.21357 47.3513 8.89664C46.9699 8.5797 46.4783 8.42722 45.9846 8.47274C45.4909 8.51827 45.0354 8.75806 44.7185 9.13937L35.3826 20.3425C35.3198 20.4316 35.2636 20.5252 35.2145 20.6226C35.2145 20.7159 35.2145 20.7719 35.0838 20.8653C34.9992 21.0794 34.9549 21.3073 34.9531 21.5375C34.9549 21.7677 34.9992 21.9956 35.0838 22.2097C35.0838 22.303 35.0838 22.3591 35.2145 22.4524C35.2636 22.5498 35.3198 22.6434 35.3826 22.7325L44.7185 33.9356C44.8941 34.1464 45.1139 34.3159 45.3624 34.4321C45.6109 34.5483 45.8819 34.6083 46.1562 34.6078C46.5925 34.6087 47.0153 34.4567 47.3513 34.1784C47.5403 34.0216 47.6966 33.8291 47.8112 33.6119C47.9257 33.3946 47.9963 33.1569 48.0188 32.9123C48.0414 32.6678 48.0155 32.4212 47.9426 32.1867C47.8697 31.9521 47.7512 31.7343 47.594 31.5456L40.8161 23.4047H62.9609C63.4561 23.4047 63.9311 23.208 64.2812 22.8578C64.6314 22.5076 64.8281 22.0327 64.8281 21.5375C64.8281 21.0423 64.6314 20.5674 64.2812 20.2172C63.9311 19.867 63.4561 19.6703 62.9609 19.6703Z" fill="white"/>
<line x1="81.7656" y1="20.0352" x2="984.999" y2="20.0352" stroke="white" stroke-width="3" stroke-dasharray="15 20"/>
</svg>
