<svg width="543" height="460" viewBox="0 0 543 460" fill="none" xmlns="http://www.w3.org/2000/svg">
<path d="M463.204 325.985H56.4277V338.986H463.204V325.985Z" fill="#B8C3CD"/>
<path d="M463.193 325.048H56.4277V331.157H463.193V325.048Z" fill="#435E7A"/>
<path d="M481.79 184.522C480.762 183.719 479.565 183.16 478.29 182.885C479.417 198.886 459.205 195.008 459.75 204.687C460.32 214.71 449.075 219.858 444.745 221.459C444.31 221.621 443.83 221.61 443.403 221.426C442.977 221.243 442.637 220.902 442.456 220.475L439.016 212.421C438.885 212.919 438.826 213.215 438.826 213.215L440.131 239.667C469.074 244.412 459.454 222.989 469.275 219.384C479.097 215.778 475.882 204.592 481.351 201.235C484.719 199.171 490.71 191.188 481.79 184.522Z" fill="#268040"/>
<path d="M449.289 199.764C457.414 197.866 452.515 188.803 464.555 188.139C468.718 187.902 472.858 181.817 478.291 182.884C477.847 178.809 476.716 174.839 474.946 171.141C474.817 170.851 474.613 170.6 474.355 170.414C474.097 170.228 473.795 170.114 473.478 170.084C473.162 170.054 472.843 170.109 472.555 170.242C472.267 170.376 472.019 170.584 471.838 170.845C466.963 177.724 454.804 177.048 455.231 184.569C455.801 194.592 444.556 199.752 440.214 201.341C439.782 201.501 439.306 201.489 438.882 201.308C438.459 201.127 438.12 200.791 437.937 200.369C437.753 199.955 437.42 199.626 437.005 199.446C436.589 199.267 436.121 199.25 435.694 199.399C435.267 199.549 434.912 199.853 434.699 200.253C434.485 200.652 434.43 201.117 434.544 201.555C434.639 201.923 434.758 202.326 434.888 202.741C434.883 202.8 434.883 202.86 434.888 202.919L438.957 212.408C439.716 209.787 442.444 201.365 449.289 199.764Z" fill="#7BAE89"/>
<path d="M444.745 221.459C449.074 219.869 460.319 214.71 459.75 204.686C459.204 195.007 479.417 198.886 478.29 182.884C472.845 181.817 468.718 187.902 464.554 188.139C452.514 188.803 457.437 197.866 449.288 199.764C442.444 201.365 439.715 209.787 439.016 212.42L442.456 220.474C442.637 220.902 442.976 221.242 443.403 221.426C443.829 221.609 444.31 221.621 444.745 221.459Z" fill="#529D65"/>
<path d="M383.989 276.948H263.367C262.13 276.948 260.945 277.439 260.07 278.314C259.196 279.188 258.705 280.374 258.705 281.61C258.705 282.846 259.196 284.032 260.07 284.906C260.945 285.78 262.13 286.272 263.367 286.272H383.989C384.602 286.272 385.208 286.151 385.773 285.917C386.339 285.683 386.853 285.339 387.286 284.906C387.719 284.473 388.062 283.959 388.296 283.394C388.53 282.828 388.651 282.222 388.651 281.61C388.651 280.998 388.53 280.392 388.296 279.826C388.062 279.26 387.719 278.746 387.286 278.314C386.853 277.881 386.339 277.537 385.773 277.303C385.208 277.069 384.602 276.948 383.989 276.948Z" fill="white"/>
<path d="M239.432 259.88H141.275C138.681 259.88 136.578 261.983 136.578 264.577C136.578 267.171 138.681 269.274 141.275 269.274H239.432C242.026 269.274 244.129 267.171 244.129 264.577C244.129 261.983 242.026 259.88 239.432 259.88Z" fill="white"/>
<path d="M239.432 276.878H141.275C138.681 276.878 136.578 278.981 136.578 281.575C136.578 284.169 138.681 286.272 141.275 286.272H239.432C242.026 286.272 244.129 284.169 244.129 281.575C244.129 278.981 242.026 276.878 239.432 276.878Z" fill="white"/>
<path d="M294.29 294.825H81.9993C74.341 294.825 68.1328 301.031 68.1328 308.686C68.1328 316.341 74.341 322.546 81.9993 322.546H294.29C301.948 322.546 308.156 316.341 308.156 308.686C308.156 301.031 301.948 294.825 294.29 294.825Z" fill="white"/>
<path d="M289.036 318.299C294.27 318.299 298.514 314.056 298.514 308.821C298.514 303.587 294.27 299.344 289.036 299.344C283.802 299.344 279.559 303.587 279.559 308.821C279.559 314.056 283.802 318.299 289.036 318.299Z" fill="#D3D1D0"/>
<path d="M255.526 318.299C260.761 318.299 265.004 314.056 265.004 308.821C265.004 303.587 260.761 299.344 255.526 299.344C250.292 299.344 246.049 303.587 246.049 308.821C246.049 314.056 250.292 318.299 255.526 318.299Z" fill="#296182"/>
<path d="M232.871 304.373H78.1811C75.613 304.373 73.5312 306.452 73.5312 309.017C73.5312 311.582 75.613 313.661 78.1811 313.661H232.871C235.439 313.661 237.521 311.582 237.521 309.017C237.521 306.452 235.439 304.373 232.871 304.373Z" fill="#EDEAE7"/>
<path d="M61.0527 152.815V164.891H463.168V152.815C463.168 151.013 462.452 149.284 461.177 148.009C459.902 146.735 458.174 146.019 456.371 146.019H67.8377C66.9457 146.019 66.0624 146.194 65.2385 146.536C64.4145 146.878 63.666 147.379 63.0358 148.01C62.4056 148.641 61.9061 149.391 61.5658 150.215C61.2255 151.04 61.0512 151.923 61.0527 152.815Z" fill="#183059"/>
<path d="M77.1728 159.433C79.3608 159.433 81.1346 157.66 81.1346 155.472C81.1346 153.284 79.3608 151.51 77.1728 151.51C74.9847 151.51 73.2109 153.284 73.2109 155.472C73.2109 157.66 74.9847 159.433 77.1728 159.433Z" fill="#B83138"/>
<path d="M90.5302 159.433C92.7183 159.433 94.492 157.66 94.492 155.472C94.492 153.284 92.7183 151.51 90.5302 151.51C88.3421 151.51 86.5684 153.284 86.5684 155.472C86.5684 157.66 88.3421 159.433 90.5302 159.433Z" fill="#F8A71A"/>
<path d="M103.897 159.433C106.085 159.433 107.859 157.66 107.859 155.472C107.859 153.284 106.085 151.51 103.897 151.51C101.709 151.51 99.9355 153.284 99.9355 155.472C99.9355 157.66 101.709 159.433 103.897 159.433Z" fill="#268040"/>
<path d="M114.976 194.177H82.463C74.32 194.177 67.7188 200.778 67.7188 208.921V275.881C67.7188 284.024 74.32 290.625 82.463 290.625H114.976C123.119 290.625 129.72 284.024 129.72 275.881V208.921C129.72 200.778 123.119 194.177 114.976 194.177Z" fill="white"/>
<path d="M98.7255 230.307C106.371 230.307 112.568 224.11 112.568 216.465C112.568 208.82 106.371 202.622 98.7255 202.622C91.0804 202.622 84.8828 208.82 84.8828 216.465C84.8828 224.11 91.0804 230.307 98.7255 230.307Z" fill="#296182"/>
<path d="M119.625 254.862H77.8238C75.6947 254.862 73.9688 256.588 73.9688 258.717C73.9688 260.846 75.6947 262.572 77.8238 262.572H119.625C121.754 262.572 123.48 260.846 123.48 258.717C123.48 256.588 121.754 254.862 119.625 254.862Z" fill="#EDEAE7"/>
<path d="M110.053 270.449H87.3971C85.2221 270.449 83.459 272.21 83.459 274.381C83.459 276.553 85.2221 278.314 87.3971 278.314H110.053C112.228 278.314 113.991 276.553 113.991 274.381C113.991 272.21 112.228 270.449 110.053 270.449Z" fill="#EDEAE7"/>
<path d="M74.8936 284.624C68.678 268.504 64.0045 261.826 68.678 247.556C73.3516 233.286 74.2768 227.166 64.3129 214.746C54.6218 202.659 70.2438 176.872 50.3159 175.519V175.46H48.6078V175.519C30.8151 176.705 41.3366 197.416 36.9121 210.44C37.4057 212.468 38.3234 214.368 39.6047 216.015C49.5687 228.435 48.6316 234.555 43.9699 248.825C39.3082 263.095 43.9699 269.773 50.1855 285.893C56.401 302.013 38.205 306.058 44.8951 320.921C49.5212 331.17 46.793 336.911 44.6579 339.473L49.4026 339.331L67.5274 339.853C67.5274 339.853 76.234 334.479 69.5439 319.688C62.8539 304.896 81.121 300.756 74.8936 284.624Z" fill="#268040"/>
<path d="M44.8981 320.92C38.2081 306.093 56.4159 302.013 50.1885 285.892C43.961 269.772 39.2994 263.094 43.9729 248.824C48.6465 234.554 49.5717 228.434 39.6078 216.014C38.3264 214.367 37.4087 212.467 36.9151 210.439C36.3821 212.002 35.5791 213.46 34.5428 214.745C24.5789 227.165 25.5159 233.285 30.1895 247.555C34.863 261.825 30.1895 268.503 23.962 284.623C17.7346 300.743 35.9425 304.788 29.2524 319.651C22.5624 334.514 31.2689 339.816 31.2689 339.816L44.6016 339.436C46.796 336.91 49.5242 331.169 44.8981 320.92Z" fill="#529D65"/>
<path d="M82.9031 382.673C69.6179 352.437 69.784 342.343 70.3059 339.721C70.3253 339.619 70.3217 339.514 70.2953 339.413C70.2689 339.312 70.2205 339.219 70.1535 339.139C70.0864 339.06 70.0025 338.996 69.9078 338.953C69.8131 338.91 69.71 338.889 69.606 338.891H29.2759C29.1729 338.891 29.0712 338.913 28.978 338.957C28.8847 339.001 28.8023 339.065 28.7366 339.144C28.6709 339.223 28.6235 339.316 28.5978 339.416C28.5721 339.516 28.5687 339.62 28.5879 339.721C29.098 342.39 29.2759 352.437 15.9907 382.673C4.93551 407.832 14.6029 423.762 21.9216 431.389C26.0506 435.715 28.3459 441.47 28.327 447.45C28.3316 447.789 28.4032 448.124 28.5376 448.435C28.672 448.746 28.8666 449.028 29.1102 449.264C29.3538 449.5 29.6416 449.685 29.957 449.81C30.2725 449.934 30.6094 449.995 30.9484 449.988H67.981C68.6636 449.988 69.3184 449.717 69.8011 449.234C70.2838 448.752 70.555 448.097 70.555 447.414C70.536 441.434 72.8314 435.679 76.9604 431.353C84.2909 423.762 93.9583 407.832 82.9031 382.673Z" fill="#E2DCD7"/>
<path d="M305.632 194.344H151.072C142.929 194.344 136.328 200.945 136.328 209.088V239.786C136.328 247.929 142.929 254.531 151.072 254.531H305.632C313.775 254.531 320.376 247.929 320.376 239.786V209.088C320.376 200.945 313.775 194.344 305.632 194.344Z" fill="white"/>
<path d="M209.088 216.216H152.792C149.012 216.216 145.947 219.277 145.947 223.054C145.947 226.831 149.012 229.892 152.792 229.892H209.088C212.868 229.892 215.932 226.831 215.932 223.054C215.932 219.277 212.868 216.216 209.088 216.216Z" fill="#EDEAE7"/>
<path d="M307.684 237.947H150.301C148.048 237.947 146.221 239.771 146.221 242.022C146.221 244.272 148.048 246.096 150.301 246.096H307.684C309.937 246.096 311.764 244.272 311.764 242.022C311.764 239.771 309.937 237.947 307.684 237.947Z" fill="#EDEAE7"/>
<path d="M304.646 215.908H228.66C224.84 215.908 221.744 219.004 221.744 222.824C221.744 226.643 224.84 229.739 228.66 229.739H304.646C308.466 229.739 311.562 226.643 311.562 222.824C311.562 219.004 308.466 215.908 304.646 215.908Z" fill="#E4E2E2"/>
<path d="M228.599 229.787C232.438 229.787 235.55 226.675 235.55 222.836C235.55 218.997 232.438 215.885 228.599 215.885C224.761 215.885 221.648 218.997 221.648 222.836C221.648 226.675 224.761 229.787 228.599 229.787Z" fill="#FAA919"/>
<path d="M241.92 171.13H75.7837C71.021 171.13 67.1602 174.991 67.1602 179.753V179.765C67.1602 184.528 71.021 188.389 75.7837 188.389H241.92C246.683 188.389 250.544 184.528 250.544 179.765V179.753C250.544 174.991 246.683 171.13 241.92 171.13Z" fill="white"/>
<path d="M159.09 171.13H75.7841C74.6477 171.125 73.5215 171.345 72.4704 171.777C71.4192 172.209 70.4638 172.845 69.6591 173.647C68.8544 174.45 68.2163 175.403 67.7814 176.453C67.3465 177.503 67.1234 178.629 67.125 179.765C67.125 180.898 67.3481 182.019 67.7814 183.065C68.2148 184.112 68.85 185.062 69.6508 185.863C70.4515 186.664 71.4022 187.299 72.4485 187.732C73.4947 188.166 74.6161 188.389 75.7485 188.389H159.054L159.09 171.13Z" fill="#D3D1D0"/>
<path d="M348.845 348.736C344.705 338.001 341.597 333.565 344.705 324.052C347.813 314.538 348.429 310.482 341.799 302.214C335.346 294.16 345.772 276.984 332.475 276.118H331.289C319.427 276.925 326.45 290.696 323.508 299.379C323.833 300.73 324.444 301.996 325.299 303.092C331.93 311.395 331.313 315.428 328.205 324.941C325.097 334.454 328.205 338.879 332.345 349.626C336.485 360.373 324.374 363.077 328.786 372.946C331.87 379.778 330.044 383.622 328.632 385.294L331.823 385.199L343.898 385.555C343.898 385.555 349.699 381.997 345.239 372.104C340.779 362.211 352.996 359.483 348.845 348.736Z" fill="#268040"/>
<path d="M328.868 372.887C324.42 363.018 336.531 360.302 332.427 349.567C328.322 338.832 325.179 334.384 328.287 324.882C331.395 315.381 332.011 311.301 325.381 303.033C324.526 301.937 323.915 300.672 323.59 299.32C323.243 300.358 322.721 301.329 322.047 302.191C315.417 310.494 316.034 314.527 319.141 324.028C322.249 333.53 319.141 337.978 315.002 348.713C310.862 359.448 322.973 362.176 318.56 372.045C314.148 381.914 319.782 385.52 319.782 385.52L328.666 385.259C330.125 383.563 331.952 379.743 328.868 372.887Z" fill="#529D65"/>
<path d="M340.54 386.86C340.303 386.943 322.747 379.849 329.58 364.405C336.412 348.961 331.81 342.402 339.354 340.824C343.316 340.124 345.937 342.129 347.088 351.725C348.855 366.517 362.484 379.517 340.54 386.86Z" fill="#4F9660"/>
<path d="M332.001 394.985C331.764 395.057 314.208 387.963 321.041 372.519C327.873 357.075 323.259 350.516 330.815 348.95C334.765 348.238 337.398 350.243 338.549 359.839C340.316 374.631 353.969 387.631 332.001 394.985Z" fill="#7FB68B"/>
<path d="M354.584 148.331L289.202 182.73C288.638 183.027 288.138 183.433 287.73 183.923C287.323 184.414 287.016 184.98 286.828 185.589C286.639 186.199 286.573 186.839 286.632 187.474C286.692 188.109 286.876 188.726 287.174 189.29C287.776 190.427 288.805 191.279 290.034 191.659C291.264 192.039 292.594 191.917 293.733 191.318L359.115 156.919C360.253 156.316 361.105 155.288 361.485 154.058C361.865 152.829 361.742 151.498 361.144 150.359C360.847 149.795 360.441 149.295 359.951 148.888C359.46 148.48 358.894 148.173 358.285 147.985C357.675 147.797 357.035 147.73 356.4 147.79C355.765 147.849 355.148 148.033 354.584 148.331Z" fill="white"/>
<path d="M236.215 117.349L218.493 119.626C215.548 120.007 212.758 121.171 210.415 122.996C208.072 124.822 206.262 127.242 205.173 130.005L198.791 146.102H279.451L276.652 139.957C275.216 136.682 272.9 133.87 269.962 131.832L262.275 126.482L256.202 139.044C255.948 139.579 255.547 140.031 255.047 140.348C254.546 140.665 253.966 140.833 253.373 140.833C252.781 140.833 252.2 140.665 251.7 140.348C251.199 140.031 250.798 139.579 250.544 139.044C246.721 131.226 241.904 123.934 236.215 117.349Z" fill="#296182"/>
<path d="M258.67 121.262L259.856 119.459C259.955 119.309 260.083 119.18 260.233 119.08C260.383 118.98 260.552 118.911 260.729 118.878C260.906 118.845 261.088 118.848 261.264 118.886C261.44 118.925 261.607 118.999 261.754 119.104L265.312 121.666C266.067 122.207 266.984 122.478 267.912 122.432C268.84 122.387 269.726 122.029 270.425 121.417L271.421 120.539L272.073 120.396C272.273 120.356 272.453 120.247 272.583 120.09C272.712 119.932 272.784 119.735 272.785 119.531V119.044C272.788 118.958 272.808 118.874 272.846 118.796C272.883 118.719 272.937 118.65 273.003 118.595C273.07 118.54 273.147 118.5 273.23 118.477C273.313 118.454 273.4 118.449 273.485 118.463C273.666 118.491 273.851 118.452 274.006 118.354C274.161 118.256 274.275 118.105 274.327 117.929L274.707 116.672C274.72 116.627 274.742 116.584 274.773 116.548C274.803 116.512 274.841 116.483 274.884 116.463C274.927 116.443 274.973 116.432 275.02 116.431C275.067 116.43 275.114 116.44 275.158 116.458L276.13 116.85C276.407 116.962 276.716 116.965 276.995 116.86C277.274 116.754 277.503 116.547 277.637 116.28L281.765 107.847C281.765 107.847 291.574 103.6 284.754 95.5104C282.548 92.944 279.757 90.9463 276.617 89.6863C274.06 88.6186 271.218 88.4454 268.55 89.1946C265.883 89.9438 263.547 91.5715 261.92 93.8142L247.425 113.754C246.879 114.5 246.188 115.128 245.393 115.599C244.598 116.07 243.715 116.375 242.799 116.494L236.18 117.348C241.833 123.928 246.617 131.207 250.414 139.008C250.668 139.543 251.069 139.995 251.569 140.312C252.07 140.628 252.65 140.796 253.243 140.796C253.835 140.796 254.416 140.628 254.916 140.312C255.417 139.995 255.818 139.543 256.072 139.008L262.145 126.446L259.251 124.429C258.773 124.071 258.448 123.547 258.341 122.96C258.233 122.373 258.35 121.767 258.67 121.262Z" fill="#BBB1CC"/>
<path d="M286.107 105.238C286.107 105.238 281.99 112.236 271.481 104.621L268.432 102.486C267.933 102.132 267.326 101.964 266.715 102.009C266.105 102.055 265.529 102.311 265.087 102.735L261.837 105.879C261.693 106.014 261.52 106.117 261.331 106.178C261.143 106.24 260.943 106.259 260.746 106.234C260.454 106.207 260.18 106.084 259.965 105.885C259.751 105.685 259.608 105.42 259.56 105.131C259.514 104.846 259.39 104.58 259.203 104.36C259.015 104.141 258.772 103.977 258.498 103.886C258.224 103.796 257.93 103.782 257.649 103.847C257.368 103.912 257.11 104.052 256.903 104.253L253.451 107.658L252.621 108.488C252.55 108.558 252.463 108.608 252.367 108.634C252.271 108.66 252.17 108.662 252.074 108.638C251.978 108.614 251.889 108.566 251.817 108.498C251.744 108.431 251.69 108.345 251.66 108.251C251.458 107.563 252.087 107.172 252.526 106.543C254.659 103.789 256.469 100.8 257.923 97.6346C261.031 90.1261 270.888 81.9059 283.699 94.3845C289.238 99.7579 287.257 103.411 286.107 105.238Z" fill="#143659"/>
<path d="M312.475 171.081C315.275 169.812 316.034 168.46 316.271 167.618C316.291 167.538 316.29 167.455 316.269 167.375C316.248 167.296 316.207 167.223 316.15 167.164C316.093 167.105 316.022 167.061 315.944 167.037C315.865 167.012 315.782 167.008 315.702 167.024L299 170.144C298.707 170.204 298.421 170.296 298.146 170.417L293.603 172.422C292.902 172.742 292.119 172.837 291.361 172.694L284.244 171.224L281.48 180.25L286.818 181.164C287.542 181.294 288.231 181.568 288.847 181.97L297.933 187.901C298.376 188.196 298.878 188.393 299.403 188.479C299.929 188.565 300.467 188.538 300.981 188.399L301.717 188.198C301.899 188.145 302.092 188.145 302.274 188.198L302.938 188.411C303.369 188.547 303.823 188.59 304.271 188.537C304.718 188.484 305.15 188.336 305.536 188.103L306.995 187.201C307.199 187.083 307.438 187.037 307.671 187.071L308.098 187.13C308.577 187.206 309.066 187.165 309.525 187.01C309.983 186.855 310.398 186.591 310.732 186.241L312.048 184.841C312.157 184.724 312.293 184.636 312.444 184.584C312.595 184.533 312.757 184.519 312.914 184.544L313.377 184.604C313.953 184.689 314.54 184.551 315.019 184.218C315.497 183.885 315.83 183.383 315.951 182.813C316.042 182.365 315.999 181.901 315.826 181.478C315.652 181.056 315.357 180.694 314.978 180.44L307.624 175.577C307.412 175.439 307.24 175.248 307.128 175.021C307.015 174.795 306.965 174.543 306.983 174.291C307.002 174.038 307.087 173.796 307.231 173.588C307.375 173.38 307.572 173.215 307.802 173.11C308.964 172.694 310.518 171.971 312.475 171.081Z" fill="#BBB1CC"/>
<path d="M224.425 126.02L242.68 157.667C243.322 158.778 244.374 159.591 245.61 159.933L277.969 168.082C279.3 168.422 280.443 169.275 281.148 170.454L284.481 171.332L282.489 180.525L279.559 180.169L278.811 180.442C277.877 180.776 276.875 180.874 275.893 180.727L238.256 175.306C237.248 175.171 236.281 174.822 235.42 174.281C234.558 173.741 233.823 173.023 233.262 172.174L209.325 135.889C208.006 133.985 207.467 131.647 207.817 129.357C208.168 127.068 209.383 124.999 211.211 123.577C212.217 122.808 213.373 122.259 214.604 121.964C215.836 121.67 217.115 121.637 218.36 121.867C219.605 122.097 220.788 122.586 221.833 123.301C222.877 124.016 223.76 124.943 224.425 126.02Z" fill="#7FA0B4"/>
<path d="M286.012 181.532L282.453 180.773L284.553 171.177L288.111 171.936L286.012 181.532Z" fill="#EDEAE7"/>
<path d="M285.299 177.666C286.118 177.666 286.782 177.002 286.782 176.183C286.782 175.364 286.118 174.7 285.299 174.7C284.48 174.7 283.816 175.364 283.816 176.183C283.816 177.002 284.48 177.666 285.299 177.666Z" fill="#183059"/>
<path d="M406.909 408.698L400.61 420.405C400.575 420.452 400.547 420.504 400.527 420.559C399.554 422.659 402.709 422.932 404.951 422.291L407.003 421.734C409.492 421.062 411.767 419.763 413.61 417.962C414.941 416.84 415.814 415.271 416.066 413.549C416.066 413.549 416.256 410.168 420.597 407.464C422.009 406.586 422.009 405.364 422.163 403.704L422.59 399.362C420.123 403.229 414.381 410.477 406.909 408.698Z" fill="#183059"/>
<path d="M422.589 399.386L422.684 398.33H412.423L403.895 414.308C411.356 416.075 420.121 403.229 422.589 399.386Z" fill="#FFDD9C"/>
<path d="M466.547 315.156C466.316 315.57 466 315.931 465.62 316.215C465.24 316.499 464.804 316.7 464.341 316.804L436.11 323.21C434.808 323.503 433.453 323.462 432.172 323.091L430.499 322.617C429.16 322.236 427.744 322.215 426.395 322.557L413.039 325.262C412.591 325.35 412.187 325.591 411.897 325.944C411.607 326.296 411.449 326.739 411.449 327.195L468.588 326.377C469.691 326.355 470.775 326.077 471.753 325.565C472.731 325.052 473.576 324.319 474.222 323.423L483.96 309.782H469.572L466.547 315.156Z" fill="#FFCC6A"/>
<path d="M489.298 283.77L487.745 284.291C484.705 285.319 482.15 287.43 480.568 290.222L469.572 309.759H483.961L490.639 300.044L489.298 283.77Z" fill="#296182"/>
<path d="M528.548 281.728C528.59 278.973 527.898 276.256 526.543 273.857C525.188 271.458 523.219 269.462 520.838 268.075C520.514 267.888 520.26 267.6 520.115 267.256C519.969 266.911 519.94 266.528 520.032 266.166C520.179 265.515 520.254 264.851 520.257 264.185C520.26 262.197 519.559 260.272 518.278 258.752C516.996 257.232 515.218 256.215 513.259 255.881C512.934 255.83 512.628 255.693 512.374 255.485C512.12 255.276 511.925 255.004 511.811 254.695C511.317 253.351 510.488 252.155 509.403 251.221C508.317 250.287 507.011 249.645 505.608 249.357C505.339 249.304 505.084 249.194 504.861 249.035C504.638 248.875 504.452 248.67 504.315 248.432C503.448 246.887 502.237 245.562 500.777 244.558C499.317 243.555 497.646 242.9 495.893 242.644C485.217 240.781 481.208 248.574 480.034 252.252C479.951 252.503 479.806 252.73 479.614 252.913C479.421 253.095 479.186 253.226 478.931 253.295C477.813 253.597 476.77 254.126 475.866 254.85C474.962 255.573 474.216 256.474 473.677 257.499C473.137 258.523 472.814 259.647 472.728 260.801C472.642 261.956 472.795 263.116 473.178 264.208C473.246 264.417 473.252 264.641 473.192 264.852C473.133 265.063 473.012 265.252 472.845 265.395C471.887 266.182 471.115 267.172 470.585 268.294C470.056 269.417 469.783 270.642 469.785 271.883C469.779 273.499 470.245 275.082 471.125 276.438C471.262 276.649 471.314 276.904 471.273 277.152C471.231 277.4 471.098 277.623 470.9 277.778C468.725 279.435 467.239 281.836 466.726 284.522C466.213 287.207 466.711 289.987 468.123 292.329C469.534 294.67 471.761 296.407 474.375 297.207C476.99 298.007 479.807 297.813 482.287 296.662C482.869 293.844 483.958 291.155 485.502 288.727C489.607 288.64 493.61 287.435 497.079 285.239L497.921 284.706C500.679 283.054 503.854 282.231 507.067 282.333C508.732 282.434 510.358 282.877 511.845 283.635C513.331 284.392 514.645 285.447 515.706 286.735C516.766 288.022 517.55 289.515 518.009 291.119C518.468 292.722 518.591 294.404 518.371 296.057V296.14C521.312 295.028 523.853 293.061 525.667 290.493C527.481 287.924 528.484 284.872 528.548 281.728Z" fill="#766499"/>
<path d="M446.954 331.632C440.702 329.628 435.922 334.432 433.751 339.71L404.726 397.442C404.627 397.64 404.582 397.86 404.594 398.081C404.606 398.302 404.675 398.516 404.794 398.703C404.914 398.889 405.08 399.041 405.275 399.145C405.471 399.248 405.69 399.299 405.912 399.292L422.732 399.411C422.732 399.411 423.811 392.934 433.799 381.618C434.914 380.349 436.1 379.056 437.286 377.644C441.651 372.484 444.178 369.566 445.281 357.479C445.487 354.376 446.61 351.403 448.507 348.939C450.011 347.046 452.095 345.699 454.438 345.107C454.735 345.036 455.02 344.965 455.316 344.918C463.325 343.292 471.432 342.195 479.585 341.632C480.282 341.577 480.956 341.359 481.552 340.994C482.147 340.629 482.648 340.128 483.013 339.532L446.954 331.632Z" fill="#296182"/>
<path d="M513.689 336.21C512.452 333.364 511.537 330.388 510.96 327.338H486.727C486.657 328.021 486.522 328.697 486.324 329.354L483.477 338.488C483.36 338.831 483.209 339.161 483.026 339.472C482.661 340.068 482.16 340.569 481.564 340.934C480.968 341.299 480.294 341.518 479.598 341.572C471.445 342.135 463.338 343.232 455.329 344.858L454.451 345.048C452.107 345.64 450.023 346.986 448.52 348.879C446.623 351.343 445.5 354.316 445.294 357.419C444.19 369.53 436.492 378.462 432.127 383.634L438.627 426.265C438.689 426.6 438.866 426.903 439.129 427.12C439.391 427.337 439.722 427.454 440.062 427.451H453.538C453.201 423.598 453.38 419.716 454.071 415.91C457.843 398.236 456.088 390.941 452.589 381.511C450.648 376.393 449.267 371.079 448.473 365.663C448.461 365.583 448.466 365.5 448.488 365.422C448.509 365.343 448.547 365.27 448.598 365.206C448.649 365.143 448.713 365.091 448.785 365.053C448.858 365.015 448.937 364.993 449.018 364.987C452.292 364.691 468.222 363.801 491.863 363.801C518.481 363.777 517.342 344.81 513.689 336.21Z" fill="#7FA0B4"/>
<path d="M441.247 429.503C440.357 431.342 437.024 433.857 433.561 436.099C447.474 435.683 452.184 430.168 453.56 427.795C453.56 427.653 453.56 427.511 453.56 427.356H442.196C441.959 428.092 441.603 428.78 441.247 429.503Z" fill="#FFDD9C"/>
<path d="M453.56 427.854C452.184 430.227 447.475 435.683 433.561 436.158C430.453 438.174 427.227 439.977 425.59 440.902C425.404 441.01 425.259 441.175 425.177 441.373C425.096 441.57 425.081 441.79 425.137 441.996C425.192 442.203 425.314 442.386 425.484 442.516C425.654 442.647 425.862 442.717 426.076 442.717H437.938C440.448 442.742 442.876 441.819 444.735 440.131C445.636 439.289 446.846 438.649 449.74 437.984C455.659 436.549 455.375 438.234 453.56 427.854Z" fill="#183059"/>
<path d="M511.194 316.129H486.166L486.724 327.338H510.957C510.298 323.623 510.378 319.813 511.194 316.129Z" fill="#143659"/>
<path d="M431.686 307.255C431.686 307.255 427.997 308.121 425.364 308.667C425.324 308.676 425.286 308.696 425.255 308.723C425.225 308.751 425.201 308.785 425.187 308.824C425.173 308.863 425.169 308.905 425.175 308.946C425.181 308.986 425.197 309.025 425.221 309.058C425.506 309.568 426.621 310.541 429.029 309.841L437.142 309.058L440.701 305.761L431.686 307.255Z" fill="#FFDD9C"/>
<path d="M436.3 307.409L429.741 310.897C429.514 311.022 429.335 311.218 429.231 311.454L426.609 317.195C426.583 317.249 426.573 317.309 426.58 317.369C426.587 317.428 426.61 317.484 426.647 317.531C426.684 317.578 426.733 317.614 426.79 317.634C426.846 317.654 426.907 317.658 426.965 317.646C427.795 317.456 429.337 316.661 430.298 313.601C430.351 313.44 430.437 313.292 430.552 313.167C430.666 313.042 430.806 312.944 430.962 312.877L436.336 309.959L436.3 307.409Z" fill="#FFDD9C"/>
<path d="M477.544 318.205C477.383 318.414 477.157 318.564 476.901 318.631C476.645 318.698 476.375 318.677 476.132 318.572L449.799 306.533C447.038 305.275 443.935 304.979 440.986 305.69L439.396 306.082L433.181 311.847C432.884 312.13 432.696 312.507 432.647 312.914L431.935 319.189C431.924 319.35 431.971 319.509 432.066 319.64L434.213 322.226C434.268 322.294 434.342 322.343 434.427 322.368C434.511 322.392 434.601 322.39 434.684 322.361C434.767 322.333 434.839 322.279 434.89 322.208C434.942 322.137 434.97 322.052 434.972 321.965C435.058 320.866 434.77 319.771 434.153 318.857C434.1 318.785 434.064 318.701 434.047 318.613C434.031 318.524 434.035 318.433 434.058 318.347L435.15 314.195C435.164 314.038 435.24 313.893 435.361 313.791C435.482 313.69 435.639 313.641 435.796 313.656C435.953 313.67 436.099 313.746 436.2 313.867C436.301 313.988 436.35 314.145 436.336 314.302L436.632 316.022C436.654 316.144 436.707 316.259 436.787 316.354L438.756 318.726C438.836 318.828 438.949 318.899 439.076 318.928L442.089 319.77C442.141 319.785 442.197 319.785 442.25 319.771C442.303 319.757 442.351 319.73 442.389 319.691C442.428 319.653 442.456 319.604 442.469 319.552C442.483 319.499 442.483 319.443 442.468 319.391C442.326 319.005 442.094 318.66 441.79 318.383C441.487 318.107 441.121 317.907 440.725 317.801C440.58 317.751 440.458 317.65 440.381 317.517L439.04 315.144C438.984 315.039 438.955 314.92 438.957 314.8L439.1 313.436C439.103 313.364 439.12 313.293 439.151 313.228C439.182 313.162 439.227 313.104 439.281 313.056C439.335 313.009 439.399 312.973 439.467 312.95C439.536 312.928 439.609 312.92 439.681 312.926L445.007 313.377C446.102 313.463 447.199 313.254 448.186 312.772L448.613 312.57L475.136 329.094C476.182 329.739 477.414 330.016 478.636 329.878C479.857 329.74 480.997 329.197 481.873 328.334L494.15 316.141H478.991L477.544 318.205Z" fill="#FFDD9C"/>
<path d="M367.872 294.599H415.651C415.715 294.599 415.777 294.618 415.83 294.654C415.883 294.69 415.924 294.741 415.948 294.8L427.548 325.356C427.666 325.664 427.874 325.928 428.145 326.114C428.416 326.301 428.738 326.4 429.067 326.4H458.852C459.378 326.403 459.882 326.615 460.253 326.988C460.624 327.361 460.833 327.866 460.833 328.393H382.723C382.342 328.395 381.969 328.284 381.651 328.072C381.334 327.861 381.088 327.559 380.943 327.207L367.563 295.026C367.546 294.977 367.541 294.925 367.548 294.873C367.556 294.822 367.575 294.773 367.606 294.731C367.636 294.689 367.676 294.655 367.722 294.632C367.769 294.609 367.82 294.598 367.872 294.599Z" fill="#183059"/>
<path d="M396.767 314.491C398.968 314.491 400.752 312.706 400.752 310.505C400.752 308.304 398.968 306.52 396.767 306.52C394.566 306.52 392.781 308.304 392.781 310.505C392.781 312.706 394.566 314.491 396.767 314.491Z" fill="#445A7A"/>
<path d="M529.024 359.946L522.619 331.68C521.318 325.899 521.481 319.885 523.094 314.184L527.032 300.222C527.125 299.894 527.282 299.588 527.494 299.321L524.707 298.491C524.387 298.395 524.051 298.364 523.719 298.399C523.386 298.434 523.064 298.536 522.772 298.697C522.479 298.858 522.222 299.076 522.014 299.338C521.807 299.6 521.653 299.901 521.563 300.222L517.625 314.184C516.017 319.886 515.853 325.899 517.151 331.68L524.054 362.817H526.213C527.708 362.817 529.416 361.916 529.036 360.302C529.06 360.184 529.048 360.065 529.024 359.946Z" fill="#D3D1D0"/>
<path d="M535.668 364.857L526.807 331.169C525.307 325.453 525.246 319.454 526.629 313.709L528.266 306.947C528.434 306.248 528.785 305.606 529.283 305.087C529.782 304.568 530.409 304.191 531.101 303.994L533.568 303.294C533.786 303.205 533.972 303.053 534.103 302.857C534.234 302.662 534.304 302.432 534.304 302.197C534.304 301.962 534.234 301.732 534.103 301.536C533.972 301.341 533.786 301.189 533.568 301.1L527.578 299.32C527.366 299.588 527.209 299.894 527.115 300.222L523.177 314.183C521.565 319.885 521.402 325.899 522.703 331.679L528.871 358.961C528.912 359.245 528.912 359.532 528.871 359.815C528.904 360.202 528.856 360.592 528.728 360.959C528.6 361.326 528.397 361.661 528.13 361.943C527.863 362.226 527.54 362.449 527.181 362.597C526.822 362.745 526.436 362.816 526.048 362.805L459.135 363.86C458.849 363.865 458.57 363.954 458.333 364.116C458.097 364.278 457.913 364.506 457.806 364.772C457.698 365.037 457.671 365.329 457.728 365.61C457.786 365.891 457.924 366.149 458.127 366.351C460.081 368.307 462.402 369.858 464.957 370.917C467.511 371.975 470.249 372.52 473.014 372.519H529.666C530.474 372.522 531.276 372.364 532.023 372.055C532.77 371.745 533.449 371.29 534.019 370.716C534.781 369.968 535.334 369.034 535.623 368.006C535.913 366.978 535.928 365.892 535.668 364.857Z" fill="#183059"/>
<path d="M498.811 372.614H491.314V393.23L498.811 388.023V372.614Z" fill="#D3D1D0"/>
<path d="M498.811 394.57L491.314 399.766V408.591H498.811V394.57Z" fill="#D3D1D0"/>
<path d="M541.039 437.948L504.042 429.349C502.612 429.018 501.329 428.23 500.387 427.104C499.445 425.978 498.896 424.575 498.823 423.109H491.302C491.214 424.56 490.66 425.943 489.721 427.052C488.783 428.162 487.511 428.938 486.095 429.266L449.074 437.96C448.67 438.059 448.31 438.288 448.048 438.611C447.787 438.935 447.639 439.336 447.627 439.751C447.623 440.001 447.668 440.248 447.76 440.48C447.852 440.711 447.989 440.922 448.163 441.1C448.338 441.278 448.546 441.419 448.776 441.515C449.006 441.612 449.252 441.661 449.501 441.661H540.612C541.102 441.661 541.572 441.468 541.92 441.124C542.269 440.78 542.468 440.312 542.474 439.823C542.486 439.393 542.35 438.972 542.089 438.631C541.827 438.29 541.457 438.049 541.039 437.948Z" fill="#183059"/>
<path d="M531.101 369.329L527.032 351.264L521.789 352.45L525.348 368.368C525.418 368.679 525.393 369.003 525.277 369.299C525.16 369.595 524.958 369.849 524.695 370.029L498.777 388.035V394.571L529.618 373.22C530.225 372.793 530.69 372.194 530.954 371.501C531.218 370.808 531.269 370.052 531.101 369.329Z" fill="#D3D1D0"/>
<path d="M498.811 388.022L491.314 393.23V399.766L498.811 394.57V388.022Z" fill="#B6B2B0"/>
<path d="M498.811 422.767V408.592H491.314V422.707C491.314 422.85 491.314 422.992 491.314 423.134H498.835C498.811 422.992 498.811 422.873 498.811 422.767Z" fill="#B6B2B0"/>
<path d="M455.825 439.87H447.641V448.683H455.825V439.87Z" fill="#183059"/>
<path d="M454.651 455.599C458.523 455.599 461.661 452.46 461.661 448.588C461.661 444.717 458.523 441.578 454.651 441.578C450.779 441.578 447.641 444.717 447.641 448.588C447.641 452.46 450.779 455.599 454.651 455.599Z" fill="#E6E6E6"/>
<path d="M534.304 448.685H542.488V439.871H534.304V448.685Z" fill="#183059"/>
<path d="M535.477 455.599C539.349 455.599 542.487 452.46 542.487 448.588C542.487 444.717 539.349 441.578 535.477 441.578C531.605 441.578 528.467 444.717 528.467 448.588C528.467 452.46 531.605 455.599 535.477 455.599Z" fill="#E6E6E6"/>
<path d="M494.649 448.956H502.834V440.143H494.649V448.956Z" fill="#183059"/>
<path d="M495.823 455.599C499.695 455.599 502.833 452.46 502.833 448.588C502.833 444.717 499.695 441.578 495.823 441.578C491.951 441.578 488.812 444.717 488.812 448.588C488.812 452.46 491.951 455.599 495.823 455.599Z" fill="#E6E6E6"/>
<path d="M495.041 396.029C496.18 396.029 497.104 395.105 497.104 393.965C497.104 392.825 496.18 391.901 495.041 391.901C493.901 391.901 492.977 392.825 492.977 393.965C492.977 395.105 493.901 396.029 495.041 396.029Z" fill="#183059"/>
<path d="M491.47 281.456C491.465 280.604 491.609 279.756 491.897 278.954C492.728 276.756 492.728 274.331 491.897 272.133C491.473 271.087 491.292 269.958 491.368 268.832C491.444 267.706 491.775 266.612 492.336 265.633C492.702 264.985 492.884 264.249 492.864 263.505C492.843 262.761 492.619 262.036 492.217 261.41C491.448 260.227 491.036 258.847 491.031 257.436C491.03 256.445 491.226 255.463 491.609 254.548C491.992 253.634 492.554 252.805 493.261 252.11C491.547 252.055 489.876 251.566 488.403 250.688C486.93 249.811 485.704 248.574 484.839 247.093C483.842 248.7 483.423 250.6 483.653 252.478C483.95 254.566 482.17 256.037 481.032 256.689C480.916 256.757 480.815 256.848 480.735 256.956C480.655 257.064 480.598 257.187 480.567 257.318C480.536 257.449 480.532 257.584 480.554 257.717C480.577 257.849 480.626 257.976 480.699 258.089L481.126 258.753L480.593 260.07C480.522 260.253 480.502 260.453 480.535 260.647C480.569 260.842 480.654 261.023 480.782 261.173L481.174 261.612C481.291 261.791 481.347 262.003 481.334 262.216C481.322 262.43 481.24 262.634 481.103 262.798V262.928C481.128 263.338 481.229 263.741 481.399 264.114C481.494 264.34 481.543 264.582 481.542 264.826V266.012C481.532 266.36 481.646 266.699 481.863 266.971C482.081 267.242 482.387 267.428 482.728 267.495L486.856 268.42C487.403 268.543 487.894 268.842 488.256 269.27C488.618 269.698 488.83 270.233 488.86 270.793C489.133 274.517 488.694 282.927 485.61 288.68C488.479 288.729 491.32 288.116 493.913 286.889C493.154 286.201 492.545 285.363 492.124 284.428C491.704 283.493 491.481 282.481 491.47 281.456Z" fill="#FFDD9C"/>
<path d="M507.078 282.299C503.865 282.196 500.691 283.02 497.933 284.671L497.09 285.205C496.06 285.858 494.977 286.426 493.852 286.901C491.406 287.938 488.796 288.537 486.142 288.668H485.513C483.969 291.097 482.88 293.786 482.299 296.604C481.885 298.639 481.881 300.737 482.288 302.774C482.696 304.811 483.506 306.746 484.671 308.466L479.061 316.105L494.232 316.034H511.242C511.837 313.387 512.74 310.819 513.934 308.383C515.996 304.487 517.505 300.323 518.418 296.011V295.928C518.624 294.279 518.489 292.605 518.022 291.01C517.555 289.415 516.765 287.933 515.702 286.655C514.639 285.378 513.325 284.332 511.842 283.583C510.359 282.833 508.737 282.396 507.078 282.299Z" fill="#80A5C1"/>
<path d="M500.557 316.139H479.004L499.987 287.493C500.792 286.392 501.846 285.496 503.061 284.878C504.277 284.259 505.622 283.936 506.986 283.935C508.59 283.932 510.164 284.375 511.531 285.214C512.899 286.053 514.007 287.254 514.732 288.685C515.458 290.116 515.772 291.72 515.64 293.319C515.508 294.918 514.935 296.449 513.984 297.742L500.557 316.139Z" fill="#296182"/>
<path d="M451.461 170.903H399.981C398.094 170.903 396.564 172.43 396.564 174.314C396.564 176.197 398.094 177.724 399.981 177.724H451.461C453.348 177.724 454.877 176.197 454.877 174.314C454.877 172.43 453.348 170.903 451.461 170.903Z" fill="white"/>
<path d="M451.461 181.485H399.981C398.094 181.485 396.564 183.012 396.564 184.896C396.564 186.779 398.094 188.306 399.981 188.306H451.461C453.348 188.306 454.877 186.779 454.877 184.896C454.877 183.012 453.348 181.485 451.461 181.485Z" fill="white"/>
<path d="M159.411 188.399C164.173 188.399 168.034 184.539 168.034 179.776C168.034 175.013 164.173 171.152 159.411 171.152C154.648 171.152 150.787 175.013 150.787 179.776C150.787 184.539 154.648 188.399 159.411 188.399Z" fill="#FFAA07"/>
<path d="M448.091 259.88H263.367C262.13 259.88 260.945 260.371 260.07 261.245C259.196 262.119 258.705 263.305 258.705 264.542C258.708 265.776 259.201 266.959 260.075 267.83C260.949 268.702 262.132 269.191 263.367 269.191H448.091C449.325 269.191 450.509 268.702 451.383 267.83C452.257 266.959 452.749 265.776 452.752 264.542C452.752 263.305 452.261 262.119 451.387 261.245C450.513 260.371 449.327 259.88 448.091 259.88Z" fill="white"/>
<path d="M447.996 276.948H404.689C403.453 276.948 402.267 277.439 401.393 278.314C400.518 279.188 400.027 280.374 400.027 281.61C400.027 282.846 400.518 284.032 401.393 284.906C402.267 285.78 403.453 286.272 404.689 286.272H448.091C449.311 286.272 450.483 285.794 451.355 284.94C452.226 284.086 452.728 282.925 452.753 281.705C452.755 281.08 452.633 280.461 452.394 279.883C452.156 279.305 451.805 278.78 451.363 278.338C450.921 277.896 450.396 277.546 449.819 277.307C449.241 277.069 448.622 276.947 447.996 276.948Z" fill="white"/>
<path d="M388.45 194.319H329.45C329.253 194.318 329.057 194.355 328.874 194.43C328.691 194.504 328.525 194.614 328.385 194.753C328.245 194.892 328.134 195.057 328.058 195.239C327.982 195.421 327.943 195.617 327.943 195.814V251.991C327.943 252.273 327.999 252.551 328.107 252.811C328.215 253.071 328.373 253.307 328.573 253.505C328.772 253.704 329.009 253.861 329.27 253.967C329.53 254.074 329.809 254.128 330.09 254.127H387.81C388.091 254.128 388.369 254.074 388.629 253.967C388.889 253.861 389.125 253.703 389.323 253.505C389.522 253.306 389.679 253.07 389.786 252.81C389.892 252.551 389.947 252.272 389.945 251.991V195.814C389.947 195.617 389.909 195.422 389.834 195.24C389.76 195.058 389.65 194.893 389.511 194.754C389.372 194.615 389.206 194.504 389.024 194.43C388.842 194.355 388.647 194.318 388.45 194.319ZM358.926 200.001C361.664 200.001 364.341 200.813 366.617 202.334C368.893 203.855 370.668 206.017 371.715 208.547C372.763 211.076 373.037 213.859 372.503 216.544C371.969 219.23 370.651 221.696 368.715 223.632C366.779 225.568 364.312 226.886 361.627 227.421C358.942 227.955 356.158 227.681 353.629 226.633C351.1 225.585 348.938 223.811 347.417 221.534C345.896 219.258 345.084 216.582 345.084 213.844C345.084 210.173 346.542 206.652 349.138 204.056C351.734 201.46 355.255 200.001 358.926 200.001ZM383.682 240.331C383.682 241.354 383.276 242.334 382.553 243.057C381.83 243.78 380.849 244.186 379.827 244.186H338.05C337.543 244.188 337.041 244.089 336.572 243.896C336.104 243.703 335.678 243.419 335.32 243.061C334.962 242.702 334.678 242.277 334.485 241.808C334.292 241.34 334.193 240.838 334.195 240.331C334.193 239.825 334.292 239.323 334.485 238.854C334.678 238.386 334.962 237.96 335.32 237.602C335.678 237.244 336.104 236.96 336.572 236.766C337.041 236.573 337.543 236.475 338.05 236.476H379.851C380.871 236.476 381.85 236.881 382.572 237.601C383.295 238.322 383.703 239.299 383.706 240.319L383.682 240.331Z" fill="white"/>
<path d="M358.95 227.686C366.595 227.686 372.793 221.489 372.793 213.844C372.793 206.199 366.595 200.001 358.95 200.001C351.305 200.001 345.107 206.199 345.107 213.844C345.107 221.489 351.305 227.686 358.95 227.686Z" fill="#D3D1D0"/>
<path d="M379.851 236.477H338.05C337.545 236.475 337.044 236.573 336.576 236.766C336.108 236.958 335.683 237.241 335.325 237.598C334.967 237.955 334.683 238.379 334.489 238.846C334.295 239.313 334.195 239.814 334.195 240.32C334.194 240.826 334.292 241.329 334.486 241.797C334.679 242.265 334.963 242.691 335.321 243.049C335.679 243.408 336.105 243.691 336.573 243.885C337.042 244.078 337.544 244.176 338.05 244.175H379.851C380.874 244.175 381.854 243.769 382.577 243.046C383.3 242.323 383.707 241.342 383.707 240.32C383.703 239.299 383.296 238.322 382.573 237.602C381.851 236.881 380.872 236.477 379.851 236.477Z" fill="#EDEAE7"/>
<path d="M451.638 205.861H400.834C398.704 205.861 396.979 207.587 396.979 209.716C396.979 211.846 398.704 213.571 400.834 213.571H451.638C453.767 213.571 455.493 211.846 455.493 209.716C455.493 207.587 453.767 205.861 451.638 205.861Z" fill="white"/>
<path d="M423.573 220.25H400.917C398.742 220.25 396.979 222.011 396.979 224.182C396.979 226.354 398.742 228.114 400.917 228.114H423.573C425.748 228.114 427.511 226.354 427.511 224.182C427.511 222.011 425.748 220.25 423.573 220.25Z" fill="white"/>
<path d="M408.425 234.708H400.822C399.801 234.711 398.824 235.119 398.103 235.841C397.383 236.564 396.979 237.543 396.979 238.563V238.729C396.979 239.75 397.383 240.728 398.103 241.451C398.824 242.174 399.801 242.581 400.822 242.584H408.425C409.47 242.584 410.471 242.169 411.21 241.431C411.948 240.692 412.363 239.691 412.363 238.646C412.363 237.602 411.948 236.6 411.21 235.861C410.471 235.123 409.47 234.708 408.425 234.708Z" fill="white"/>
<path d="M308.383 199.29H151.072C149.964 199.29 148.902 199.73 148.119 200.513C147.336 201.296 146.896 202.358 146.896 203.465C146.896 204.573 147.336 205.635 148.119 206.418C148.902 207.201 149.964 207.641 151.072 207.641H308.383C309.488 207.638 310.547 207.196 311.328 206.414C312.108 205.631 312.547 204.571 312.546 203.465C312.547 202.36 312.108 201.3 311.328 200.517C310.547 199.734 309.488 199.293 308.383 199.29Z" fill="#EDEAE7"/>
<path d="M140.029 456.37H151.891L151.227 423.3L136.471 409.137C136.471 409.137 139.258 429.302 138.357 440.547L137.443 453.429C137.418 453.792 137.464 454.157 137.581 454.502C137.697 454.848 137.881 455.166 138.122 455.44C138.362 455.714 138.655 455.937 138.982 456.096C139.31 456.256 139.665 456.349 140.029 456.37Z" fill="#76659A"/>
<path d="M169.636 456.773C169.636 456.625 169.578 456.484 169.473 456.379C169.369 456.275 169.227 456.216 169.079 456.216H137.526C137.379 456.216 137.237 456.275 137.132 456.379C137.028 456.484 136.969 456.625 136.969 456.773C136.964 457.137 137.049 457.495 137.218 457.817C137.369 458.184 137.649 458.483 138.005 458.658C138.361 458.833 138.769 458.871 139.152 458.766L168.343 458.398C168.588 458.409 168.833 458.377 169.067 458.304C169.424 457.872 169.625 457.333 169.636 456.773Z" fill="#76659A"/>
<path d="M139.33 459.146H167.264C167.621 459.154 167.974 459.081 168.299 458.933C168.623 458.785 168.91 458.566 169.138 458.292H137.586C137.8 458.549 138.066 458.758 138.366 458.906C138.667 459.053 138.995 459.135 139.33 459.146Z" fill="#76659A"/>
<path d="M157.809 436.242C155.887 427.547 158.39 402.519 158.39 402.519L142.566 417.049C142.566 417.049 147.311 434.118 146.671 443.003C146.445 445.98 146.267 448.934 146.208 451.959V454.224C146.2 454.639 146.274 455.05 146.425 455.436C146.577 455.822 146.803 456.174 147.09 456.473C147.378 456.771 147.721 457.01 148.101 457.176C148.481 457.342 148.89 457.431 149.304 457.439H150.371L159.422 441.686C158.729 439.921 158.189 438.099 157.809 436.242Z" fill="#978AB2"/>
<path d="M163.053 446.643L159.648 457.982C161.357 458.077 162.97 458.137 164.322 458.184L167.145 450.403L163.053 446.643Z" fill="#978AB2"/>
<path d="M173.562 453.856L171.842 452.836V457.391C172.895 457.125 173.984 457.028 175.068 457.106C175.338 457.114 175.607 457.068 175.858 456.97C176.11 456.872 176.339 456.725 176.533 456.537C176.726 456.349 176.88 456.124 176.985 455.875C177.09 455.627 177.144 455.36 177.144 455.09C177.144 454.896 177.071 454.71 176.939 454.569C176.806 454.428 176.625 454.343 176.432 454.331L174.902 454.247C174.431 454.222 173.972 454.088 173.562 453.856Z" fill="#978AB2"/>
<path d="M163.895 459.158L164.666 457.082H159.945L159.328 459.158H163.895Z" fill="#5888AD"/>
<path d="M176.74 459.157C177.097 458.726 177.298 458.187 177.31 457.627C177.31 457.479 177.251 457.337 177.146 457.233C177.042 457.128 176.9 457.069 176.752 457.069H171.889V459.157H176.74Z" fill="#5888AD"/>
<path d="M150.514 457.105H145.2C145.127 457.105 145.054 457.12 144.987 457.148C144.919 457.176 144.858 457.217 144.806 457.269C144.754 457.321 144.713 457.382 144.685 457.45C144.657 457.517 144.643 457.59 144.643 457.663C144.639 458.028 144.721 458.39 144.88 458.719C144.962 458.892 145.07 459.052 145.2 459.193H149.304L150.514 457.105Z" fill="#5888AD"/>
<path d="M176.74 459.158H171.912V460H174.925C175.271 460.001 175.612 459.925 175.926 459.78C176.239 459.634 176.517 459.422 176.74 459.158Z" fill="#183059"/>
<path d="M145.201 459.158C145.423 459.421 145.699 459.632 146.01 459.777C146.321 459.923 146.661 459.999 147.004 460H148.819L149.305 459.158H145.201Z" fill="#183059"/>
<path d="M159.327 459.158L159.078 460H163.586L163.894 459.158H159.327Z" fill="#183059"/>
<path d="M163.087 446.549C163.096 446.534 163.1 446.518 163.1 446.501C163.1 446.485 163.096 446.468 163.087 446.454C161.55 445.169 160.332 443.545 159.529 441.709C159.521 441.694 159.509 441.682 159.494 441.673C159.479 441.665 159.463 441.66 159.446 441.66C159.429 441.66 159.412 441.665 159.398 441.673C159.383 441.682 159.371 441.694 159.363 441.709L150.49 457.129H159.92L163.087 446.549Z" fill="#183059"/>
<path d="M159.326 459.158L159.943 457.082H150.513L149.303 459.158H159.326Z" fill="#183059"/>
<path d="M149.305 459.158L148.818 460H159.079L159.328 459.158H149.305Z" fill="#183059"/>
<path d="M171.842 452.516C171.841 452.334 171.775 452.158 171.655 452.021C171.535 451.884 171.37 451.794 171.19 451.768C169.762 451.6 168.384 451.135 167.145 450.404L164.666 457.106H171.89L171.842 452.516Z" fill="#183059"/>
<path d="M171.913 459.158L171.889 457.082H164.666L163.895 459.158H171.913Z" fill="#183059"/>
<path d="M171.913 459.158H163.894L163.586 460H171.925L171.913 459.158Z" fill="#183059"/>
<path d="M170.716 226.584C169.915 225.719 169.408 224.623 169.268 223.453C169.529 221.907 169.378 220.319 168.83 218.85L168.355 217.664C166.291 217.664 161.238 218.044 161.962 222.088C162.109 223.302 161.781 224.526 161.048 225.505C160.374 226.467 159.49 227.263 158.462 227.832C157.434 228.401 156.291 228.729 155.117 228.79C152.662 228.956 149.032 229.977 149.53 234.876C149.815 237.592 147.68 238.932 144.892 239.549C145.058 240.28 145.106 241.033 145.035 241.779L143.445 257.923L159.625 254.364L158.462 248.339C157.549 243.594 159.008 240.925 161.523 239.976L167.371 237.758C169.102 237.106 169.743 236.145 169.743 235.065V233.132C169.916 232.891 170.001 232.598 169.983 232.302C169.966 232.007 169.848 231.726 169.648 231.507L169.375 231.21C169.35 231.188 169.33 231.161 169.316 231.13C169.302 231.099 169.295 231.066 169.295 231.032C169.295 230.999 169.302 230.965 169.316 230.935C169.33 230.904 169.35 230.877 169.375 230.854C169.547 230.734 169.682 230.568 169.764 230.375C169.845 230.182 169.871 229.97 169.838 229.763L169.672 228.838C169.649 228.686 169.682 228.532 169.765 228.403C169.848 228.274 169.975 228.18 170.123 228.138C170.405 228.009 170.626 227.773 170.737 227.482C170.848 227.192 170.84 226.869 170.716 226.584Z" fill="#978AB2"/>
<path d="M149.578 234.887C149.08 230.012 152.71 228.956 155.165 228.802C156.338 228.74 157.482 228.413 158.51 227.843C159.537 227.274 160.422 226.478 161.096 225.516C161.829 224.538 162.156 223.314 162.009 222.1C161.345 218.304 166.007 217.806 168.284 217.806C168.328 217.805 168.371 217.792 168.409 217.77C168.447 217.748 168.479 217.716 168.501 217.678C168.524 217.64 168.537 217.597 168.538 217.553C168.539 217.509 168.53 217.466 168.509 217.426C166.944 214.378 162.946 210.641 153.801 211.294C153.109 211.315 152.42 211.382 151.737 211.495C149.796 211.823 147.939 212.53 146.272 213.576C144.606 214.623 143.162 215.988 142.023 217.593C140.885 219.199 140.075 221.013 139.639 222.933C139.203 224.852 139.15 226.838 139.484 228.778C139.967 231.656 141.292 234.326 143.291 236.453C144.106 237.323 144.671 238.396 144.928 239.56C147.787 238.944 149.863 237.662 149.578 234.887Z" fill="#183059"/>
<path d="M213.951 237.081L215.137 230.284C215.148 230.19 215.172 230.098 215.209 230.011L217.142 225.468C217.163 225.42 217.198 225.379 217.243 225.351C217.287 225.322 217.338 225.307 217.391 225.307C217.444 225.307 217.495 225.322 217.54 225.351C217.584 225.379 217.619 225.42 217.64 225.468C218.116 226.66 218.116 227.989 217.64 229.181C216.703 232.087 216.952 232.739 216.952 232.739L213.951 237.081Z" fill="#76659A"/>
<path d="M127.204 301.716C127.074 300.855 127.159 299.974 127.453 299.154L133.728 281.361L120.823 261.291L113.385 302.285C113.059 304.082 113.286 305.935 114.038 307.599C116.523 307.605 118.982 307.083 121.252 306.069C123.521 305.055 125.55 303.571 127.204 301.716Z" fill="#5888AD"/>
<path d="M117.042 311.206L129.07 319.722L133.198 313.969L127.741 303.294C127.472 302.766 127.291 302.196 127.208 301.609C125.558 303.473 123.531 304.966 121.261 305.988C118.991 307.011 116.53 307.54 114.041 307.54C114.692 309.011 115.729 310.277 117.042 311.206Z" fill="#183059"/>
<path d="M136.848 252.24L163.679 250.508L161.307 248.907C160.347 248.275 159.229 247.925 158.081 247.899L142.126 247.555C138.971 247.59 136.765 249.393 136.848 252.24Z" fill="#183059"/>
<path d="M218.021 228.458C218.152 228.363 220.975 224.603 221.58 223.713C221.676 223.592 221.787 223.484 221.912 223.393L225.328 221.021C225.373 220.993 225.424 220.978 225.476 220.979C225.529 220.979 225.58 220.995 225.624 221.023C225.668 221.052 225.702 221.093 225.723 221.141C225.745 221.189 225.752 221.242 225.744 221.293C225.605 221.873 225.352 222.419 224.999 222.9C224.647 223.38 224.202 223.786 223.691 224.093L222.221 225.872L218.021 228.458Z" fill="#76659A"/>
<path d="M172.435 293.936H132.318V305.216H172.435V293.936Z" fill="#183059"/>
<path d="M157.797 242.87C161.21 242.87 163.977 240.103 163.977 236.69C163.977 233.277 161.21 230.51 157.797 230.51C154.384 230.51 151.617 233.277 151.617 236.69C151.617 240.103 154.384 242.87 157.797 242.87Z" fill="#FAA919"/>
<path d="M150.052 212.314C150.147 212.883 149.411 213.5 149.423 214.105C149.435 214.71 150.218 215.291 150.158 215.849C150.099 216.406 149.198 216.845 149.043 217.391C148.889 217.936 149.47 218.755 149.245 219.277C149.02 219.799 148.059 219.965 147.75 220.463C147.442 220.961 147.75 221.886 147.418 222.325C147.086 222.764 146.078 222.645 145.651 223.025C145.224 223.405 145.271 224.401 144.797 224.721C144.322 225.042 143.433 224.65 142.911 224.899C142.389 225.148 142.164 226.085 141.618 226.287C141.072 226.489 140.325 225.824 139.756 225.919C139.191 225.899 138.629 225.844 138.071 225.753C137.49 225.753 137.004 226.085 136.434 226.014C135.865 225.943 135.153 226.631 134.596 226.489C134.038 226.346 133.754 225.397 133.232 225.172C132.71 224.947 131.832 225.397 131.334 225.101C130.836 224.804 130.836 223.82 130.397 223.452C129.958 223.084 128.985 223.274 128.594 222.859C128.202 222.444 128.475 221.483 128.155 221.009C127.835 220.534 126.85 220.439 126.589 219.929C126.328 219.419 126.874 218.589 126.696 218.031C126.518 217.474 125.605 217.13 125.51 216.549C125.415 215.967 126.15 215.362 126.138 214.757C126.126 214.152 125.344 213.571 125.415 213.002C125.486 212.432 126.376 212.017 126.518 211.46C126.66 210.902 126.091 210.108 126.316 209.574C126.542 209.04 127.502 208.898 127.811 208.388C128.119 207.878 127.811 206.964 128.155 206.525C128.499 206.086 129.495 206.205 129.91 205.825C130.326 205.446 130.29 204.449 130.764 204.129C131.239 203.809 132.129 204.2 132.65 203.951C133.172 203.702 133.398 202.765 133.943 202.563C134.489 202.362 135.236 203.026 135.806 202.931C136.375 202.836 136.873 201.982 137.443 201.959C138.012 201.935 138.558 202.765 139.127 202.836C139.696 202.907 140.408 202.219 140.966 202.362C141.523 202.504 141.808 203.453 142.33 203.678C142.852 203.904 143.741 203.453 144.228 203.75C144.714 204.046 144.726 205.031 145.176 205.398C145.627 205.766 146.588 205.576 146.968 205.992C147.347 206.407 147.086 207.367 147.418 207.842C147.75 208.316 147.027 209.028 147.288 209.538C147.549 210.048 148.189 211.519 148.367 212.077C148.545 212.634 149.957 211.733 150.052 212.314Z" fill="#183059"/>
<path d="M148.487 214.473L140.587 225.587C139.745 226.774 138.594 226.868 136.851 226.524L135.997 226.347C135.969 226.34 135.943 226.327 135.921 226.308C135.899 226.289 135.882 226.265 135.872 226.238C135.861 226.211 135.857 226.182 135.86 226.154C135.864 226.125 135.874 226.098 135.89 226.074L147.289 209.906C147.334 209.845 147.401 209.803 147.476 209.79C147.552 209.776 147.629 209.793 147.692 209.835C148.05 210.087 148.354 210.407 148.587 210.776C148.821 211.146 148.979 211.558 149.053 211.989C149.127 212.42 149.115 212.861 149.018 213.287C148.92 213.713 148.74 214.116 148.487 214.473Z" fill="#FAA919"/>
<path d="M230.653 229.834L226.158 226.37C226.04 226.282 225.902 226.225 225.757 226.206C225.611 226.188 225.463 226.207 225.327 226.263L223.607 226.987C223.592 226.988 223.577 226.984 223.563 226.976C223.55 226.969 223.539 226.957 223.531 226.944C223.524 226.93 223.52 226.915 223.521 226.899C223.522 226.884 223.527 226.869 223.536 226.857L225.209 225.564C225.33 225.466 225.472 225.397 225.624 225.362C228.862 224.567 229.621 223.168 229.787 222.444C229.803 222.394 229.804 222.341 229.79 222.291C229.776 222.24 229.748 222.195 229.71 222.16C229.671 222.125 229.623 222.102 229.572 222.094C229.52 222.085 229.467 222.091 229.42 222.112L223.702 224.176C223.533 224.235 223.373 224.319 223.228 224.425L217.095 228.743C216.64 229.071 216.289 229.524 216.087 230.047L211.734 241.589C211.713 241.636 211.711 241.69 211.729 241.738C211.747 241.787 211.782 241.827 211.828 241.85L215.909 244.021C215.934 244.035 215.961 244.043 215.989 244.046C216.017 244.049 216.046 244.046 216.072 244.037C216.099 244.028 216.124 244.013 216.145 243.994C216.166 243.975 216.182 243.952 216.194 243.926C216.299 243.667 216.481 243.448 216.716 243.297L218.364 242.229C219.114 241.74 219.652 240.986 219.871 240.118L221.057 235.314C221.12 235.059 221.238 234.822 221.401 234.617C221.565 234.412 221.771 234.245 222.006 234.128L224.271 233.013C224.376 232.96 224.495 232.947 224.609 232.975C224.722 233.003 224.821 233.072 224.888 233.167C225.253 233.787 225.773 234.301 226.397 234.659C227.021 235.017 227.728 235.206 228.447 235.207C228.491 235.202 228.533 235.185 228.569 235.159C228.604 235.132 228.632 235.096 228.649 235.055C228.666 235.013 228.671 234.968 228.665 234.924C228.659 234.88 228.641 234.839 228.613 234.804L225.315 231.162C225.249 231.089 225.166 231.033 225.073 231C224.979 230.966 224.879 230.957 224.782 230.973L222.409 231.281C222.32 231.296 222.227 231.284 222.145 231.246C222.062 231.208 221.993 231.146 221.947 231.067C221.916 231.016 221.896 230.958 221.888 230.899C221.88 230.839 221.885 230.778 221.901 230.72C221.918 230.663 221.947 230.609 221.985 230.562C222.023 230.516 222.071 230.478 222.124 230.451L225.588 228.648C225.664 228.607 225.752 228.592 225.837 228.605C225.923 228.618 226.002 228.658 226.063 228.719C226.605 229.353 227.305 229.833 228.093 230.11C228.88 230.387 229.726 230.451 230.546 230.296C230.593 230.283 230.634 230.257 230.668 230.222C230.701 230.187 230.724 230.143 230.735 230.096C230.745 230.049 230.744 230 230.729 229.954C230.715 229.908 230.689 229.866 230.653 229.834Z" fill="#978AB2"/>
<path d="M171.734 250.449C170.222 250.23 168.691 250.17 167.167 250.271L128.925 252.774C127.78 252.848 126.666 253.174 125.661 253.727C124.657 254.281 123.786 255.049 123.112 255.977C121.797 257.8 120.974 259.932 120.725 262.166C120.476 264.4 120.808 266.66 121.689 268.728L132.365 293.935H172.481C172.973 289.726 173.887 285.577 175.209 281.551C175.455 280.783 175.98 280.135 176.68 279.736L171.082 272.145C168.738 268.98 167.528 265.119 167.647 261.184C167.765 257.248 169.205 253.467 171.734 250.449Z" fill="#80A5C1"/>
<path d="M178.994 279.356L199.42 284.018C200.416 284.246 201.443 284.299 202.457 284.172C203.675 281.429 204.194 278.427 203.968 275.434C203.743 272.441 202.779 269.55 201.164 267.02C201.002 267.064 200.833 267.073 200.667 267.046C200.501 267.02 200.343 266.958 200.203 266.866L180.856 253.937C178.114 252.109 174.997 250.918 171.735 250.449C169.217 253.463 167.784 257.235 167.666 261.16C167.548 265.086 168.751 268.937 171.082 272.097L176.681 279.689C177.384 279.294 178.209 279.175 178.994 279.356Z" fill="#5888AD"/>
<path d="M216.193 243.593L211.84 241.221C211.808 241.203 211.772 241.192 211.735 241.189C211.699 241.186 211.662 241.191 211.627 241.204C211.592 241.216 211.56 241.235 211.534 241.261C211.507 241.286 211.486 241.317 211.472 241.351L201.924 266.261C201.856 266.434 201.749 266.588 201.611 266.711C201.473 266.835 201.308 266.924 201.129 266.973C202.744 269.503 203.708 272.393 203.933 275.386C204.159 278.379 203.64 281.382 202.422 284.125C203.587 283.996 204.711 283.62 205.719 283.022C218.91 275.252 217.735 250.841 217.273 245.195C217.235 244.86 217.117 244.54 216.929 244.262C216.741 243.983 216.489 243.753 216.193 243.593Z" fill="#183059"/>
<path d="M172.944 308.549C172.802 307.458 172.589 306.426 172.446 305.216H132.365C107.598 330.849 122.983 357.977 123.089 381.463C123.172 401.949 123.208 422.98 123.22 431.544C123.22 431.941 123.326 432.331 123.528 432.672C123.73 433.014 124.02 433.295 124.368 433.487C124.716 433.678 125.109 433.773 125.506 433.761C125.902 433.749 126.289 433.63 126.624 433.418L163.147 410.122C164.392 403.159 167.417 388.414 170.928 365.26C177.606 321.028 174.048 317.054 172.944 308.549Z" fill="#5888AD"/>
<path d="M158.046 0.118067C153.966 0.545092 149.98 3.19028 146.588 6.33366H188.982C188.389 5.4203 185.53 2.03968 177.535 4.13922C168.366 6.51158 168.936 -1.02067 158.046 0.118067Z" fill="white"/>
<path d="M325.18 61.8241C339.77 48.3491 356.886 37.0092 374.371 35.1706C421.13 30.248 418.674 62.7375 458.044 52.4058C492.36 43.3909 504.613 57.9453 507.199 61.8241H325.18Z" fill="white"/>
<path d="M41.1723 39.3568C57.1857 42.5951 58.965 21.4218 81.5024 19.8204C95.9501 18.7884 107.717 38.4434 107.717 43.8761H0C19.228 30.2351 33.9129 37.8859 41.1723 39.3568Z" fill="white"/>
</svg>
