<svg width="81" height="81" viewBox="0 0 81 81" fill="none" xmlns="http://www.w3.org/2000/svg">
<path d="M40.5 80C62.3152 80 80 62.3152 80 40.5C80 18.6848 62.3152 1 40.5 1C18.6848 1 1 18.6848 1 40.5C1 62.3152 18.6848 80 40.5 80Z" fill="#F8BD00" stroke="#F8BD00"/>
<path d="M57.4421 53.0538L50.8325 46.4441C50.5731 46.1848 50.1527 46.1848 49.8933 46.4441L49.6022 46.7352L47.7683 44.9012C48.8384 43.436 49.604 41.7572 49.9942 39.9775C50.0728 39.6193 49.8461 39.2652 49.4879 39.1866C49.1294 39.1084 48.7755 39.3348 48.697 39.6931C47.5182 45.0681 42.6624 48.9693 37.1508 48.9693C30.6329 48.9693 25.3301 43.6666 25.3301 37.1487C25.3301 30.6308 30.6328 25.3281 37.1507 25.3281C42.8216 25.3281 47.7052 29.3647 48.7628 34.9262C48.8313 35.2864 49.1788 35.523 49.5392 35.4545C49.8995 35.3859 50.136 35.0383 50.0675 34.6781C48.8909 28.4908 43.4585 24 37.1507 24C29.9004 24 24.002 29.8985 24.002 37.1488C24.002 44.3991 29.9004 50.2975 37.1507 50.2975C39.9355 50.2975 42.6607 49.4044 44.8999 47.7711L46.7331 49.6043L46.4421 49.8954C46.1828 50.1547 46.1828 50.5752 46.4421 50.8346L53.0518 57.4442C53.4223 57.8147 53.909 58 54.3958 58C54.8824 58 55.3691 57.8147 55.7396 57.4442L57.4421 55.7417C58.1831 55.0007 58.1831 53.7949 57.4421 53.0538ZM45.9371 46.9299C46.2852 46.6166 46.6157 46.2856 46.9272 45.9386L48.663 47.6745L47.6723 48.6652L45.9371 46.9299ZM56.5029 54.8026L54.8004 56.5051C54.5771 56.7284 54.214 56.7283 53.9909 56.5051L47.8508 50.3651L50.3628 47.853L56.5029 53.993C56.7261 54.2162 56.7261 54.5794 56.5029 54.8026Z" fill="white"/>
<path d="M33.4253 33.563H30.6014C30.2347 33.563 29.9373 33.8603 29.9373 34.2271C29.9373 34.5938 30.2347 34.8911 30.6014 34.8911H31.3492V38.4237C31.3492 38.836 31.0138 39.1715 30.6014 39.1715C30.189 39.1715 29.8535 38.836 29.8535 38.4237C29.8535 38.0569 29.5561 37.7596 29.1895 37.7596C28.8228 37.7596 28.5254 38.0569 28.5254 38.4237C28.5254 39.5684 29.4567 40.4997 30.6014 40.4997C31.7462 40.4997 32.6775 39.5684 32.6775 38.4237V34.8911H33.4254C33.7921 34.8911 34.0894 34.5938 34.0894 34.2271C34.0894 33.8603 33.7921 33.563 33.4253 33.563Z" fill="white"/>
<path d="M37.3199 33.563C35.4074 33.563 33.8516 35.1189 33.8516 37.0313C33.8516 38.9438 35.4075 40.4997 37.32 40.4997C39.2324 40.4997 40.7884 38.9438 40.7884 37.0313C40.7884 35.1189 39.2324 33.563 37.3199 33.563ZM37.3199 39.1716C36.1398 39.1716 35.1796 38.2115 35.1796 37.0313C35.1796 35.8512 36.1397 34.8911 37.3199 34.8911C38.5001 34.8911 39.4602 35.8512 39.4602 37.0313C39.4602 38.2114 38.5 39.1716 37.3199 39.1716Z" fill="white"/>
<path d="M45.7771 35.6876C45.7771 34.5158 44.8238 33.5625 43.6521 33.5625H42.2891C41.9224 33.5625 41.625 33.8598 41.625 34.2266V37.1485V40.0704C41.625 40.4372 41.9224 40.7345 42.2891 40.7345H43.652C44.8237 40.7345 45.7771 39.7812 45.7771 38.6094C45.7771 38.0439 45.5545 37.5297 45.193 37.1484C45.5545 36.7674 45.7771 36.2532 45.7771 35.6876ZM43.6521 39.4064H42.9532V37.8126H43.652C44.0914 37.8126 44.4489 38.1701 44.4489 38.6095C44.4489 39.049 44.0915 39.4064 43.6521 39.4064ZM43.652 36.4845H42.9532V34.8907H43.652C44.0914 34.8907 44.4489 35.2482 44.4489 35.6876C44.4489 36.127 44.0914 36.4845 43.652 36.4845Z" fill="white"/>
<path d="M49.6349 36.4849C49.2682 36.4849 48.9708 36.7822 48.9708 37.149L48.9707 37.1962C48.9693 37.563 49.2654 37.8615 49.6322 37.8629C49.6331 37.8629 49.6339 37.8629 49.6348 37.8629C50.0003 37.8629 50.2974 37.5672 50.2988 37.2014L50.299 37.1489C50.299 36.7822 50.0016 36.4849 49.6349 36.4849Z" fill="white"/>
<path d="M44.0945 30.2047C40.2655 26.3758 34.0353 26.3758 30.2062 30.2047C29.9469 30.464 29.9469 30.8845 30.2062 31.1438C30.4655 31.4032 30.8859 31.4032 31.1454 31.1438C34.4565 27.8327 39.8441 27.8327 43.1554 31.1438C43.2851 31.2735 43.455 31.3383 43.625 31.3383C43.795 31.3383 43.9649 31.2734 44.0945 31.1438C44.3539 30.8846 44.3539 30.464 44.0945 30.2047Z" fill="white"/>
<path d="M31.1586 43.1672L31.1455 43.154C30.8859 42.8946 30.4656 42.8946 30.2062 43.154C29.9469 43.4133 29.9469 43.8338 30.2062 44.0931C30.2068 44.0937 30.2118 44.0987 30.2123 44.0992L30.2154 44.1022C30.3453 44.2328 30.516 44.2982 30.6869 44.2982C30.8559 44.2982 31.0251 44.2341 31.1545 44.1056C31.4147 43.8474 31.4167 43.4275 31.1586 43.1672Z" fill="white"/>
<path d="M44.0958 43.1539C43.8365 42.8947 43.4161 42.8946 43.1566 43.1539C40.454 45.8565 36.2524 46.4205 32.9392 44.5256C32.6208 44.3435 32.2152 44.4539 32.033 44.7723C31.851 45.0907 31.9615 45.4963 32.2798 45.6784C33.7957 46.5454 35.472 46.9673 37.1384 46.9673C39.6845 46.9673 42.2069 45.982 44.0959 44.0931C44.3552 43.8339 44.3552 43.4133 44.0958 43.1539Z" fill="white"/>
</svg>
