<svg width="81" height="81" viewBox="0 0 81 81" fill="none" xmlns="http://www.w3.org/2000/svg">
<path d="M40.5 80C62.3152 80 80 62.3152 80 40.5C80 18.6848 62.3152 1 40.5 1C18.6848 1 1 18.6848 1 40.5C1 62.3152 18.6848 80 40.5 80Z" fill="#F8BD00" stroke="#F8BD00"/>
<path d="M58.4354 54.3773C58.7372 54.3773 58.9819 54.1334 58.9819 53.831C58.9819 52.7871 58.9819 47.0626 58.9819 46.1206C58.9819 45.2326 58.2593 44.5099 57.3709 44.5099H54.3135V42.5599C54.3135 41.7265 53.7128 41.0488 52.9743 41.0488H47.0973C46.3589 41.0488 45.7582 41.7265 45.7582 42.5599V44.5099H42.7001C41.8121 44.5099 41.0894 45.2326 41.0894 46.1206V46.2731L39.6018 44.7213C40.9212 43.6955 42.2369 42.1466 42.6784 40.4622C44.1858 40.1618 45.3251 38.8286 45.3251 37.2348C45.3251 35.6997 44.2694 34.4071 42.8452 34.0452V32.5502H43.0163C43.5402 32.5502 43.9665 32.1245 43.9665 31.6009V25.8546C43.9665 24.7167 43.2642 23.7397 42.2697 23.3347V22.918C42.2697 22.4037 41.7867 22 41.1696 22H30.1166C27.9201 22 25.4476 23.1977 25.4476 25.307V33.2159C25.4476 33.6314 25.8453 33.925 26.2648 33.8609C26.5832 33.8135 26.8929 33.7434 27.193 33.659V34.1324C25.9173 34.5849 25.0016 35.8044 25.0016 37.2339C25.0016 38.7179 25.9882 39.9747 27.3403 40.3843C27.4306 40.7512 27.5616 41.1185 27.7335 41.4835C27.8625 41.7567 28.1875 41.8742 28.4607 41.7457C28.734 41.6167 28.8511 41.2913 28.7224 41.018C28.0477 39.5885 28.3712 39.1631 28.286 35.0358V33.2678C29.0095 32.9545 29.652 32.5683 30.1861 32.1931L30.0438 32.5923C29.8442 33.1512 30.4664 33.6472 31.0281 33.3849C33.0177 32.459 34.808 30.6451 35.9648 29.2782C35.9656 29.2861 35.8541 29.6695 36.1979 29.9345C36.4142 30.1014 36.7168 30.1336 36.9689 30.0156C37.3593 29.8318 37.7214 29.6404 38.0565 29.4414V29.8312C38.0565 31.3305 39.276 32.5502 40.7761 32.5502H41.7539C41.7618 38.3907 41.8098 39.6579 41.5309 40.487C41.0595 41.8793 39.9027 43.1315 38.6626 44.0678C38.6617 44.0678 38.6617 44.0678 38.6617 44.0678C38.1751 44.4385 37.5588 44.8357 36.9652 45.1385C35.6726 45.8025 35.0264 45.7768 35.0191 45.7782C33.9425 45.7782 31.447 44.4611 29.8595 42.6886C29.6579 42.4633 29.3124 42.4444 29.088 42.6462C28.863 42.8475 28.8441 43.1927 29.0459 43.4177C29.5142 43.9402 30.0469 44.4224 30.6019 44.8501L28.8068 46.7225C24.8457 48.1235 22 51.9061 22 56.3414C22 57.8073 23.1927 59 24.6586 59C25.311 59 54.635 58.9972 56.4603 58.9972C57.8502 58.9972 58.9817 57.8658 58.9817 56.4755V56.0165C58.9817 55.715 58.7369 55.4703 58.4354 55.4703C58.1337 55.4703 57.8889 55.715 57.8889 56.0165V56.4755C57.8889 57.2631 57.2478 57.9042 56.4603 57.9042C42.2022 57.9042 43.4205 57.9984 43.149 57.9042C42.5872 57.7119 42.1822 57.1013 42.1822 56.4755V50.1678C42.6522 50.6257 43.2472 50.9562 43.9095 51.1047V52.6522C43.9095 53.1081 44.2804 53.479 44.7363 53.479H46.1189C46.5748 53.479 46.9458 53.1081 46.9458 52.6522V51.1928H53.1256V52.6522C53.1256 53.1081 53.4965 53.479 53.9524 53.479H55.3351C55.791 53.479 56.1619 53.1081 56.1619 52.6522V51.1047C56.8241 50.9559 57.4189 50.6257 57.8889 50.1678V53.8307C57.8889 54.1334 58.1339 54.3773 58.4354 54.3773ZM27.1932 39.1363C25.7316 38.2911 25.7273 36.179 27.1932 35.3316V39.1363ZM44.2324 37.2348C44.2324 38.1607 43.6568 38.9548 42.8444 39.2774C42.8452 39.2317 42.8452 39.4575 42.8452 35.1919C43.6577 35.5145 44.2324 36.3086 44.2324 37.2348ZM37.1888 28.6778L37.3375 27.8772C37.4708 27.1721 36.4845 26.826 36.0684 27.3897C35.3389 28.3763 33.5504 30.6101 31.4442 31.917L31.7 31.1972C31.7982 30.9225 31.6977 30.6259 31.4507 30.4599C31.1732 30.2727 30.7935 30.2959 30.5482 30.5146C29.8007 31.1797 28.3303 32.2995 26.5403 32.6987V25.307C26.5403 24.107 28.1781 23.0927 30.1169 23.0927H41.1769V23.1351C41.1668 23.46 41.2235 23.6102 41.0544 24.2278C40.6327 25.7841 39.4219 27.4473 37.1888 28.6778ZM40.7761 31.4572C39.8787 31.4572 39.1493 30.7281 39.1493 29.8312V28.7055C41.1323 27.1865 41.8558 25.4831 42.1198 24.4822C42.5728 24.7715 42.8738 25.2785 42.8738 25.8546V31.4572H40.7761ZM38.8427 45.5081C40.159 46.882 40.5483 47.2879 40.6474 47.3906V47.3912C40.6479 47.3921 40.6496 47.3943 40.6507 47.3943C40.6522 47.3954 40.6567 47.4014 40.6603 47.405C40.6612 47.405 40.6612 47.405 40.6612 47.4059C40.6623 47.4067 40.6626 47.407 40.6629 47.4073C40.6626 47.407 40.6626 47.407 40.6623 47.4067C40.6626 47.407 40.6629 47.407 40.6632 47.4073C40.6632 47.4081 40.664 47.4081 40.664 47.409C40.6651 47.409 40.6722 47.4172 40.6736 47.4183C40.6736 47.4183 40.6736 47.4192 40.6742 47.4192C40.675 47.4197 40.675 47.4206 40.6756 47.4206C40.6764 47.4214 40.6764 47.422 40.677 47.422C40.6618 47.4694 39.0801 52.454 39.0584 52.5232C38.9533 52.6618 38.7049 52.7157 38.5206 52.5977C38.1381 52.3499 35.8411 50.8614 35.7302 50.7899C35.8411 50.6019 38.8345 45.5205 38.8427 45.5081ZM36.472 52.572V53.7523C36.472 53.8762 36.367 53.9914 36.2329 53.9914H34.094C33.9591 53.9914 33.8549 53.8762 33.8549 53.7523V52.572L35.1634 51.7246L36.472 52.572ZM37.1261 46.2685C36.6795 47.0248 36.649 47.0759 35.1634 49.5987C33.6263 46.9884 33.6788 47.0796 33.3028 46.4413C34.7306 47.0228 35.4637 47.0556 37.1261 46.2685ZM29.6497 47.4211C29.6514 47.4206 29.652 47.4197 29.652 47.4197V47.4192C29.9439 47.127 29.6048 47.4697 31.4843 45.5081C31.8806 46.1813 34.1361 50.0089 34.5965 50.7899C31.5199 52.7826 31.6949 52.7061 31.4691 52.6485C31.3844 52.6274 31.3138 52.583 31.2686 52.5232C31.2751 52.5444 29.6856 47.5349 29.6497 47.422V47.4211ZM32.3594 57.9073H28.2699V54.3044C28.2699 54.0029 28.0251 53.7582 27.7237 53.7582C27.4219 53.7582 27.1772 54.0029 27.1772 54.3044V57.9073H24.6586C23.7953 57.9073 23.093 57.2049 23.093 56.3414C23.093 52.5712 25.3959 49.3285 28.6693 47.9473C30.345 53.2117 30.2386 52.9209 30.2894 53.0158C30.6925 53.7514 31.6861 53.9773 32.4 53.5149L32.7622 53.2803C32.7986 53.501 32.5866 54.3025 33.3121 54.8292L32.3594 57.9073ZM33.5024 57.9073L34.3775 55.0841H35.9984L36.9017 57.9073H33.5024ZM38.0492 57.9073L37.0547 54.7993C37.7299 54.2683 37.5295 53.505 37.5648 53.2803L37.9269 53.5149C38.7625 54.056 39.8567 53.5993 40.0791 52.9187L41.0894 49.7365V56.4755C41.0894 57.0068 41.2548 57.5008 41.5368 57.9073H38.0492ZM46.8509 42.5599C46.8509 42.3083 46.9991 42.1415 47.0973 42.1415H52.9743C53.0725 42.1415 53.2207 42.3083 53.2207 42.5599V44.5099H46.8509V42.5599ZM45.853 52.3863H45.0025V51.1928H45.853V52.3863ZM45.853 50.1C45.5583 50.1 45.2978 50.1 45.0025 50.1V48.9091H45.853V50.1ZM55.0691 52.3863H54.2186V51.1928H55.0691V52.3863ZM55.0691 50.1H54.2186V48.9091H55.0691V50.1ZM56.1619 49.9724V48.6429C56.1619 48.187 55.7912 47.8163 55.3353 47.8163H53.9524C53.4965 47.8163 53.1259 48.187 53.1259 48.6429V50.1H46.9458V48.6429C46.9458 48.187 46.5751 47.8163 46.1192 47.8163H44.7363C44.2804 47.8163 43.9098 48.187 43.9098 48.6429V49.9727C43.1061 49.7062 42.4802 49.046 42.264 48.2211C42.1319 47.7147 42.2019 47.4225 42.1822 46.1206C42.1822 45.8352 42.4148 45.6026 42.7001 45.6026H57.3709C57.6566 45.6026 57.8889 45.8352 57.8889 46.1206V47.5829C57.8889 48.6948 57.164 49.6402 56.1619 49.9724Z" fill="white"/>
<path d="M38.0312 37.25C38.0312 37.7265 38.4169 38.1124 38.8936 38.1124C39.3696 38.1124 39.7555 37.7265 39.7555 37.25C39.7555 36.7741 39.3696 36.3882 38.8936 36.3882C38.4177 36.3882 38.0312 36.7738 38.0312 37.25Z" fill="white"/>
<path d="M40.5685 35.1421C41.0989 35.1421 41.3323 34.4471 40.8598 34.1332C39.6965 33.4018 37.8291 33.7631 37.62 33.8069C37.325 33.8678 37.1364 34.1572 37.1968 34.4522C37.2581 34.7472 37.5471 34.9374 37.843 34.8762C38.1941 34.8042 39.0735 34.6978 39.7611 34.8573C40.2881 34.977 40.2797 35.1421 40.5685 35.1421Z" fill="white"/>
<path d="M30.5703 37.2498C30.5703 37.7585 31.0124 38.1438 31.4635 38.1116C31.9253 38.0956 32.2948 37.7162 32.2948 37.2498C32.2948 36.7877 31.9304 36.4106 31.4731 36.3894C31.044 36.3442 30.5703 36.7211 30.5703 37.2498Z" fill="white"/>
<path d="M32.706 33.8069C32.4968 33.7631 30.6289 33.4018 29.4662 34.1332C28.9934 34.4474 29.2279 35.1421 29.7575 35.1421C30.0485 35.1421 30.0339 34.9789 30.5654 34.8567C31.2533 34.6978 32.1313 34.8042 32.483 34.8762C32.7774 34.9374 33.0673 34.7489 33.1291 34.453C33.1904 34.158 33.001 33.8678 32.706 33.8069Z" fill="white"/>
<path d="M36.275 40.6644C36.275 41.017 36.1101 41.3312 35.8538 41.535C35.1357 42.1094 34.05 41.599 34.05 40.6644C34.05 40.3635 33.8047 40.1182 33.5035 40.1182C32.3526 40.1182 33.0637 42.8699 35.1625 42.8699C36.8836 42.8699 37.5964 41.0534 37.3203 40.4422C37.0792 39.9028 36.275 40.0809 36.275 40.6644Z" fill="white"/>
</svg>
