<svg width="50" height="83" viewBox="0 0 50 83" fill="none" xmlns="http://www.w3.org/2000/svg">
<path d="M39.6136 0H9.43182C6.93035 0 4.53132 0.993707 2.76252 2.76252C0.993707 4.53132 0 6.93034 0 9.43182V73.5682C0 76.0697 0.993707 78.4687 2.76252 80.2375C4.53132 82.0063 6.93035 83 9.43182 83H39.6136C42.1151 83 44.5141 82.0063 46.2829 80.2375C48.0518 78.4687 49.0455 76.0697 49.0455 73.5682V9.43182C49.0455 6.93034 48.0518 4.53132 46.2829 2.76252C44.5141 0.993707 42.1151 0 39.6136 0ZM24.5227 79.2273C21.3914 79.2273 18.8636 76.6995 18.8636 73.5682C18.8636 70.4368 21.3914 67.9091 24.5227 67.9091C27.6541 67.9091 30.1818 70.4368 30.1818 73.5682C30.1818 76.6995 27.6541 79.2273 24.5227 79.2273ZM41.5 64.1364H7.54545V11.3182H41.5V64.1364Z" fill="#5B5B5B"/>
</svg>
