<svg width="456" height="375" viewBox="0 0 456 375" fill="none" xmlns="http://www.w3.org/2000/svg">
<rect width="456" height="375" rx="5" fill="#3B3B3B"/>
<rect x="47.5" y="89" width="361" height="58" rx="3" fill="white"/>
<rect x="47.5" y="157.334" width="361" height="58" rx="3" fill="white"/>
<rect x="47.5" y="225.667" width="361" height="58" rx="3" fill="white"/>
<rect x="121.75" y="294" width="286" height="58" rx="3" fill="#FFBB00"/>
<rect x="48.25" y="294" width="64.5" height="58" rx="3" fill="white"/>
<path d="M83.69 52C83.4967 52 83.3323 51.942 83.197 51.826C83.081 51.6907 83.023 51.5263 83.023 51.333V32.396C83.023 32.1833 83.081 32.019 83.197 31.903C83.3323 31.7677 83.4967 31.7 83.69 31.7H95.522C95.7347 31.7 95.899 31.7677 96.015 31.903C96.1503 32.019 96.218 32.1833 96.218 32.396V33.556C96.218 33.7493 96.1503 33.9137 96.015 34.049C95.899 34.165 95.7347 34.223 95.522 34.223H85.836V40.98H94.942C95.1547 40.98 95.319 41.0477 95.435 41.183C95.5703 41.299 95.638 41.4633 95.638 41.676V42.836C95.638 43.0293 95.5703 43.1937 95.435 43.329C95.2997 43.445 95.1353 43.503 94.942 43.503H85.836V51.333C85.836 51.5263 85.7683 51.6907 85.633 51.826C85.4977 51.942 85.3333 52 85.14 52H83.69ZM100.017 34.107C99.8232 34.107 99.6589 34.049 99.5235 33.933C99.4075 33.7977 99.3495 33.6333 99.3495 33.44V31.874C99.3495 31.6807 99.4075 31.5163 99.5235 31.381C99.6589 31.2457 99.8232 31.178 100.017 31.178H101.844C102.037 31.178 102.201 31.2457 102.337 31.381C102.472 31.5163 102.54 31.6807 102.54 31.874V33.44C102.54 33.6333 102.472 33.7977 102.337 33.933C102.201 34.049 102.037 34.107 101.844 34.107H100.017ZM100.249 52C100.055 52 99.8909 51.942 99.7555 51.826C99.6395 51.6907 99.5815 51.5263 99.5815 51.333V37.587C99.5815 37.3937 99.6395 37.239 99.7555 37.123C99.8909 36.9877 100.055 36.92 100.249 36.92H101.641C101.834 36.92 101.989 36.9877 102.105 37.123C102.24 37.239 102.308 37.3937 102.308 37.587V51.333C102.308 51.5263 102.24 51.6907 102.105 51.826C101.989 51.942 101.834 52 101.641 52H100.249ZM107.272 52C107.079 52 106.914 51.942 106.779 51.826C106.663 51.6907 106.605 51.5263 106.605 51.333V37.587C106.605 37.3937 106.663 37.239 106.779 37.123C106.914 36.9877 107.079 36.92 107.272 36.92H108.635C108.828 36.92 108.983 36.9877 109.099 37.123C109.234 37.239 109.302 37.3937 109.302 37.587V38.863C109.863 38.1477 110.52 37.5967 111.274 37.21C112.047 36.8233 113.004 36.63 114.145 36.63C116.001 36.63 117.441 37.2293 118.466 38.428C119.51 39.6073 120.032 41.183 120.032 43.155V51.333C120.032 51.5263 119.964 51.6907 119.829 51.826C119.713 51.942 119.558 52 119.365 52H117.915C117.722 52 117.557 51.942 117.422 51.826C117.306 51.6907 117.248 51.5263 117.248 51.333V43.3C117.248 41.9273 116.91 40.864 116.233 40.11C115.576 39.356 114.619 38.979 113.362 38.979C112.144 38.979 111.177 39.3657 110.462 40.139C109.747 40.893 109.389 41.9467 109.389 43.3V51.333C109.389 51.5263 109.321 51.6907 109.186 51.826C109.07 51.942 108.915 52 108.722 52H107.272ZM129.702 52.29C127.691 52.29 126.174 51.6327 125.149 50.318C124.124 49.0033 123.583 47.3407 123.525 45.33L123.496 44.46L123.525 43.59C123.583 41.5987 124.124 39.9457 125.149 38.631C126.174 37.297 127.691 36.63 129.702 36.63C131.693 36.63 133.259 37.3357 134.4 38.747V32.077C134.4 31.8837 134.458 31.729 134.574 31.613C134.709 31.4777 134.874 31.41 135.067 31.41H136.459C136.652 31.41 136.807 31.4777 136.923 31.613C137.058 31.729 137.126 31.8837 137.126 32.077V51.333C137.126 51.5263 137.058 51.6907 136.923 51.826C136.807 51.942 136.652 52 136.459 52H135.154C134.961 52 134.796 51.942 134.661 51.826C134.545 51.6907 134.487 51.5263 134.487 51.333V50.115C133.366 51.565 131.771 52.29 129.702 52.29ZM130.311 49.941C131.645 49.941 132.641 49.506 133.298 48.636C133.975 47.7467 134.342 46.693 134.4 45.475C134.419 45.2623 134.429 44.895 134.429 44.373C134.429 43.8317 134.419 43.4547 134.4 43.242C134.361 42.1013 133.994 41.1057 133.298 40.255C132.602 39.4043 131.606 38.979 130.311 38.979C128.938 38.979 127.933 39.4043 127.295 40.255C126.676 41.1057 126.338 42.227 126.28 43.619L126.251 44.46C126.251 48.114 127.604 49.941 130.311 49.941ZM146.797 52C146.642 52 146.507 51.942 146.391 51.826C146.275 51.71 146.217 51.5747 146.217 51.42C146.217 51.2653 146.226 51.159 146.246 51.101L153.438 32.338C153.592 31.9127 153.902 31.7 154.366 31.7H156.338C156.802 31.7 157.111 31.9127 157.266 32.338L164.429 51.101L164.487 51.42C164.487 51.5747 164.429 51.71 164.313 51.826C164.197 51.942 164.061 52 163.907 52H162.428C162.215 52 162.051 51.9517 161.935 51.855C161.819 51.739 161.741 51.623 161.703 51.507L160.108 47.389H150.596L149.001 51.507C148.962 51.623 148.875 51.739 148.74 51.855C148.624 51.9517 148.469 52 148.276 52H146.797ZM159.267 44.895L155.352 34.6L151.437 44.895H159.267ZM167.877 52C167.684 52 167.52 51.942 167.384 51.826C167.268 51.6907 167.21 51.5263 167.21 51.333V37.587C167.21 37.3937 167.268 37.239 167.384 37.123C167.52 36.9877 167.684 36.92 167.877 36.92H169.24C169.434 36.92 169.588 36.9877 169.704 37.123C169.84 37.239 169.907 37.3937 169.907 37.587V38.863C170.468 38.1477 171.125 37.5967 171.879 37.21C172.653 36.8233 173.61 36.63 174.75 36.63C176.606 36.63 178.047 37.2293 179.071 38.428C180.115 39.6073 180.637 41.183 180.637 43.155V51.333C180.637 51.5263 180.57 51.6907 180.434 51.826C180.318 51.942 180.164 52 179.97 52H178.52C178.327 52 178.163 51.942 178.027 51.826C177.911 51.6907 177.853 51.5263 177.853 51.333V43.3C177.853 41.9273 177.515 40.864 176.838 40.11C176.181 39.356 175.224 38.979 173.967 38.979C172.749 38.979 171.783 39.3657 171.067 40.139C170.352 40.893 169.994 41.9467 169.994 43.3V51.333C169.994 51.5263 169.927 51.6907 169.791 51.826C169.675 51.942 169.521 52 169.327 52H167.877ZM190.307 52.29C188.297 52.29 186.779 51.6327 185.754 50.318C184.73 49.0033 184.188 47.3407 184.13 45.33L184.101 44.46L184.13 43.59C184.188 41.5987 184.73 39.9457 185.754 38.631C186.779 37.297 188.297 36.63 190.307 36.63C192.299 36.63 193.865 37.3357 195.005 38.747V32.077C195.005 31.8837 195.063 31.729 195.179 31.613C195.315 31.4777 195.479 31.41 195.672 31.41H197.064C197.258 31.41 197.412 31.4777 197.528 31.613C197.664 31.729 197.731 31.8837 197.731 32.077V51.333C197.731 51.5263 197.664 51.6907 197.528 51.826C197.412 51.942 197.258 52 197.064 52H195.759C195.566 52 195.402 51.942 195.266 51.826C195.15 51.6907 195.092 51.5263 195.092 51.333V50.115C193.971 51.565 192.376 52.29 190.307 52.29ZM190.916 49.941C192.25 49.941 193.246 49.506 193.903 48.636C194.58 47.7467 194.947 46.693 195.005 45.475C195.025 45.2623 195.034 44.895 195.034 44.373C195.034 43.8317 195.025 43.4547 195.005 43.242C194.967 42.1013 194.599 41.1057 193.903 40.255C193.207 39.4043 192.212 38.979 190.916 38.979C189.544 38.979 188.538 39.4043 187.9 40.255C187.282 41.1057 186.943 42.227 186.885 43.619L186.856 44.46C186.856 48.114 188.21 49.941 190.916 49.941ZM210.197 52C210.004 52 209.839 51.942 209.704 51.826C209.588 51.6907 209.53 51.5263 209.53 51.333V32.396C209.53 32.1833 209.588 32.019 209.704 31.903C209.839 31.7677 210.004 31.7 210.197 31.7H211.676C211.889 31.7 212.053 31.7677 212.169 31.903C212.304 32.019 212.372 32.1833 212.372 32.396V40.4H222.348V32.396C222.348 32.1833 222.406 32.019 222.522 31.903C222.657 31.7677 222.822 31.7 223.015 31.7H224.494C224.707 31.7 224.871 31.7677 224.987 31.903C225.122 32.019 225.19 32.1833 225.19 32.396V51.333C225.19 51.5263 225.122 51.6907 224.987 51.826C224.852 51.942 224.687 52 224.494 52H223.015C222.822 52 222.657 51.942 222.522 51.826C222.406 51.6907 222.348 51.5263 222.348 51.333V43.01H212.372V51.333C212.372 51.5263 212.304 51.6907 212.169 51.826C212.034 51.942 211.869 52 211.676 52H210.197ZM230.29 34.107C230.097 34.107 229.932 34.049 229.797 33.933C229.681 33.7977 229.623 33.6333 229.623 33.44V31.874C229.623 31.6807 229.681 31.5163 229.797 31.381C229.932 31.2457 230.097 31.178 230.29 31.178H232.117C232.31 31.178 232.475 31.2457 232.61 31.381C232.745 31.5163 232.813 31.6807 232.813 31.874V33.44C232.813 33.6333 232.745 33.7977 232.61 33.933C232.475 34.049 232.31 34.107 232.117 34.107H230.29ZM230.522 52C230.329 52 230.164 51.942 230.029 51.826C229.913 51.6907 229.855 51.5263 229.855 51.333V37.587C229.855 37.3937 229.913 37.239 230.029 37.123C230.164 36.9877 230.329 36.92 230.522 36.92H231.914C232.107 36.92 232.262 36.9877 232.378 37.123C232.513 37.239 232.581 37.3937 232.581 37.587V51.333C232.581 51.5263 232.513 51.6907 232.378 51.826C232.262 51.942 232.107 52 231.914 52H230.522ZM237.545 52C237.352 52 237.188 51.942 237.052 51.826C236.936 51.6907 236.878 51.5263 236.878 51.333V37.616C236.878 37.4227 236.936 37.2583 237.052 37.123C237.188 36.9877 237.352 36.92 237.545 36.92H238.879C239.073 36.92 239.237 36.9877 239.372 37.123C239.508 37.2583 239.575 37.4227 239.575 37.616V38.892C240.368 37.5773 241.721 36.92 243.635 36.92H244.766C244.96 36.92 245.114 36.9877 245.23 37.123C245.366 37.239 245.433 37.3937 245.433 37.587V38.776C245.433 38.9693 245.366 39.124 245.23 39.24C245.114 39.356 244.96 39.414 244.766 39.414H243.026C241.982 39.414 241.161 39.7233 240.561 40.342C239.962 40.9413 239.662 41.763 239.662 42.807V51.333C239.662 51.5263 239.595 51.6907 239.459 51.826C239.324 51.942 239.16 52 238.966 52H237.545ZM253.644 52.29C251.652 52.29 250.057 51.681 248.859 50.463C247.679 49.2257 247.032 47.5437 246.916 45.417L246.887 44.431L246.916 43.474C247.051 41.386 247.708 39.7233 248.888 38.486C250.086 37.2487 251.662 36.63 253.615 36.63C255.761 36.63 257.423 37.3163 258.603 38.689C259.782 40.0423 260.372 41.879 260.372 44.199V44.692C260.372 44.8853 260.304 45.0497 260.169 45.185C260.053 45.301 259.898 45.359 259.705 45.359H249.671V45.62C249.729 46.8767 250.106 47.9497 250.802 48.839C251.517 49.709 252.455 50.144 253.615 50.144C254.504 50.144 255.229 49.97 255.79 49.622C256.37 49.2547 256.795 48.8777 257.066 48.491C257.24 48.259 257.365 48.1237 257.443 48.085C257.539 48.027 257.704 47.998 257.936 47.998H259.357C259.531 47.998 259.676 48.0463 259.792 48.143C259.908 48.2397 259.966 48.375 259.966 48.549C259.966 48.9743 259.695 49.4867 259.154 50.086C258.632 50.6853 257.887 51.2073 256.921 51.652C255.973 52.0773 254.881 52.29 253.644 52.29ZM257.617 43.358V43.271C257.617 41.937 257.249 40.8543 256.515 40.023C255.799 39.1723 254.833 38.747 253.615 38.747C252.397 38.747 251.43 39.1723 250.715 40.023C250.019 40.8543 249.671 41.937 249.671 43.271V43.358H257.617ZM269.197 52C269.042 52 268.907 51.942 268.791 51.826C268.675 51.71 268.617 51.5747 268.617 51.42C268.617 51.2653 268.627 51.159 268.646 51.101L275.838 32.338C275.993 31.9127 276.302 31.7 276.766 31.7H278.738C279.202 31.7 279.511 31.9127 279.666 32.338L286.829 51.101L286.887 51.42C286.887 51.5747 286.829 51.71 286.713 51.826C286.597 51.942 286.462 52 286.307 52H284.828C284.615 52 284.451 51.9517 284.335 51.855C284.219 51.739 284.142 51.623 284.103 51.507L282.508 47.389H272.996L271.401 51.507C271.362 51.623 271.275 51.739 271.14 51.855C271.024 51.9517 270.869 52 270.676 52H269.197ZM281.667 44.895L277.752 34.6L273.837 44.895H281.667ZM296.999 52C296.805 52 296.641 51.942 296.506 51.826C296.39 51.6907 296.332 51.5263 296.332 51.333V32.396C296.332 32.1833 296.39 32.019 296.506 31.903C296.641 31.7677 296.805 31.7 296.999 31.7H303.582C306.501 31.7 308.608 32.3573 309.904 33.672C311.199 34.9673 311.876 36.9297 311.934 39.559C311.953 40.1197 311.963 40.8737 311.963 41.821C311.963 42.7683 311.953 43.532 311.934 44.112C311.876 45.9487 311.566 47.447 311.006 48.607C310.464 49.7477 309.604 50.5983 308.425 51.159C307.245 51.7197 305.679 52 303.727 52H296.999ZM303.582 49.535C304.916 49.535 305.969 49.3513 306.743 48.984C307.535 48.6167 308.106 48.0367 308.454 47.244C308.821 46.432 309.024 45.3493 309.063 43.996C309.101 42.836 309.121 42.111 309.121 41.821C309.121 41.5117 309.101 40.7963 309.063 39.675C309.024 37.761 308.57 36.369 307.7 35.499C306.83 34.6097 305.409 34.165 303.437 34.165H299.174V49.535H303.582ZM316.616 52C316.422 52 316.258 51.942 316.123 51.826C316.007 51.6907 315.949 51.5263 315.949 51.333V37.616C315.949 37.4227 316.007 37.2583 316.123 37.123C316.258 36.9877 316.422 36.92 316.616 36.92H317.95C318.143 36.92 318.307 36.9877 318.443 37.123C318.578 37.2583 318.646 37.4227 318.646 37.616V38.892C319.438 37.5773 320.792 36.92 322.706 36.92H323.837C324.03 36.92 324.185 36.9877 324.301 37.123C324.436 37.239 324.504 37.3937 324.504 37.587V38.776C324.504 38.9693 324.436 39.124 324.301 39.24C324.185 39.356 324.03 39.414 323.837 39.414H322.097C321.053 39.414 320.231 39.7233 319.632 40.342C319.032 40.9413 318.733 41.763 318.733 42.807V51.333C318.733 51.5263 318.665 51.6907 318.53 51.826C318.394 51.942 318.23 52 318.037 52H316.616ZM327.4 34.107C327.207 34.107 327.043 34.049 326.907 33.933C326.791 33.7977 326.733 33.6333 326.733 33.44V31.874C326.733 31.6807 326.791 31.5163 326.907 31.381C327.043 31.2457 327.207 31.178 327.4 31.178H329.227C329.421 31.178 329.585 31.2457 329.72 31.381C329.856 31.5163 329.923 31.6807 329.923 31.874V33.44C329.923 33.6333 329.856 33.7977 329.72 33.933C329.585 34.049 329.421 34.107 329.227 34.107H327.4ZM327.632 52C327.439 52 327.275 51.942 327.139 51.826C327.023 51.6907 326.965 51.5263 326.965 51.333V37.587C326.965 37.3937 327.023 37.239 327.139 37.123C327.275 36.9877 327.439 36.92 327.632 36.92H329.024C329.218 36.92 329.372 36.9877 329.488 37.123C329.624 37.239 329.691 37.3937 329.691 37.587V51.333C329.691 51.5263 329.624 51.6907 329.488 51.826C329.372 51.942 329.218 52 329.024 52H327.632ZM339.238 52C338.735 52 338.377 51.7583 338.165 51.275L332.8 37.819L332.742 37.529C332.742 37.355 332.8 37.21 332.916 37.094C333.032 36.978 333.177 36.92 333.351 36.92H334.743C335.071 36.92 335.313 37.0843 335.468 37.413L339.876 48.839L344.284 37.413C344.458 37.0843 344.69 36.92 344.98 36.92H346.401C346.555 36.92 346.691 36.978 346.807 37.094C346.942 37.21 347.01 37.355 347.01 37.529L346.952 37.819L341.558 51.275C341.345 51.7583 340.987 52 340.485 52H339.238ZM355.54 52.29C353.549 52.29 351.954 51.681 350.755 50.463C349.576 49.2257 348.928 47.5437 348.812 45.417L348.783 44.431L348.812 43.474C348.948 41.386 349.605 39.7233 350.784 38.486C351.983 37.2487 353.559 36.63 355.511 36.63C357.657 36.63 359.32 37.3163 360.499 38.689C361.679 40.0423 362.268 41.879 362.268 44.199V44.692C362.268 44.8853 362.201 45.0497 362.065 45.185C361.949 45.301 361.795 45.359 361.601 45.359H351.567V45.62C351.625 46.8767 352.002 47.9497 352.698 48.839C353.414 49.709 354.351 50.144 355.511 50.144C356.401 50.144 357.126 49.97 357.686 49.622C358.266 49.2547 358.692 48.8777 358.962 48.491C359.136 48.259 359.262 48.1237 359.339 48.085C359.436 48.027 359.6 47.998 359.832 47.998H361.253C361.427 47.998 361.572 48.0463 361.688 48.143C361.804 48.2397 361.862 48.375 361.862 48.549C361.862 48.9743 361.592 49.4867 361.05 50.086C360.528 50.6853 359.784 51.2073 358.817 51.652C357.87 52.0773 356.778 52.29 355.54 52.29ZM359.513 43.358V43.271C359.513 41.937 359.146 40.8543 358.411 40.023C357.696 39.1723 356.729 38.747 355.511 38.747C354.293 38.747 353.327 39.1723 352.611 40.023C351.915 40.8543 351.567 41.937 351.567 43.271V43.358H359.513ZM366.403 52C366.21 52 366.045 51.942 365.91 51.826C365.794 51.6907 365.736 51.5263 365.736 51.333V37.616C365.736 37.4227 365.794 37.2583 365.91 37.123C366.045 36.9877 366.21 36.92 366.403 36.92H367.737C367.93 36.92 368.095 36.9877 368.23 37.123C368.365 37.2583 368.433 37.4227 368.433 37.616V38.892C369.226 37.5773 370.579 36.92 372.493 36.92H373.624C373.817 36.92 373.972 36.9877 374.088 37.123C374.223 37.239 374.291 37.3937 374.291 37.587V38.776C374.291 38.9693 374.223 39.124 374.088 39.24C373.972 39.356 373.817 39.414 373.624 39.414H371.884C370.84 39.414 370.018 39.7233 369.419 40.342C368.82 40.9413 368.52 41.763 368.52 42.807V51.333C368.52 51.5263 368.452 51.6907 368.317 51.826C368.182 51.942 368.017 52 367.824 52H366.403Z" fill="white"/>
<path d="M86.1785 124.18C85.1825 124.18 84.3185 124.024 83.5865 123.712C82.8665 123.4 82.3145 122.992 81.9305 122.488C81.5465 121.972 81.3425 121.42 81.3185 120.832C81.3185 120.736 81.3545 120.652 81.4265 120.58C81.5105 120.496 81.6065 120.454 81.7145 120.454H82.6325C82.8605 120.454 83.0165 120.574 83.1005 120.814C83.2085 121.318 83.5145 121.75 84.0185 122.11C84.5345 122.47 85.2545 122.65 86.1785 122.65C87.1745 122.65 87.9245 122.476 88.4285 122.128C88.9325 121.768 89.1845 121.27 89.1845 120.634C89.1845 120.226 89.0585 119.896 88.8065 119.644C88.5665 119.392 88.2065 119.17 87.7265 118.978C87.2465 118.786 86.5265 118.546 85.5665 118.258C84.6305 117.994 83.8865 117.712 83.3345 117.412C82.7825 117.112 82.3685 116.74 82.0925 116.296C81.8165 115.852 81.6785 115.294 81.6785 114.622C81.6785 113.974 81.8525 113.392 82.2005 112.876C82.5605 112.36 83.0705 111.958 83.7305 111.67C84.3905 111.37 85.1765 111.22 86.0885 111.22C87.0245 111.22 87.8285 111.388 88.5005 111.724C89.1725 112.048 89.6825 112.462 90.0305 112.966C90.3785 113.47 90.5645 113.974 90.5885 114.478C90.5885 114.574 90.5525 114.658 90.4805 114.73C90.4205 114.802 90.3305 114.838 90.2105 114.838H89.2565C89.0045 114.838 88.8485 114.724 88.7885 114.496C88.7165 113.992 88.4345 113.578 87.9425 113.254C87.4505 112.918 86.8325 112.75 86.0885 112.75C85.2725 112.75 84.6305 112.906 84.1625 113.218C83.6945 113.53 83.4605 113.992 83.4605 114.604C83.4605 115.012 83.5685 115.348 83.7845 115.612C84.0125 115.876 84.3545 116.11 84.8105 116.314C85.2665 116.506 85.9325 116.728 86.8085 116.98C87.8285 117.256 88.6325 117.544 89.2205 117.844C89.8085 118.132 90.2465 118.498 90.5345 118.942C90.8225 119.374 90.9665 119.926 90.9665 120.598C90.9665 121.714 90.5345 122.59 89.6705 123.226C88.8065 123.862 87.6425 124.18 86.1785 124.18ZM96.8358 124.18C95.5998 124.18 94.6098 123.802 93.8658 123.046C93.1338 122.278 92.7318 121.234 92.6598 119.914L92.6418 119.302L92.6598 118.708C92.7438 117.412 93.1518 116.38 93.8838 115.612C94.6278 114.844 95.6058 114.46 96.8178 114.46C98.1498 114.46 99.1818 114.886 99.9138 115.738C100.646 116.578 101.012 117.718 101.012 119.158V119.464C101.012 119.584 100.97 119.686 100.886 119.77C100.814 119.842 100.718 119.878 100.598 119.878H94.3698V120.04C94.4058 120.82 94.6398 121.486 95.0718 122.038C95.5158 122.578 96.0978 122.848 96.8178 122.848C97.3698 122.848 97.8198 122.74 98.1678 122.524C98.5278 122.296 98.7918 122.062 98.9598 121.822C99.0678 121.678 99.1458 121.594 99.1938 121.57C99.2538 121.534 99.3558 121.516 99.4998 121.516H100.382C100.49 121.516 100.58 121.546 100.652 121.606C100.724 121.666 100.76 121.75 100.76 121.858C100.76 122.122 100.592 122.44 100.256 122.812C99.9318 123.184 99.4698 123.508 98.8698 123.784C98.2818 124.048 97.6038 124.18 96.8358 124.18ZM99.3018 118.636V118.582C99.3018 117.754 99.0738 117.082 98.6178 116.566C98.1738 116.038 97.5738 115.774 96.8178 115.774C96.0618 115.774 95.4618 116.038 95.0178 116.566C94.5858 117.082 94.3698 117.754 94.3698 118.582V118.636H99.3018ZM103.596 124C103.476 124 103.374 123.964 103.29 123.892C103.218 123.808 103.182 123.706 103.182 123.586V111.634C103.182 111.514 103.218 111.418 103.29 111.346C103.374 111.262 103.476 111.22 103.596 111.22H104.442C104.562 111.22 104.658 111.262 104.73 111.346C104.814 111.418 104.856 111.514 104.856 111.634V123.586C104.856 123.706 104.814 123.808 104.73 123.892C104.658 123.964 104.562 124 104.442 124H103.596ZM111.285 124.18C110.049 124.18 109.059 123.802 108.315 123.046C107.583 122.278 107.181 121.234 107.109 119.914L107.091 119.302L107.109 118.708C107.193 117.412 107.601 116.38 108.333 115.612C109.077 114.844 110.055 114.46 111.267 114.46C112.599 114.46 113.631 114.886 114.363 115.738C115.095 116.578 115.461 117.718 115.461 119.158V119.464C115.461 119.584 115.419 119.686 115.335 119.77C115.263 119.842 115.167 119.878 115.047 119.878H108.819V120.04C108.855 120.82 109.089 121.486 109.521 122.038C109.965 122.578 110.547 122.848 111.267 122.848C111.819 122.848 112.269 122.74 112.617 122.524C112.977 122.296 113.241 122.062 113.409 121.822C113.517 121.678 113.595 121.594 113.643 121.57C113.703 121.534 113.805 121.516 113.949 121.516H114.831C114.939 121.516 115.029 121.546 115.101 121.606C115.173 121.666 115.209 121.75 115.209 121.858C115.209 122.122 115.041 122.44 114.705 122.812C114.381 123.184 113.919 123.508 113.319 123.784C112.731 124.048 112.053 124.18 111.285 124.18ZM113.751 118.636V118.582C113.751 117.754 113.523 117.082 113.067 116.566C112.623 116.038 112.023 115.774 111.267 115.774C110.511 115.774 109.911 116.038 109.467 116.566C109.035 117.082 108.819 117.754 108.819 118.582V118.636H113.751ZM121.393 124.18C120.109 124.18 119.101 123.82 118.369 123.1C117.649 122.368 117.265 121.348 117.217 120.04L117.199 119.32L117.217 118.6C117.265 117.292 117.649 116.278 118.369 115.558C119.101 114.826 120.109 114.46 121.393 114.46C122.257 114.46 122.989 114.616 123.589 114.928C124.189 115.24 124.633 115.624 124.921 116.08C125.221 116.536 125.383 116.992 125.407 117.448C125.419 117.568 125.383 117.664 125.299 117.736C125.215 117.808 125.113 117.844 124.993 117.844H124.129C124.009 117.844 123.919 117.82 123.859 117.772C123.799 117.724 123.739 117.628 123.679 117.484C123.475 116.908 123.187 116.5 122.815 116.26C122.443 116.008 121.975 115.882 121.411 115.882C120.667 115.882 120.073 116.116 119.629 116.584C119.197 117.04 118.963 117.742 118.927 118.69L118.909 119.338L118.927 119.95C118.963 120.91 119.197 121.618 119.629 122.074C120.061 122.53 120.655 122.758 121.411 122.758C121.975 122.758 122.443 122.638 122.815 122.398C123.187 122.146 123.475 121.732 123.679 121.156C123.739 121.012 123.799 120.916 123.859 120.868C123.919 120.808 124.009 120.778 124.129 120.778H124.993C125.113 120.778 125.215 120.82 125.299 120.904C125.383 120.976 125.419 121.072 125.407 121.192C125.383 121.636 125.221 122.092 124.921 122.56C124.633 123.016 124.189 123.4 123.589 123.712C123.001 124.024 122.269 124.18 121.393 124.18ZM131.199 124C129.303 124 128.355 122.944 128.355 120.832V116.08H126.951C126.831 116.08 126.729 116.044 126.645 115.972C126.573 115.888 126.537 115.786 126.537 115.666V115.054C126.537 114.934 126.573 114.838 126.645 114.766C126.729 114.682 126.831 114.64 126.951 114.64H128.355V111.634C128.355 111.514 128.391 111.418 128.463 111.346C128.547 111.262 128.649 111.22 128.769 111.22H129.615C129.735 111.22 129.831 111.262 129.903 111.346C129.987 111.418 130.029 111.514 130.029 111.634V114.64H132.261C132.381 114.64 132.477 114.682 132.549 114.766C132.633 114.838 132.675 114.934 132.675 115.054V115.666C132.675 115.786 132.633 115.888 132.549 115.972C132.477 116.044 132.381 116.08 132.261 116.08H130.029V120.706C130.029 121.306 130.131 121.762 130.335 122.074C130.539 122.374 130.875 122.524 131.343 122.524H132.441C132.561 122.524 132.657 122.566 132.729 122.65C132.813 122.722 132.855 122.818 132.855 122.938V123.586C132.855 123.706 132.813 123.808 132.729 123.892C132.657 123.964 132.561 124 132.441 124H131.199ZM143.758 124.18C142.15 124.18 140.926 123.748 140.086 122.884C139.258 122.02 138.814 120.826 138.754 119.302C138.742 118.978 138.736 118.45 138.736 117.718C138.736 116.974 138.742 116.434 138.754 116.098C138.814 114.586 139.264 113.398 140.104 112.534C140.944 111.658 142.162 111.22 143.758 111.22C144.826 111.22 145.732 111.412 146.476 111.796C147.22 112.168 147.784 112.66 148.168 113.272C148.552 113.884 148.762 114.538 148.798 115.234V115.27C148.798 115.366 148.756 115.45 148.672 115.522C148.6 115.582 148.516 115.612 148.42 115.612H147.43C147.19 115.612 147.04 115.474 146.98 115.198C146.776 114.298 146.41 113.668 145.882 113.308C145.354 112.936 144.646 112.75 143.758 112.75C141.694 112.75 140.626 113.896 140.554 116.188C140.542 116.512 140.536 117.01 140.536 117.682C140.536 118.354 140.542 118.864 140.554 119.212C140.626 121.504 141.694 122.65 143.758 122.65C144.646 122.65 145.354 122.47 145.882 122.11C146.422 121.738 146.788 121.102 146.98 120.202C147.016 120.046 147.07 119.938 147.142 119.878C147.214 119.818 147.31 119.788 147.43 119.788H148.42C148.528 119.788 148.618 119.824 148.69 119.896C148.774 119.956 148.81 120.04 148.798 120.148C148.762 120.856 148.552 121.516 148.168 122.128C147.784 122.74 147.22 123.238 146.476 123.622C145.732 123.994 144.826 124.18 143.758 124.18ZM153.587 124.18C152.999 124.18 152.453 124.06 151.949 123.82C151.445 123.58 151.043 123.256 150.743 122.848C150.455 122.428 150.311 121.966 150.311 121.462C150.311 120.67 150.635 120.022 151.283 119.518C151.943 119.002 152.831 118.666 153.947 118.51L156.629 118.132V117.61C156.629 116.386 155.927 115.774 154.523 115.774C153.995 115.774 153.563 115.888 153.227 116.116C152.891 116.332 152.639 116.59 152.471 116.89C152.435 116.998 152.387 117.076 152.327 117.124C152.279 117.172 152.207 117.196 152.111 117.196H151.337C151.229 117.196 151.133 117.16 151.049 117.088C150.977 117.004 150.941 116.908 150.941 116.8C150.953 116.512 151.085 116.188 151.337 115.828C151.601 115.456 152.003 115.138 152.543 114.874C153.083 114.598 153.749 114.46 154.541 114.46C155.885 114.46 156.851 114.778 157.439 115.414C158.027 116.038 158.321 116.818 158.321 117.754V123.586C158.321 123.706 158.279 123.808 158.195 123.892C158.123 123.964 158.027 124 157.907 124H157.079C156.959 124 156.857 123.964 156.773 123.892C156.701 123.808 156.665 123.706 156.665 123.586V122.812C156.401 123.196 156.017 123.52 155.513 123.784C155.009 124.048 154.367 124.18 153.587 124.18ZM153.965 122.83C154.745 122.83 155.381 122.578 155.873 122.074C156.377 121.558 156.629 120.82 156.629 119.86V119.356L154.541 119.662C153.689 119.782 153.047 119.986 152.615 120.274C152.183 120.55 151.967 120.904 151.967 121.336C151.967 121.816 152.165 122.188 152.561 122.452C152.957 122.704 153.425 122.83 153.965 122.83ZM164.474 124C162.578 124 161.63 122.944 161.63 120.832V116.08H160.226C160.106 116.08 160.004 116.044 159.92 115.972C159.848 115.888 159.812 115.786 159.812 115.666V115.054C159.812 114.934 159.848 114.838 159.92 114.766C160.004 114.682 160.106 114.64 160.226 114.64H161.63V111.634C161.63 111.514 161.666 111.418 161.738 111.346C161.822 111.262 161.924 111.22 162.044 111.22H162.89C163.01 111.22 163.106 111.262 163.178 111.346C163.262 111.418 163.304 111.514 163.304 111.634V114.64H165.536C165.656 114.64 165.752 114.682 165.824 114.766C165.908 114.838 165.95 114.934 165.95 115.054V115.666C165.95 115.786 165.908 115.888 165.824 115.972C165.752 116.044 165.656 116.08 165.536 116.08H163.304V120.706C163.304 121.306 163.406 121.762 163.61 122.074C163.814 122.374 164.15 122.524 164.618 122.524H165.716C165.836 122.524 165.932 122.566 166.004 122.65C166.088 122.722 166.13 122.818 166.13 122.938V123.586C166.13 123.706 166.088 123.808 166.004 123.892C165.932 123.964 165.836 124 165.716 124H164.474ZM171.596 124.18C170.36 124.18 169.37 123.802 168.626 123.046C167.894 122.278 167.492 121.234 167.42 119.914L167.402 119.302L167.42 118.708C167.504 117.412 167.912 116.38 168.644 115.612C169.388 114.844 170.366 114.46 171.578 114.46C172.91 114.46 173.942 114.886 174.674 115.738C175.406 116.578 175.772 117.718 175.772 119.158V119.464C175.772 119.584 175.73 119.686 175.646 119.77C175.574 119.842 175.478 119.878 175.358 119.878H169.13V120.04C169.166 120.82 169.4 121.486 169.832 122.038C170.276 122.578 170.858 122.848 171.578 122.848C172.13 122.848 172.58 122.74 172.928 122.524C173.288 122.296 173.552 122.062 173.72 121.822C173.828 121.678 173.906 121.594 173.954 121.57C174.014 121.534 174.116 121.516 174.26 121.516H175.142C175.25 121.516 175.34 121.546 175.412 121.606C175.484 121.666 175.52 121.75 175.52 121.858C175.52 122.122 175.352 122.44 175.016 122.812C174.692 123.184 174.23 123.508 173.63 123.784C173.042 124.048 172.364 124.18 171.596 124.18ZM174.062 118.636V118.582C174.062 117.754 173.834 117.082 173.378 116.566C172.934 116.038 172.334 115.774 171.578 115.774C170.822 115.774 170.222 116.038 169.778 116.566C169.346 117.082 169.13 117.754 169.13 118.582V118.636H174.062ZM181.758 127.96C180.774 127.96 179.982 127.792 179.382 127.456C178.782 127.132 178.356 126.76 178.104 126.34C177.852 125.92 177.714 125.542 177.69 125.206C177.678 125.086 177.714 124.984 177.798 124.9C177.894 124.816 177.996 124.774 178.104 124.774H178.968C179.076 124.774 179.166 124.798 179.238 124.846C179.31 124.906 179.37 125.008 179.418 125.152C179.562 125.536 179.796 125.866 180.12 126.142C180.456 126.43 180.972 126.574 181.668 126.574C182.556 126.574 183.21 126.382 183.63 125.998C184.05 125.626 184.26 124.96 184.26 124V122.776C183.948 123.172 183.552 123.49 183.072 123.73C182.592 123.958 182.022 124.072 181.362 124.072C180.09 124.072 179.136 123.67 178.5 122.866C177.876 122.05 177.546 121.018 177.51 119.77L177.492 119.266L177.51 118.78C177.546 117.544 177.882 116.518 178.518 115.702C179.154 114.874 180.102 114.46 181.362 114.46C182.622 114.46 183.606 114.922 184.314 115.846V115.072C184.314 114.952 184.35 114.85 184.422 114.766C184.506 114.682 184.608 114.64 184.728 114.64H185.556C185.676 114.64 185.778 114.682 185.862 114.766C185.946 114.85 185.988 114.952 185.988 115.072V123.802C185.988 126.574 184.578 127.96 181.758 127.96ZM181.722 122.632C182.538 122.632 183.156 122.362 183.576 121.822C183.996 121.282 184.224 120.64 184.26 119.896C184.272 119.788 184.278 119.578 184.278 119.266C184.278 118.966 184.272 118.762 184.26 118.654C184.224 117.91 183.996 117.268 183.576 116.728C183.168 116.188 182.55 115.918 181.722 115.918C180.87 115.918 180.252 116.182 179.868 116.71C179.484 117.238 179.274 117.934 179.238 118.798L179.22 119.266L179.238 119.752C179.274 120.604 179.484 121.3 179.868 121.84C180.252 122.368 180.87 122.632 181.722 122.632ZM192.498 124.18C191.178 124.18 190.152 123.808 189.42 123.064C188.7 122.32 188.316 121.33 188.268 120.094L188.25 119.32L188.268 118.546C188.316 117.322 188.706 116.338 189.438 115.594C190.17 114.838 191.19 114.46 192.498 114.46C193.806 114.46 194.826 114.838 195.558 115.594C196.29 116.338 196.68 117.322 196.728 118.546C196.74 118.678 196.746 118.936 196.746 119.32C196.746 119.704 196.74 119.962 196.728 120.094C196.68 121.33 196.29 122.32 195.558 123.064C194.838 123.808 193.818 124.18 192.498 124.18ZM192.498 122.794C193.254 122.794 193.848 122.554 194.28 122.074C194.724 121.594 194.964 120.904 195 120.004C195.012 119.884 195.018 119.656 195.018 119.32C195.018 118.984 195.012 118.756 195 118.636C194.964 117.736 194.724 117.046 194.28 116.566C193.848 116.086 193.254 115.846 192.498 115.846C191.742 115.846 191.142 116.086 190.698 116.566C190.254 117.046 190.02 117.736 189.996 118.636L189.978 119.32L189.996 120.004C190.02 120.904 190.254 121.594 190.698 122.074C191.142 122.554 191.742 122.794 192.498 122.794ZM199.414 124C199.294 124 199.192 123.964 199.108 123.892C199.036 123.808 199 123.706 199 123.586V115.072C199 114.952 199.036 114.85 199.108 114.766C199.192 114.682 199.294 114.64 199.414 114.64H200.242C200.362 114.64 200.464 114.682 200.548 114.766C200.632 114.85 200.674 114.952 200.674 115.072V115.864C201.166 115.048 202.006 114.64 203.194 114.64H203.896C204.016 114.64 204.112 114.682 204.184 114.766C204.268 114.838 204.31 114.934 204.31 115.054V115.792C204.31 115.912 204.268 116.008 204.184 116.08C204.112 116.152 204.016 116.188 203.896 116.188H202.816C202.168 116.188 201.658 116.38 201.286 116.764C200.914 117.136 200.728 117.646 200.728 118.294V123.586C200.728 123.706 200.686 123.808 200.602 123.892C200.518 123.964 200.416 124 200.296 124H199.414ZM207.476 127.42C207.38 127.42 207.296 127.384 207.224 127.312C207.152 127.24 207.116 127.156 207.116 127.06C207.116 126.976 207.146 126.868 207.206 126.736L208.592 123.442L205.154 115.324C205.094 115.168 205.064 115.066 205.064 115.018C205.064 114.91 205.1 114.82 205.172 114.748C205.244 114.676 205.334 114.64 205.442 114.64H206.324C206.516 114.64 206.66 114.742 206.756 114.946L209.492 121.498L212.3 114.946C212.396 114.742 212.546 114.64 212.75 114.64H213.596C213.704 114.64 213.794 114.676 213.866 114.748C213.938 114.82 213.974 114.904 213.974 115C213.974 115.036 213.944 115.144 213.884 115.324L208.772 127.114C208.676 127.318 208.526 127.42 208.322 127.42H207.476Z" fill="#969393"/>
<path d="M82.5474 192.334C82.4274 192.334 82.3254 192.298 82.2414 192.226C82.1694 192.142 82.1334 192.04 82.1334 191.92V180.166C82.1334 180.034 82.1694 179.932 82.2414 179.86C82.3254 179.776 82.4274 179.734 82.5474 179.734H89.9814C90.1014 179.734 90.1974 179.776 90.2694 179.86C90.3534 179.932 90.3954 180.034 90.3954 180.166V180.85C90.3954 180.97 90.3594 181.072 90.2874 181.156C90.2154 181.228 90.1134 181.264 89.9814 181.264H83.8614V185.206H89.5854C89.7054 185.206 89.8014 185.248 89.8734 185.332C89.9574 185.404 89.9994 185.506 89.9994 185.638V186.304C89.9994 186.424 89.9574 186.526 89.8734 186.61C89.8014 186.682 89.7054 186.718 89.5854 186.718H83.8614V190.804H90.1254C90.2574 190.804 90.3594 190.84 90.4314 190.912C90.5034 190.984 90.5394 191.086 90.5394 191.218V191.92C90.5394 192.04 90.4974 192.142 90.4134 192.226C90.3414 192.298 90.2454 192.334 90.1254 192.334H82.5474ZM93.2294 192.334C93.1094 192.334 93.0074 192.298 92.9234 192.226C92.8514 192.142 92.8154 192.04 92.8154 191.92V183.388C92.8154 183.268 92.8514 183.172 92.9234 183.1C93.0074 183.016 93.1094 182.974 93.2294 182.974H94.0754C94.1954 182.974 94.2914 183.016 94.3634 183.1C94.4474 183.172 94.4894 183.268 94.4894 183.388V184.18C94.8374 183.736 95.2454 183.394 95.7134 183.154C96.1934 182.914 96.7874 182.794 97.4954 182.794C98.6474 182.794 99.5414 183.166 100.177 183.91C100.825 184.642 101.149 185.62 101.149 186.844V191.92C101.149 192.04 101.107 192.142 101.023 192.226C100.951 192.298 100.855 192.334 100.735 192.334H99.8354C99.7154 192.334 99.6134 192.298 99.5294 192.226C99.4574 192.142 99.4214 192.04 99.4214 191.92V186.934C99.4214 186.082 99.2114 185.422 98.7914 184.954C98.3834 184.486 97.7894 184.252 97.0094 184.252C96.2534 184.252 95.6534 184.492 95.2094 184.972C94.7654 185.44 94.5434 186.094 94.5434 186.934V191.92C94.5434 192.04 94.5014 192.142 94.4174 192.226C94.3454 192.298 94.2494 192.334 94.1294 192.334H93.2294ZM107.262 192.334C105.366 192.334 104.418 191.278 104.418 189.166V184.414H103.014C102.894 184.414 102.792 184.378 102.708 184.306C102.636 184.222 102.6 184.12 102.6 184V183.388C102.6 183.268 102.636 183.172 102.708 183.1C102.792 183.016 102.894 182.974 103.014 182.974H104.418V179.968C104.418 179.848 104.454 179.752 104.526 179.68C104.61 179.596 104.712 179.554 104.832 179.554H105.678C105.798 179.554 105.894 179.596 105.966 179.68C106.05 179.752 106.092 179.848 106.092 179.968V182.974H108.324C108.444 182.974 108.54 183.016 108.612 183.1C108.696 183.172 108.738 183.268 108.738 183.388V184C108.738 184.12 108.696 184.222 108.612 184.306C108.54 184.378 108.444 184.414 108.324 184.414H106.092V189.04C106.092 189.64 106.194 190.096 106.398 190.408C106.602 190.708 106.938 190.858 107.406 190.858H108.504C108.624 190.858 108.72 190.9 108.792 190.984C108.876 191.056 108.918 191.152 108.918 191.272V191.92C108.918 192.04 108.876 192.142 108.792 192.226C108.72 192.298 108.624 192.334 108.504 192.334H107.262ZM114.384 192.514C113.148 192.514 112.158 192.136 111.414 191.38C110.682 190.612 110.28 189.568 110.208 188.248L110.19 187.636L110.208 187.042C110.292 185.746 110.7 184.714 111.432 183.946C112.176 183.178 113.154 182.794 114.366 182.794C115.698 182.794 116.73 183.22 117.462 184.072C118.194 184.912 118.56 186.052 118.56 187.492V187.798C118.56 187.918 118.518 188.02 118.434 188.104C118.362 188.176 118.266 188.212 118.146 188.212H111.918V188.374C111.954 189.154 112.188 189.82 112.62 190.372C113.064 190.912 113.646 191.182 114.366 191.182C114.918 191.182 115.368 191.074 115.716 190.858C116.076 190.63 116.34 190.396 116.508 190.156C116.616 190.012 116.694 189.928 116.742 189.904C116.802 189.868 116.904 189.85 117.048 189.85H117.93C118.038 189.85 118.128 189.88 118.2 189.94C118.272 190 118.308 190.084 118.308 190.192C118.308 190.456 118.14 190.774 117.804 191.146C117.48 191.518 117.018 191.842 116.418 192.118C115.83 192.382 115.152 192.514 114.384 192.514ZM116.85 186.97V186.916C116.85 186.088 116.622 185.416 116.166 184.9C115.722 184.372 115.122 184.108 114.366 184.108C113.61 184.108 113.01 184.372 112.566 184.9C112.134 185.416 111.918 186.088 111.918 186.916V186.97H116.85ZM121.126 192.334C121.006 192.334 120.904 192.298 120.82 192.226C120.748 192.142 120.712 192.04 120.712 191.92V183.406C120.712 183.286 120.748 183.184 120.82 183.1C120.904 183.016 121.006 182.974 121.126 182.974H121.954C122.074 182.974 122.176 183.016 122.26 183.1C122.344 183.184 122.386 183.286 122.386 183.406V184.198C122.878 183.382 123.718 182.974 124.906 182.974H125.608C125.728 182.974 125.824 183.016 125.896 183.1C125.98 183.172 126.022 183.268 126.022 183.388V184.126C126.022 184.246 125.98 184.342 125.896 184.414C125.824 184.486 125.728 184.522 125.608 184.522H124.528C123.88 184.522 123.37 184.714 122.998 185.098C122.626 185.47 122.44 185.98 122.44 186.628V191.92C122.44 192.04 122.398 192.142 122.314 192.226C122.23 192.298 122.128 192.334 122.008 192.334H121.126ZM130.453 192.334C130.357 192.334 130.273 192.298 130.201 192.226C130.129 192.154 130.093 192.07 130.093 191.974C130.093 191.878 130.099 191.812 130.111 191.776L134.575 180.13C134.671 179.866 134.863 179.734 135.151 179.734H136.375C136.663 179.734 136.855 179.866 136.951 180.13L141.397 191.776L141.433 191.974C141.433 192.07 141.397 192.154 141.325 192.226C141.253 192.298 141.169 192.334 141.073 192.334H140.155C140.023 192.334 139.921 192.304 139.849 192.244C139.777 192.172 139.729 192.1 139.705 192.028L138.715 189.472H132.811L131.821 192.028C131.797 192.1 131.743 192.172 131.659 192.244C131.587 192.304 131.491 192.334 131.371 192.334H130.453ZM138.193 187.924L135.763 181.534L133.333 187.924H138.193ZM147.709 192.334C147.589 192.334 147.487 192.298 147.403 192.226C147.331 192.142 147.295 192.04 147.295 191.92V180.148C147.295 180.028 147.331 179.932 147.403 179.86C147.487 179.776 147.589 179.734 147.709 179.734H148.663C148.783 179.734 148.879 179.776 148.951 179.86C149.035 179.932 149.077 180.028 149.077 180.148V190.768H155.053C155.185 190.768 155.287 190.81 155.359 190.894C155.443 190.966 155.485 191.068 155.485 191.2V191.92C155.485 192.04 155.443 192.142 155.359 192.226C155.275 192.298 155.173 192.334 155.053 192.334H147.709ZM160.845 192.514C159.525 192.514 158.499 192.142 157.767 191.398C157.047 190.654 156.663 189.664 156.615 188.428L156.597 187.654L156.615 186.88C156.663 185.656 157.053 184.672 157.785 183.928C158.517 183.172 159.537 182.794 160.845 182.794C162.153 182.794 163.173 183.172 163.905 183.928C164.637 184.672 165.027 185.656 165.075 186.88C165.087 187.012 165.093 187.27 165.093 187.654C165.093 188.038 165.087 188.296 165.075 188.428C165.027 189.664 164.637 190.654 163.905 191.398C163.185 192.142 162.165 192.514 160.845 192.514ZM160.845 191.128C161.601 191.128 162.195 190.888 162.627 190.408C163.071 189.928 163.311 189.238 163.347 188.338C163.359 188.218 163.365 187.99 163.365 187.654C163.365 187.318 163.359 187.09 163.347 186.97C163.311 186.07 163.071 185.38 162.627 184.9C162.195 184.42 161.601 184.18 160.845 184.18C160.089 184.18 159.489 184.42 159.045 184.9C158.601 185.38 158.367 186.07 158.343 186.97L158.325 187.654L158.343 188.338C158.367 189.238 158.601 189.928 159.045 190.408C159.489 190.888 160.089 191.128 160.845 191.128ZM171.127 192.514C169.843 192.514 168.835 192.154 168.103 191.434C167.383 190.702 166.999 189.682 166.951 188.374L166.933 187.654L166.951 186.934C166.999 185.626 167.383 184.612 168.103 183.892C168.835 183.16 169.843 182.794 171.127 182.794C171.991 182.794 172.723 182.95 173.323 183.262C173.923 183.574 174.367 183.958 174.655 184.414C174.955 184.87 175.117 185.326 175.141 185.782C175.153 185.902 175.117 185.998 175.033 186.07C174.949 186.142 174.847 186.178 174.727 186.178H173.863C173.743 186.178 173.653 186.154 173.593 186.106C173.533 186.058 173.473 185.962 173.413 185.818C173.209 185.242 172.921 184.834 172.549 184.594C172.177 184.342 171.709 184.216 171.145 184.216C170.401 184.216 169.807 184.45 169.363 184.918C168.931 185.374 168.697 186.076 168.661 187.024L168.643 187.672L168.661 188.284C168.697 189.244 168.931 189.952 169.363 190.408C169.795 190.864 170.389 191.092 171.145 191.092C171.709 191.092 172.177 190.972 172.549 190.732C172.921 190.48 173.209 190.066 173.413 189.49C173.473 189.346 173.533 189.25 173.593 189.202C173.653 189.142 173.743 189.112 173.863 189.112H174.727C174.847 189.112 174.949 189.154 175.033 189.238C175.117 189.31 175.153 189.406 175.141 189.526C175.117 189.97 174.955 190.426 174.655 190.894C174.367 191.35 173.923 191.734 173.323 192.046C172.735 192.358 172.003 192.514 171.127 192.514ZM179.888 192.514C179.3 192.514 178.754 192.394 178.25 192.154C177.746 191.914 177.344 191.59 177.044 191.182C176.756 190.762 176.612 190.3 176.612 189.796C176.612 189.004 176.936 188.356 177.584 187.852C178.244 187.336 179.132 187 180.248 186.844L182.93 186.466V185.944C182.93 184.72 182.228 184.108 180.824 184.108C180.296 184.108 179.864 184.222 179.528 184.45C179.192 184.666 178.94 184.924 178.772 185.224C178.736 185.332 178.688 185.41 178.628 185.458C178.58 185.506 178.508 185.53 178.412 185.53H177.638C177.53 185.53 177.434 185.494 177.35 185.422C177.278 185.338 177.242 185.242 177.242 185.134C177.254 184.846 177.386 184.522 177.638 184.162C177.902 183.79 178.304 183.472 178.844 183.208C179.384 182.932 180.05 182.794 180.842 182.794C182.186 182.794 183.152 183.112 183.74 183.748C184.328 184.372 184.622 185.152 184.622 186.088V191.92C184.622 192.04 184.58 192.142 184.496 192.226C184.424 192.298 184.328 192.334 184.208 192.334H183.38C183.26 192.334 183.158 192.298 183.074 192.226C183.002 192.142 182.966 192.04 182.966 191.92V191.146C182.702 191.53 182.318 191.854 181.814 192.118C181.31 192.382 180.668 192.514 179.888 192.514ZM180.266 191.164C181.046 191.164 181.682 190.912 182.174 190.408C182.678 189.892 182.93 189.154 182.93 188.194V187.69L180.842 187.996C179.99 188.116 179.348 188.32 178.916 188.608C178.484 188.884 178.268 189.238 178.268 189.67C178.268 190.15 178.466 190.522 178.862 190.786C179.258 191.038 179.726 191.164 180.266 191.164ZM190.776 192.334C188.88 192.334 187.932 191.278 187.932 189.166V184.414H186.528C186.408 184.414 186.306 184.378 186.222 184.306C186.15 184.222 186.114 184.12 186.114 184V183.388C186.114 183.268 186.15 183.172 186.222 183.1C186.306 183.016 186.408 182.974 186.528 182.974H187.932V179.968C187.932 179.848 187.968 179.752 188.04 179.68C188.124 179.596 188.226 179.554 188.346 179.554H189.192C189.312 179.554 189.408 179.596 189.48 179.68C189.564 179.752 189.606 179.848 189.606 179.968V182.974H191.838C191.958 182.974 192.054 183.016 192.126 183.1C192.21 183.172 192.252 183.268 192.252 183.388V184C192.252 184.12 192.21 184.222 192.126 184.306C192.054 184.378 191.958 184.414 191.838 184.414H189.606V189.04C189.606 189.64 189.708 190.096 189.912 190.408C190.116 190.708 190.452 190.858 190.92 190.858H192.018C192.138 190.858 192.234 190.9 192.306 190.984C192.39 191.056 192.432 191.152 192.432 191.272V191.92C192.432 192.04 192.39 192.142 192.306 192.226C192.234 192.298 192.138 192.334 192.018 192.334H190.776ZM194.423 181.228C194.303 181.228 194.201 181.192 194.117 181.12C194.045 181.036 194.009 180.934 194.009 180.814V179.842C194.009 179.722 194.045 179.62 194.117 179.536C194.201 179.452 194.303 179.41 194.423 179.41H195.557C195.677 179.41 195.779 179.452 195.863 179.536C195.947 179.62 195.989 179.722 195.989 179.842V180.814C195.989 180.934 195.947 181.036 195.863 181.12C195.779 181.192 195.677 181.228 195.557 181.228H194.423ZM194.567 192.334C194.447 192.334 194.345 192.298 194.261 192.226C194.189 192.142 194.153 192.04 194.153 191.92V183.388C194.153 183.268 194.189 183.172 194.261 183.1C194.345 183.016 194.447 182.974 194.567 182.974H195.431C195.551 182.974 195.647 183.016 195.719 183.1C195.803 183.172 195.845 183.268 195.845 183.388V191.92C195.845 192.04 195.803 192.142 195.719 192.226C195.647 192.298 195.551 192.334 195.431 192.334H194.567ZM202.347 192.514C201.027 192.514 200.001 192.142 199.269 191.398C198.549 190.654 198.165 189.664 198.117 188.428L198.099 187.654L198.117 186.88C198.165 185.656 198.555 184.672 199.287 183.928C200.019 183.172 201.039 182.794 202.347 182.794C203.655 182.794 204.675 183.172 205.407 183.928C206.139 184.672 206.529 185.656 206.577 186.88C206.589 187.012 206.595 187.27 206.595 187.654C206.595 188.038 206.589 188.296 206.577 188.428C206.529 189.664 206.139 190.654 205.407 191.398C204.687 192.142 203.667 192.514 202.347 192.514ZM202.347 191.128C203.103 191.128 203.697 190.888 204.129 190.408C204.573 189.928 204.813 189.238 204.849 188.338C204.861 188.218 204.867 187.99 204.867 187.654C204.867 187.318 204.861 187.09 204.849 186.97C204.813 186.07 204.573 185.38 204.129 184.9C203.697 184.42 203.103 184.18 202.347 184.18C201.591 184.18 200.991 184.42 200.547 184.9C200.103 185.38 199.869 186.07 199.845 186.97L199.827 187.654L199.845 188.338C199.869 189.238 200.103 189.928 200.547 190.408C200.991 190.888 201.591 191.128 202.347 191.128ZM209.263 192.334C209.143 192.334 209.041 192.298 208.957 192.226C208.885 192.142 208.849 192.04 208.849 191.92V183.388C208.849 183.268 208.885 183.172 208.957 183.1C209.041 183.016 209.143 182.974 209.263 182.974H210.109C210.229 182.974 210.325 183.016 210.397 183.1C210.481 183.172 210.523 183.268 210.523 183.388V184.18C210.871 183.736 211.279 183.394 211.747 183.154C212.227 182.914 212.821 182.794 213.529 182.794C214.681 182.794 215.575 183.166 216.211 183.91C216.859 184.642 217.183 185.62 217.183 186.844V191.92C217.183 192.04 217.141 192.142 217.057 192.226C216.985 192.298 216.889 192.334 216.769 192.334H215.869C215.749 192.334 215.647 192.298 215.563 192.226C215.491 192.142 215.455 192.04 215.455 191.92V186.934C215.455 186.082 215.245 185.422 214.825 184.954C214.417 184.486 213.823 184.252 213.043 184.252C212.287 184.252 211.687 184.492 211.243 184.972C210.799 185.44 210.577 186.094 210.577 186.934V191.92C210.577 192.04 210.535 192.142 210.451 192.226C210.379 192.298 210.283 192.334 210.163 192.334H209.263Z" fill="#969393"/>
<path d="M86.364 260.847C85.368 260.847 84.504 260.691 83.772 260.379C83.052 260.067 82.5 259.659 82.116 259.155C81.732 258.639 81.528 258.087 81.504 257.499C81.504 257.403 81.54 257.319 81.612 257.247C81.696 257.163 81.792 257.121 81.9 257.121H82.818C83.046 257.121 83.202 257.241 83.286 257.481C83.394 257.985 83.7 258.417 84.204 258.777C84.72 259.137 85.44 259.317 86.364 259.317C87.36 259.317 88.11 259.143 88.614 258.795C89.118 258.435 89.37 257.937 89.37 257.301C89.37 256.893 89.244 256.563 88.992 256.311C88.752 256.059 88.392 255.837 87.912 255.645C87.432 255.453 86.712 255.213 85.752 254.925C84.816 254.661 84.072 254.379 83.52 254.079C82.968 253.779 82.554 253.407 82.278 252.963C82.002 252.519 81.864 251.961 81.864 251.289C81.864 250.641 82.038 250.059 82.386 249.543C82.746 249.027 83.256 248.625 83.916 248.337C84.576 248.037 85.362 247.887 86.274 247.887C87.21 247.887 88.014 248.055 88.686 248.391C89.358 248.715 89.868 249.129 90.216 249.633C90.564 250.137 90.75 250.641 90.774 251.145C90.774 251.241 90.738 251.325 90.666 251.397C90.606 251.469 90.516 251.505 90.396 251.505H89.442C89.19 251.505 89.034 251.391 88.974 251.163C88.902 250.659 88.62 250.245 88.128 249.921C87.636 249.585 87.018 249.417 86.274 249.417C85.458 249.417 84.816 249.573 84.348 249.885C83.88 250.197 83.646 250.659 83.646 251.271C83.646 251.679 83.754 252.015 83.97 252.279C84.198 252.543 84.54 252.777 84.996 252.981C85.452 253.173 86.118 253.395 86.994 253.647C88.014 253.923 88.818 254.211 89.406 254.511C89.994 254.799 90.432 255.165 90.72 255.609C91.008 256.041 91.152 256.593 91.152 257.265C91.152 258.381 90.72 259.257 89.856 259.893C88.992 260.529 87.828 260.847 86.364 260.847ZM97.0213 260.847C95.7853 260.847 94.7953 260.469 94.0513 259.713C93.3193 258.945 92.9173 257.901 92.8453 256.581L92.8273 255.969L92.8453 255.375C92.9293 254.079 93.3373 253.047 94.0693 252.279C94.8133 251.511 95.7913 251.127 97.0033 251.127C98.3353 251.127 99.3673 251.553 100.099 252.405C100.831 253.245 101.197 254.385 101.197 255.825V256.131C101.197 256.251 101.155 256.353 101.071 256.437C100.999 256.509 100.903 256.545 100.783 256.545H94.5553V256.707C94.5913 257.487 94.8253 258.153 95.2573 258.705C95.7013 259.245 96.2833 259.515 97.0033 259.515C97.5553 259.515 98.0053 259.407 98.3533 259.191C98.7133 258.963 98.9773 258.729 99.1453 258.489C99.2533 258.345 99.3313 258.261 99.3793 258.237C99.4393 258.201 99.5413 258.183 99.6853 258.183H100.567C100.675 258.183 100.765 258.213 100.837 258.273C100.909 258.333 100.945 258.417 100.945 258.525C100.945 258.789 100.777 259.107 100.441 259.479C100.117 259.851 99.6553 260.175 99.0553 260.451C98.4673 260.715 97.7893 260.847 97.0213 260.847ZM99.4873 255.303V255.249C99.4873 254.421 99.2593 253.749 98.8033 253.233C98.3593 252.705 97.7593 252.441 97.0033 252.441C96.2473 252.441 95.6473 252.705 95.2033 253.233C94.7713 253.749 94.5553 254.421 94.5553 255.249V255.303H99.4873ZM103.782 260.667C103.662 260.667 103.56 260.631 103.476 260.559C103.404 260.475 103.368 260.373 103.368 260.253V248.301C103.368 248.181 103.404 248.085 103.476 248.013C103.56 247.929 103.662 247.887 103.782 247.887H104.628C104.748 247.887 104.844 247.929 104.916 248.013C105 248.085 105.042 248.181 105.042 248.301V260.253C105.042 260.373 105 260.475 104.916 260.559C104.844 260.631 104.748 260.667 104.628 260.667H103.782ZM111.471 260.847C110.235 260.847 109.245 260.469 108.501 259.713C107.769 258.945 107.367 257.901 107.295 256.581L107.277 255.969L107.295 255.375C107.379 254.079 107.787 253.047 108.519 252.279C109.263 251.511 110.241 251.127 111.453 251.127C112.785 251.127 113.817 251.553 114.549 252.405C115.281 253.245 115.647 254.385 115.647 255.825V256.131C115.647 256.251 115.605 256.353 115.521 256.437C115.449 256.509 115.353 256.545 115.233 256.545H109.005V256.707C109.041 257.487 109.275 258.153 109.707 258.705C110.151 259.245 110.733 259.515 111.453 259.515C112.005 259.515 112.455 259.407 112.803 259.191C113.163 258.963 113.427 258.729 113.595 258.489C113.703 258.345 113.781 258.261 113.829 258.237C113.889 258.201 113.991 258.183 114.135 258.183H115.017C115.125 258.183 115.215 258.213 115.287 258.273C115.359 258.333 115.395 258.417 115.395 258.525C115.395 258.789 115.227 259.107 114.891 259.479C114.567 259.851 114.105 260.175 113.505 260.451C112.917 260.715 112.239 260.847 111.471 260.847ZM113.937 255.303V255.249C113.937 254.421 113.709 253.749 113.253 253.233C112.809 252.705 112.209 252.441 111.453 252.441C110.697 252.441 110.097 252.705 109.653 253.233C109.221 253.749 109.005 254.421 109.005 255.249V255.303H113.937ZM121.579 260.847C120.295 260.847 119.287 260.487 118.555 259.767C117.835 259.035 117.451 258.015 117.403 256.707L117.385 255.987L117.403 255.267C117.451 253.959 117.835 252.945 118.555 252.225C119.287 251.493 120.295 251.127 121.579 251.127C122.443 251.127 123.175 251.283 123.775 251.595C124.375 251.907 124.819 252.291 125.107 252.747C125.407 253.203 125.569 253.659 125.593 254.115C125.605 254.235 125.569 254.331 125.485 254.403C125.401 254.475 125.299 254.511 125.179 254.511H124.315C124.195 254.511 124.105 254.487 124.045 254.439C123.985 254.391 123.925 254.295 123.865 254.151C123.661 253.575 123.373 253.167 123.001 252.927C122.629 252.675 122.161 252.549 121.597 252.549C120.853 252.549 120.259 252.783 119.815 253.251C119.383 253.707 119.149 254.409 119.113 255.357L119.095 256.005L119.113 256.617C119.149 257.577 119.383 258.285 119.815 258.741C120.247 259.197 120.841 259.425 121.597 259.425C122.161 259.425 122.629 259.305 123.001 259.065C123.373 258.813 123.661 258.399 123.865 257.823C123.925 257.679 123.985 257.583 124.045 257.535C124.105 257.475 124.195 257.445 124.315 257.445H125.179C125.299 257.445 125.401 257.487 125.485 257.571C125.569 257.643 125.605 257.739 125.593 257.859C125.569 258.303 125.407 258.759 125.107 259.227C124.819 259.683 124.375 260.067 123.775 260.379C123.187 260.691 122.455 260.847 121.579 260.847ZM131.384 260.667C129.488 260.667 128.54 259.611 128.54 257.499V252.747H127.136C127.016 252.747 126.914 252.711 126.83 252.639C126.758 252.555 126.722 252.453 126.722 252.333V251.721C126.722 251.601 126.758 251.505 126.83 251.433C126.914 251.349 127.016 251.307 127.136 251.307H128.54V248.301C128.54 248.181 128.576 248.085 128.648 248.013C128.732 247.929 128.834 247.887 128.954 247.887H129.8C129.92 247.887 130.016 247.929 130.088 248.013C130.172 248.085 130.214 248.181 130.214 248.301V251.307H132.446C132.566 251.307 132.662 251.349 132.734 251.433C132.818 251.505 132.86 251.601 132.86 251.721V252.333C132.86 252.453 132.818 252.555 132.734 252.639C132.662 252.711 132.566 252.747 132.446 252.747H130.214V257.373C130.214 257.973 130.316 258.429 130.52 258.741C130.724 259.041 131.06 259.191 131.528 259.191H132.626C132.746 259.191 132.842 259.233 132.914 259.317C132.998 259.389 133.04 259.485 133.04 259.605V260.253C133.04 260.373 132.998 260.475 132.914 260.559C132.842 260.631 132.746 260.667 132.626 260.667H131.384ZM143.458 260.847C142.462 260.847 141.598 260.691 140.866 260.379C140.146 260.067 139.594 259.659 139.21 259.155C138.826 258.639 138.622 258.087 138.598 257.499C138.598 257.403 138.634 257.319 138.706 257.247C138.79 257.163 138.886 257.121 138.994 257.121H139.912C140.14 257.121 140.296 257.241 140.38 257.481C140.488 257.985 140.794 258.417 141.298 258.777C141.814 259.137 142.534 259.317 143.458 259.317C144.454 259.317 145.204 259.143 145.708 258.795C146.212 258.435 146.464 257.937 146.464 257.301C146.464 256.893 146.338 256.563 146.086 256.311C145.846 256.059 145.486 255.837 145.006 255.645C144.526 255.453 143.806 255.213 142.846 254.925C141.91 254.661 141.166 254.379 140.614 254.079C140.062 253.779 139.648 253.407 139.372 252.963C139.096 252.519 138.958 251.961 138.958 251.289C138.958 250.641 139.132 250.059 139.48 249.543C139.84 249.027 140.35 248.625 141.01 248.337C141.67 248.037 142.456 247.887 143.368 247.887C144.304 247.887 145.108 248.055 145.78 248.391C146.452 248.715 146.962 249.129 147.31 249.633C147.658 250.137 147.844 250.641 147.868 251.145C147.868 251.241 147.832 251.325 147.76 251.397C147.7 251.469 147.61 251.505 147.49 251.505H146.536C146.284 251.505 146.128 251.391 146.068 251.163C145.996 250.659 145.714 250.245 145.222 249.921C144.73 249.585 144.112 249.417 143.368 249.417C142.552 249.417 141.91 249.573 141.442 249.885C140.974 250.197 140.74 250.659 140.74 251.271C140.74 251.679 140.848 252.015 141.064 252.279C141.292 252.543 141.634 252.777 142.09 252.981C142.546 253.173 143.212 253.395 144.088 253.647C145.108 253.923 145.912 254.211 146.5 254.511C147.088 254.799 147.526 255.165 147.814 255.609C148.102 256.041 148.246 256.593 148.246 257.265C148.246 258.381 147.814 259.257 146.95 259.893C146.086 260.529 144.922 260.847 143.458 260.847ZM154.115 260.847C152.879 260.847 151.889 260.469 151.145 259.713C150.413 258.945 150.011 257.901 149.939 256.581L149.921 255.969L149.939 255.375C150.023 254.079 150.431 253.047 151.163 252.279C151.907 251.511 152.885 251.127 154.097 251.127C155.429 251.127 156.461 251.553 157.193 252.405C157.925 253.245 158.291 254.385 158.291 255.825V256.131C158.291 256.251 158.249 256.353 158.165 256.437C158.093 256.509 157.997 256.545 157.877 256.545H151.649V256.707C151.685 257.487 151.919 258.153 152.351 258.705C152.795 259.245 153.377 259.515 154.097 259.515C154.649 259.515 155.099 259.407 155.447 259.191C155.807 258.963 156.071 258.729 156.239 258.489C156.347 258.345 156.425 258.261 156.473 258.237C156.533 258.201 156.635 258.183 156.779 258.183H157.661C157.769 258.183 157.859 258.213 157.931 258.273C158.003 258.333 158.039 258.417 158.039 258.525C158.039 258.789 157.871 259.107 157.535 259.479C157.211 259.851 156.749 260.175 156.149 260.451C155.561 260.715 154.883 260.847 154.115 260.847ZM156.581 255.303V255.249C156.581 254.421 156.353 253.749 155.897 253.233C155.453 252.705 154.853 252.441 154.097 252.441C153.341 252.441 152.741 252.705 152.297 253.233C151.865 253.749 151.649 254.421 151.649 255.249V255.303H156.581ZM163.053 260.847C162.465 260.847 161.919 260.727 161.415 260.487C160.911 260.247 160.509 259.923 160.209 259.515C159.921 259.095 159.777 258.633 159.777 258.129C159.777 257.337 160.101 256.689 160.749 256.185C161.409 255.669 162.297 255.333 163.413 255.177L166.095 254.799V254.277C166.095 253.053 165.393 252.441 163.989 252.441C163.461 252.441 163.029 252.555 162.693 252.783C162.357 252.999 162.105 253.257 161.937 253.557C161.901 253.665 161.853 253.743 161.793 253.791C161.745 253.839 161.673 253.863 161.577 253.863H160.803C160.695 253.863 160.599 253.827 160.515 253.755C160.443 253.671 160.407 253.575 160.407 253.467C160.419 253.179 160.551 252.855 160.803 252.495C161.067 252.123 161.469 251.805 162.009 251.541C162.549 251.265 163.215 251.127 164.007 251.127C165.351 251.127 166.317 251.445 166.905 252.081C167.493 252.705 167.787 253.485 167.787 254.421V260.253C167.787 260.373 167.745 260.475 167.661 260.559C167.589 260.631 167.493 260.667 167.373 260.667H166.545C166.425 260.667 166.323 260.631 166.239 260.559C166.167 260.475 166.131 260.373 166.131 260.253V259.479C165.867 259.863 165.483 260.187 164.979 260.451C164.475 260.715 163.833 260.847 163.053 260.847ZM163.431 259.497C164.211 259.497 164.847 259.245 165.339 258.741C165.843 258.225 166.095 257.487 166.095 256.527V256.023L164.007 256.329C163.155 256.449 162.513 256.653 162.081 256.941C161.649 257.217 161.433 257.571 161.433 258.003C161.433 258.483 161.631 258.855 162.027 259.119C162.423 259.371 162.891 259.497 163.431 259.497ZM170.789 260.667C170.669 260.667 170.567 260.631 170.483 260.559C170.411 260.475 170.375 260.373 170.375 260.253V251.739C170.375 251.619 170.411 251.517 170.483 251.433C170.567 251.349 170.669 251.307 170.789 251.307H171.617C171.737 251.307 171.839 251.349 171.923 251.433C172.007 251.517 172.049 251.619 172.049 251.739V252.531C172.541 251.715 173.381 251.307 174.569 251.307H175.271C175.391 251.307 175.487 251.349 175.559 251.433C175.643 251.505 175.685 251.601 175.685 251.721V252.459C175.685 252.579 175.643 252.675 175.559 252.747C175.487 252.819 175.391 252.855 175.271 252.855H174.191C173.543 252.855 173.033 253.047 172.661 253.431C172.289 253.803 172.103 254.313 172.103 254.961V260.253C172.103 260.373 172.061 260.475 171.977 260.559C171.893 260.631 171.791 260.667 171.671 260.667H170.789ZM180.817 260.847C179.533 260.847 178.525 260.487 177.793 259.767C177.073 259.035 176.689 258.015 176.641 256.707L176.623 255.987L176.641 255.267C176.689 253.959 177.073 252.945 177.793 252.225C178.525 251.493 179.533 251.127 180.817 251.127C181.681 251.127 182.413 251.283 183.013 251.595C183.613 251.907 184.057 252.291 184.345 252.747C184.645 253.203 184.807 253.659 184.831 254.115C184.843 254.235 184.807 254.331 184.723 254.403C184.639 254.475 184.537 254.511 184.417 254.511H183.553C183.433 254.511 183.343 254.487 183.283 254.439C183.223 254.391 183.163 254.295 183.103 254.151C182.899 253.575 182.611 253.167 182.239 252.927C181.867 252.675 181.399 252.549 180.835 252.549C180.091 252.549 179.497 252.783 179.053 253.251C178.621 253.707 178.387 254.409 178.351 255.357L178.333 256.005L178.351 256.617C178.387 257.577 178.621 258.285 179.053 258.741C179.485 259.197 180.079 259.425 180.835 259.425C181.399 259.425 181.867 259.305 182.239 259.065C182.611 258.813 182.899 258.399 183.103 257.823C183.163 257.679 183.223 257.583 183.283 257.535C183.343 257.475 183.433 257.445 183.553 257.445H184.417C184.537 257.445 184.639 257.487 184.723 257.571C184.807 257.643 184.843 257.739 184.831 257.859C184.807 258.303 184.645 258.759 184.345 259.227C184.057 259.683 183.613 260.067 183.013 260.379C182.425 260.691 181.693 260.847 180.817 260.847ZM187.401 260.667C187.281 260.667 187.179 260.631 187.095 260.559C187.023 260.475 186.987 260.373 186.987 260.253V248.301C186.987 248.181 187.023 248.085 187.095 248.013C187.179 247.929 187.281 247.887 187.401 247.887H188.301C188.421 247.887 188.517 247.929 188.589 248.013C188.673 248.085 188.715 248.181 188.715 248.301V252.495C189.063 252.051 189.471 251.715 189.939 251.487C190.407 251.247 190.989 251.127 191.685 251.127C192.837 251.127 193.731 251.499 194.367 252.243C195.015 252.975 195.339 253.953 195.339 255.177V260.253C195.339 260.373 195.297 260.475 195.213 260.559C195.141 260.631 195.045 260.667 194.925 260.667H194.025C193.905 260.667 193.803 260.631 193.719 260.559C193.647 260.475 193.611 260.373 193.611 260.253V255.267C193.611 254.415 193.401 253.755 192.981 253.287C192.573 252.819 191.979 252.585 191.199 252.585C190.443 252.585 189.837 252.825 189.381 253.305C188.937 253.773 188.715 254.427 188.715 255.267V260.253C188.715 260.373 188.673 260.475 188.589 260.559C188.517 260.631 188.421 260.667 188.301 260.667H187.401ZM205.295 260.667C205.175 260.667 205.073 260.631 204.989 260.559C204.917 260.475 204.881 260.373 204.881 260.253V249.669H201.425C201.305 249.669 201.203 249.633 201.119 249.561C201.047 249.477 201.011 249.375 201.011 249.255V248.499C201.011 248.379 201.047 248.277 201.119 248.193C201.203 248.109 201.305 248.067 201.425 248.067H210.101C210.233 248.067 210.335 248.109 210.407 248.193C210.491 248.265 210.533 248.367 210.533 248.499V249.255C210.533 249.375 210.491 249.477 210.407 249.561C210.323 249.633 210.221 249.669 210.101 249.669H206.663V260.253C206.663 260.373 206.621 260.475 206.537 260.559C206.453 260.631 206.351 260.667 206.231 260.667H205.295ZM212.495 264.087C212.399 264.087 212.315 264.051 212.243 263.979C212.171 263.907 212.135 263.823 212.135 263.727C212.135 263.643 212.165 263.535 212.225 263.403L213.611 260.109L210.173 251.991C210.113 251.835 210.083 251.733 210.083 251.685C210.083 251.577 210.119 251.487 210.191 251.415C210.263 251.343 210.353 251.307 210.461 251.307H211.343C211.535 251.307 211.679 251.409 211.775 251.613L214.511 258.165L217.319 251.613C217.415 251.409 217.565 251.307 217.769 251.307H218.615C218.723 251.307 218.813 251.343 218.885 251.415C218.957 251.487 218.993 251.571 218.993 251.667C218.993 251.703 218.963 251.811 218.903 251.991L213.791 263.781C213.695 263.985 213.545 264.087 213.341 264.087H212.495ZM221.221 264.087C221.101 264.087 220.999 264.045 220.915 263.961C220.843 263.889 220.807 263.793 220.807 263.673V251.721C220.807 251.601 220.843 251.505 220.915 251.433C220.999 251.349 221.101 251.307 221.221 251.307H222.049C222.169 251.307 222.265 251.349 222.337 251.433C222.421 251.505 222.463 251.601 222.463 251.721V252.513C223.135 251.589 224.119 251.127 225.415 251.127C226.675 251.127 227.617 251.523 228.241 252.315C228.877 253.107 229.219 254.127 229.267 255.375C229.279 255.507 229.285 255.711 229.285 255.987C229.285 256.263 229.279 256.467 229.267 256.599C229.219 257.835 228.877 258.855 228.241 259.659C227.605 260.451 226.663 260.847 225.415 260.847C224.167 260.847 223.195 260.397 222.499 259.497V263.673C222.499 263.793 222.463 263.889 222.391 263.961C222.319 264.045 222.223 264.087 222.103 264.087H221.221ZM225.037 259.389C225.889 259.389 226.507 259.125 226.891 258.597C227.287 258.069 227.503 257.373 227.539 256.509C227.551 256.389 227.557 256.215 227.557 255.987C227.557 253.719 226.717 252.585 225.037 252.585C224.209 252.585 223.585 252.861 223.165 253.413C222.757 253.953 222.535 254.601 222.499 255.357L222.481 256.041L222.499 256.743C222.523 257.451 222.751 258.069 223.183 258.597C223.615 259.125 224.233 259.389 225.037 259.389ZM235.256 260.847C234.02 260.847 233.03 260.469 232.286 259.713C231.554 258.945 231.152 257.901 231.08 256.581L231.062 255.969L231.08 255.375C231.164 254.079 231.572 253.047 232.304 252.279C233.048 251.511 234.026 251.127 235.238 251.127C236.57 251.127 237.602 251.553 238.334 252.405C239.066 253.245 239.432 254.385 239.432 255.825V256.131C239.432 256.251 239.39 256.353 239.306 256.437C239.234 256.509 239.138 256.545 239.018 256.545H232.79V256.707C232.826 257.487 233.06 258.153 233.492 258.705C233.936 259.245 234.518 259.515 235.238 259.515C235.79 259.515 236.24 259.407 236.588 259.191C236.948 258.963 237.212 258.729 237.38 258.489C237.488 258.345 237.566 258.261 237.614 258.237C237.674 258.201 237.776 258.183 237.92 258.183H238.802C238.91 258.183 239 258.213 239.072 258.273C239.144 258.333 239.18 258.417 239.18 258.525C239.18 258.789 239.012 259.107 238.676 259.479C238.352 259.851 237.89 260.175 237.29 260.451C236.702 260.715 236.024 260.847 235.256 260.847ZM237.722 255.303V255.249C237.722 254.421 237.494 253.749 237.038 253.233C236.594 252.705 235.994 252.441 235.238 252.441C234.482 252.441 233.882 252.705 233.438 253.233C233.006 253.749 232.79 254.421 232.79 255.249V255.303H237.722Z" fill="#969393"/>
<path d="M228.891 332.26C227.348 332.26 226.022 332.026 224.913 331.558C223.804 331.09 222.963 330.475 222.391 329.712C221.819 328.949 221.516 328.126 221.481 327.242C221.481 327.086 221.533 326.956 221.637 326.852C221.741 326.748 221.871 326.696 222.027 326.696H224.341C224.549 326.696 224.705 326.739 224.809 326.826C224.93 326.895 225.043 327.017 225.147 327.19C225.32 327.779 225.719 328.273 226.343 328.672C226.967 329.071 227.816 329.27 228.891 329.27C230.122 329.27 231.049 329.071 231.673 328.672C232.297 328.256 232.609 327.684 232.609 326.956C232.609 326.471 232.444 326.072 232.115 325.76C231.803 325.448 231.326 325.179 230.685 324.954C230.061 324.729 229.125 324.451 227.877 324.122C225.832 323.637 224.332 322.995 223.379 322.198C222.443 321.383 221.975 320.231 221.975 318.74C221.975 317.735 222.244 316.842 222.781 316.062C223.336 315.282 224.124 314.667 225.147 314.216C226.187 313.765 227.392 313.54 228.761 313.54C230.182 313.54 231.413 313.791 232.453 314.294C233.493 314.797 234.282 315.429 234.819 316.192C235.374 316.937 235.668 317.683 235.703 318.428C235.703 318.584 235.651 318.714 235.547 318.818C235.443 318.922 235.313 318.974 235.157 318.974H232.739C232.375 318.974 232.124 318.809 231.985 318.48C231.881 317.925 231.534 317.466 230.945 317.102C230.356 316.721 229.628 316.53 228.761 316.53C227.79 316.53 227.028 316.712 226.473 317.076C225.918 317.44 225.641 317.969 225.641 318.662C225.641 319.147 225.78 319.546 226.057 319.858C226.334 320.17 226.768 320.447 227.357 320.69C227.964 320.933 228.83 321.201 229.957 321.496C231.482 321.843 232.696 322.233 233.597 322.666C234.516 323.099 235.192 323.645 235.625 324.304C236.058 324.963 236.275 325.803 236.275 326.826C236.275 327.935 235.963 328.906 235.339 329.738C234.732 330.553 233.866 331.177 232.739 331.61C231.63 332.043 230.347 332.26 228.891 332.26ZM244.767 332.26C242.843 332.26 241.309 331.705 240.165 330.596C239.038 329.469 238.44 327.892 238.371 325.864L238.345 325.214L238.371 324.564C238.457 322.588 239.064 321.037 240.191 319.91C241.335 318.783 242.86 318.22 244.767 318.22C246.812 318.22 248.389 318.844 249.499 320.092C250.625 321.34 251.189 323.004 251.189 325.084V325.63C251.189 325.803 251.128 325.951 251.007 326.072C250.885 326.193 250.729 326.254 250.539 326.254H241.907V326.462C241.941 327.415 242.201 328.221 242.687 328.88C243.189 329.521 243.874 329.842 244.741 329.842C245.763 329.842 246.587 329.443 247.211 328.646C247.367 328.455 247.488 328.334 247.575 328.282C247.679 328.23 247.826 328.204 248.017 328.204H250.253C250.409 328.204 250.539 328.256 250.643 328.36C250.764 328.447 250.825 328.559 250.825 328.698C250.825 329.114 250.573 329.608 250.071 330.18C249.585 330.735 248.883 331.22 247.965 331.636C247.046 332.052 245.98 332.26 244.767 332.26ZM247.653 324.07V323.992C247.653 322.969 247.393 322.146 246.873 321.522C246.37 320.898 245.668 320.586 244.767 320.586C243.865 320.586 243.163 320.898 242.661 321.522C242.158 322.146 241.907 322.969 241.907 323.992V324.07H247.653ZM257.874 332.26C256.99 332.26 256.176 332.087 255.43 331.74C254.702 331.376 254.122 330.891 253.688 330.284C253.272 329.677 253.064 329.01 253.064 328.282C253.064 327.103 253.541 326.15 254.494 325.422C255.448 324.694 256.756 324.2 258.42 323.94L261.982 323.42V322.874C261.982 322.111 261.792 321.539 261.41 321.158C261.029 320.777 260.414 320.586 259.564 320.586C258.992 320.586 258.524 320.699 258.16 320.924C257.814 321.132 257.536 321.34 257.328 321.548C257.12 321.773 256.982 321.921 256.912 321.99C256.843 322.198 256.713 322.302 256.522 322.302H254.52C254.364 322.302 254.226 322.25 254.104 322.146C254 322.042 253.948 321.903 253.948 321.73C253.966 321.297 254.174 320.803 254.572 320.248C254.988 319.693 255.621 319.217 256.47 318.818C257.32 318.419 258.36 318.22 259.59 318.22C261.636 318.22 263.126 318.679 264.062 319.598C264.998 320.517 265.466 321.721 265.466 323.212V331.376C265.466 331.549 265.406 331.697 265.284 331.818C265.18 331.939 265.033 332 264.842 332H262.736C262.563 332 262.416 331.939 262.294 331.818C262.173 331.697 262.112 331.549 262.112 331.376V330.362C261.731 330.917 261.185 331.376 260.474 331.74C259.781 332.087 258.914 332.26 257.874 332.26ZM258.758 329.79C259.712 329.79 260.492 329.478 261.098 328.854C261.705 328.23 262.008 327.32 262.008 326.124V325.578L259.408 325.994C258.403 326.15 257.64 326.401 257.12 326.748C256.618 327.095 256.366 327.519 256.366 328.022C256.366 328.577 256.6 329.01 257.068 329.322C257.536 329.634 258.1 329.79 258.758 329.79ZM269.426 332C269.253 332 269.105 331.939 268.984 331.818C268.863 331.697 268.802 331.549 268.802 331.376V319.13C268.802 318.957 268.863 318.809 268.984 318.688C269.105 318.549 269.253 318.48 269.426 318.48H271.532C271.723 318.48 271.879 318.541 272 318.662C272.121 318.783 272.182 318.939 272.182 319.13V320.196C272.598 319.641 273.118 319.217 273.742 318.922C274.383 318.627 275.111 318.48 275.926 318.48H276.992C277.183 318.48 277.33 318.541 277.434 318.662C277.555 318.766 277.616 318.913 277.616 319.104V320.976C277.616 321.149 277.555 321.297 277.434 321.418C277.33 321.539 277.183 321.6 276.992 321.6H274.964C274.149 321.6 273.508 321.834 273.04 322.302C272.572 322.77 272.338 323.411 272.338 324.226V331.376C272.338 331.549 272.277 331.697 272.156 331.818C272.035 331.939 271.879 332 271.688 332H269.426ZM285.316 332.26C283.409 332.26 281.884 331.731 280.74 330.674C279.613 329.617 279.015 328.152 278.946 326.28L278.92 325.24L278.946 324.2C279.015 322.328 279.613 320.863 280.74 319.806C281.884 318.749 283.409 318.22 285.316 318.22C286.668 318.22 287.812 318.463 288.748 318.948C289.701 319.433 290.403 320.031 290.854 320.742C291.322 321.435 291.573 322.094 291.608 322.718C291.625 322.891 291.565 323.039 291.426 323.16C291.305 323.281 291.157 323.342 290.984 323.342H288.696C288.523 323.342 288.384 323.307 288.28 323.238C288.193 323.151 288.107 323.013 288.02 322.822C287.76 322.146 287.413 321.661 286.98 321.366C286.564 321.071 286.027 320.924 285.368 320.924C284.484 320.924 283.791 321.21 283.288 321.782C282.785 322.337 282.517 323.186 282.482 324.33L282.456 325.292L282.482 326.15C282.551 328.421 283.513 329.556 285.368 329.556C286.044 329.556 286.59 329.409 287.006 329.114C287.422 328.819 287.76 328.334 288.02 327.658C288.107 327.467 288.193 327.337 288.28 327.268C288.384 327.181 288.523 327.138 288.696 327.138H290.984C291.157 327.138 291.305 327.199 291.426 327.32C291.565 327.441 291.625 327.589 291.608 327.762C291.573 328.369 291.331 329.019 290.88 329.712C290.429 330.405 289.736 331.003 288.8 331.506C287.864 332.009 286.703 332.26 285.316 332.26ZM294.97 332C294.796 332 294.649 331.939 294.528 331.818C294.406 331.697 294.346 331.549 294.346 331.376V314.164C294.346 313.973 294.406 313.826 294.528 313.722C294.649 313.601 294.796 313.54 294.97 313.54H297.284C297.474 313.54 297.622 313.601 297.726 313.722C297.847 313.826 297.908 313.973 297.908 314.164V320.092C298.948 318.844 300.352 318.22 302.12 318.22C303.714 318.22 304.988 318.749 305.942 319.806C306.895 320.846 307.372 322.267 307.372 324.07V331.376C307.372 331.549 307.311 331.697 307.19 331.818C307.086 331.939 306.938 332 306.748 332H304.408C304.234 332 304.087 331.939 303.966 331.818C303.844 331.697 303.784 331.549 303.784 331.376V324.226C303.784 323.203 303.532 322.415 303.03 321.86C302.544 321.288 301.834 321.002 300.898 321.002C299.979 321.002 299.251 321.288 298.714 321.86C298.176 322.432 297.908 323.221 297.908 324.226V331.376C297.908 331.549 297.847 331.697 297.726 331.818C297.622 331.939 297.474 332 297.284 332H294.97Z" fill="white"/>
<path d="M354.5 157.334H405.5C407.157 157.334 408.5 158.677 408.5 160.334V212.334C408.5 213.991 407.157 215.334 405.5 215.334H354.5V157.334Z" fill="#E9ECEF"/>
<path d="M381.5 188.334C380.511 188.334 379.544 188.041 378.722 187.491C377.9 186.942 377.259 186.161 376.881 185.247C376.502 184.334 376.403 183.328 376.596 182.359C376.789 181.389 377.265 180.498 377.964 179.798C378.664 179.099 379.555 178.623 380.525 178.43C381.494 178.237 382.5 178.336 383.413 178.715C384.327 179.093 385.108 179.734 385.657 180.556C386.207 181.378 386.5 182.345 386.5 183.334C386.498 184.66 385.971 185.93 385.034 186.868C384.096 187.805 382.826 188.332 381.5 188.334ZM381.5 180.334C380.907 180.334 380.327 180.51 379.833 180.84C379.34 181.169 378.955 181.638 378.728 182.186C378.501 182.734 378.442 183.337 378.558 183.919C378.673 184.501 378.959 185.036 379.379 185.455C379.798 185.875 380.333 186.161 380.915 186.276C381.497 186.392 382.1 186.333 382.648 186.106C383.196 185.879 383.665 185.494 383.994 185.001C384.324 184.507 384.5 183.927 384.5 183.334C384.499 182.539 384.183 181.776 383.62 181.214C383.058 180.651 382.295 180.335 381.5 180.334Z" fill="#5B5B5B"/>
<path d="M381.5 200.334L373.064 190.385C372.947 190.236 372.831 190.085 372.716 189.934C371.275 188.036 370.497 185.717 370.5 183.334C370.5 180.417 371.659 177.619 373.722 175.556C375.785 173.493 378.583 172.334 381.5 172.334C384.417 172.334 387.215 173.493 389.278 175.556C391.341 177.619 392.5 180.417 392.5 183.334C392.504 185.716 391.725 188.034 390.285 189.931L390.284 189.934C390.284 189.934 389.984 190.328 389.939 190.381L381.5 200.334ZM374.312 188.729C374.314 188.729 374.546 189.037 374.599 189.103L381.5 197.242L388.41 189.092C388.454 189.037 388.688 188.727 388.689 188.726C389.866 187.175 390.502 185.281 390.5 183.334C390.5 180.947 389.552 178.658 387.864 176.97C386.176 175.282 383.887 174.334 381.5 174.334C379.113 174.334 376.824 175.282 375.136 176.97C373.448 178.658 372.5 180.947 372.5 183.334C372.498 185.282 373.135 187.177 374.313 188.729H374.312Z" fill="#5B5B5B"/>
<path fill-rule="evenodd" clip-rule="evenodd" d="M80.5 337.375C84.3125 337.375 87.9688 335.86 90.6647 333.165C93.3605 330.469 94.875 326.812 94.875 323C94.875 319.188 93.3605 315.531 90.6647 312.835C87.9688 310.14 84.3125 308.625 80.5 308.625C76.6875 308.625 73.0312 310.14 70.3353 312.835C67.6395 315.531 66.125 319.188 66.125 323C66.125 326.812 67.6395 330.469 70.3353 333.165C73.0312 335.86 76.6875 337.375 80.5 337.375ZM72.4141 317.609C72.1758 317.609 71.9473 317.704 71.7788 317.873C71.6103 318.041 71.5156 318.27 71.5156 318.508C71.5156 318.746 71.6103 318.975 71.7788 319.143C71.9473 319.312 72.1758 319.406 72.4141 319.406H88.5859C88.8242 319.406 89.0527 319.312 89.2212 319.143C89.3897 318.975 89.4844 318.746 89.4844 318.508C89.4844 318.27 89.3897 318.041 89.2212 317.873C89.0527 317.704 88.8242 317.609 88.5859 317.609H72.4141ZM75.1094 323.898C75.1094 323.66 75.204 323.432 75.3725 323.263C75.541 323.095 75.7695 323 76.0078 323H84.9922C85.2305 323 85.459 323.095 85.6275 323.263C85.796 323.432 85.8906 323.66 85.8906 323.898C85.8906 324.137 85.796 324.365 85.6275 324.534C85.459 324.702 85.2305 324.797 84.9922 324.797H76.0078C75.7695 324.797 75.541 324.702 75.3725 324.534C75.204 324.365 75.1094 324.137 75.1094 323.898ZM78.7031 329.289C78.7031 329.051 78.7978 328.822 78.9663 328.654C79.1348 328.485 79.3633 328.391 79.6016 328.391H81.3984C81.6367 328.391 81.8652 328.485 82.0337 328.654C82.2022 328.822 82.2969 329.051 82.2969 329.289C82.2969 329.527 82.2022 329.756 82.0337 329.924C81.8652 330.093 81.6367 330.188 81.3984 330.188H79.6016C79.3633 330.188 79.1348 330.093 78.9663 329.924C78.7978 329.756 78.7031 329.527 78.7031 329.289Z" fill="#4B4747"/>
</svg>
