<svg width="79" height="79" viewBox="0 0 79 79" fill="none" xmlns="http://www.w3.org/2000/svg">
<circle cx="39.5" cy="39.5" r="39.5" fill="#F8BD00"/>
<path d="M30.2222 28C26.0056 28 22.5556 31.45 22.5556 35.6667C22.5556 38.2018 23.8039 40.4583 25.7104 41.8562C22.3409 43.5276 20 46.9929 20 51H22.5556C22.5556 46.7527 25.9749 43.3333 30.2222 43.3333C34.4696 43.3333 37.8889 46.7527 37.8889 51H40.4444C40.4444 46.7527 43.8638 43.3333 48.1111 43.3333C52.3584 43.3333 55.7778 46.7527 55.7778 51H58.3333C58.3333 46.9916 55.9924 43.5276 52.6229 41.8562C53.5985 41.1453 54.3927 40.2143 54.9408 39.1389C55.489 38.0634 55.7758 36.8738 55.7778 35.6667C55.7778 31.45 52.3278 28 48.1111 28C43.8944 28 40.4444 31.45 40.4444 35.6667C40.4444 38.2018 41.6928 40.4583 43.5993 41.8562C41.7324 42.7741 40.187 44.2357 39.1667 46.0486C38.1463 44.2357 36.601 42.7741 34.7341 41.8562C35.7096 41.1453 36.5038 40.2143 37.052 39.1389C37.6001 38.0634 37.8869 36.8738 37.8889 35.6667C37.8889 31.45 34.4389 28 30.2222 28ZM30.2222 30.5556C33.0627 30.5556 35.3333 32.8262 35.3333 35.6667C35.3333 38.5072 33.0627 40.7778 30.2222 40.7778C27.3817 40.7778 25.1111 38.5072 25.1111 35.6667C25.1111 32.8262 27.3817 30.5556 30.2222 30.5556ZM48.1111 30.5556C50.9516 30.5556 53.2222 32.8262 53.2222 35.6667C53.2222 38.5072 50.9516 40.7778 48.1111 40.7778C45.2706 40.7778 43 38.5072 43 35.6667C43 32.8262 45.2706 30.5556 48.1111 30.5556Z" fill="white"/>
</svg>
