<svg width="346" height="208" viewBox="0 0 346 208" fill="none" xmlns="http://www.w3.org/2000/svg">
<path d="M92.1292 0C54.1259 0 23.0323 31.0936 23.0323 69.0969C23.0323 91.9449 34.2836 112.282 51.4657 124.881C21.0976 139.944 0 171.176 0 207.291H23.0323C23.0323 169.011 53.8495 138.194 92.1292 138.194C130.409 138.194 161.226 169.011 161.226 207.291H184.258C184.258 169.011 215.076 138.194 253.355 138.194C291.635 138.194 322.452 169.011 322.452 207.291H345.484C345.484 171.165 324.387 139.944 294.019 124.881C302.811 118.474 309.969 110.083 314.909 100.391C319.85 90.6978 322.434 79.9762 322.452 69.0969C322.452 31.0936 291.358 0 253.355 0C215.352 0 184.258 31.0936 184.258 69.0969C184.258 91.9449 195.51 112.282 212.692 124.881C195.866 133.154 181.938 146.326 172.742 162.666C163.546 146.326 149.619 133.154 132.793 124.881C141.585 118.474 148.743 110.083 153.683 100.391C158.624 90.6978 161.208 79.9762 161.226 69.0969C161.226 31.0936 130.132 0 92.1292 0ZM92.1292 23.0323C117.73 23.0323 138.194 43.4965 138.194 69.0969C138.194 94.6973 117.73 115.161 92.1292 115.161C66.5288 115.161 46.0646 94.6973 46.0646 69.0969C46.0646 43.4965 66.5288 23.0323 92.1292 23.0323ZM253.355 23.0323C278.956 23.0323 299.42 43.4965 299.42 69.0969C299.42 94.6973 278.956 115.161 253.355 115.161C227.755 115.161 207.291 94.6973 207.291 69.0969C207.291 43.4965 227.755 23.0323 253.355 23.0323Z" fill="white"/>
</svg>
