<svg width="69" height="68" viewBox="0 0 69 68" fill="none" xmlns="http://www.w3.org/2000/svg">
<path d="M67.1039 30.0091L38.9432 1.84558C37.8621 0.770772 36.3996 0.16748 34.8751 0.16748C33.3506 0.16748 31.8881 0.770772 30.807 1.84558L2.64636 30.0091C1.57155 31.0902 0.968262 32.5527 0.968262 34.0772C0.968262 35.6017 1.57155 37.0642 2.64636 38.1453L30.8099 66.306C33.0466 68.5427 36.7036 68.5427 38.9461 66.306L67.1096 38.1425C68.1813 37.0608 68.7825 35.5998 68.7825 34.0772C68.7825 32.5546 68.1813 31.0936 67.1096 30.012L67.1039 30.0091ZM32.5837 15.3293C33.2162 14.648 34.0212 14.3058 35.0102 14.3058C35.9992 14.3058 36.8042 14.6451 37.4367 15.3207C38.0692 15.9963 38.3855 16.8445 38.3855 17.8651C38.3855 18.7448 38.098 21.6975 37.5144 26.7258C36.9394 31.7571 36.4219 36.6158 35.9906 41.3078H33.9292C33.5411 36.613 33.0667 31.7542 32.4917 26.7258C31.9225 21.6946 31.635 18.7448 31.635 17.8651C31.635 16.8588 31.9512 16.0193 32.5837 15.3351V15.3293ZM37.5575 52.1868C36.8445 52.8768 35.9964 53.2218 35.0102 53.2218C34.0241 53.2218 33.176 52.8768 32.4659 52.1868C31.7557 51.4911 31.4021 50.6516 31.4021 49.6655C31.4021 48.6793 31.7557 47.8312 32.4659 47.1211C33.1789 46.4081 34.027 46.0516 35.0131 46.0516C35.9992 46.0516 36.8474 46.4081 37.5575 47.1211C38.2762 47.8312 38.6299 48.6793 38.6299 49.6655C38.6299 50.6516 38.2734 51.4911 37.5604 52.184L37.5575 52.1868Z" fill="black"/>
</svg>
