<svg width="89" height="89" viewBox="0 0 89 89" fill="none" xmlns="http://www.w3.org/2000/svg">
<path d="M44.5 89C36.446 89 29.0003 87.0155 22.1631 83.0464C15.3258 79.0773 9.92269 73.6742 5.95361 66.8369C1.98454 59.9997 0 52.554 0 44.5C0 36.446 1.98454 29.0003 5.95361 22.1631C9.92269 15.3258 15.3258 9.92269 22.1631 5.95361C29.0003 1.98454 36.446 0 44.5 0C52.554 0 59.9997 1.98454 66.8369 5.95361C73.6742 9.92269 79.0773 15.3258 83.0464 22.1631C87.0155 29.0003 89 36.446 89 44.5C89 52.554 87.0155 59.9997 83.0464 66.8369C79.0773 73.6742 73.6742 79.0773 66.8369 83.0464C59.9997 87.0155 52.554 89 44.5 89ZM11.5596 39.1113C11.2699 41.0814 11.125 42.8776 11.125 44.5C11.125 52.7279 13.7759 59.9272 19.0776 66.0981C24.3794 72.269 30.9993 76.0208 38.9375 77.3535V60.666C34.0703 59.681 30.0723 57.6965 26.9434 54.7124C23.8145 51.7284 22.25 48.3242 22.25 44.5C22.25 43.9206 22.3079 43.3122 22.4238 42.6748C17.9043 41.8057 14.2829 40.6178 11.5596 39.1113ZM44.5 11.125C38.2422 11.125 32.4914 12.7329 27.2476 15.9487C22.0037 19.1646 17.9333 23.4378 15.0361 28.7686C21.9313 31.8395 31.7526 33.375 44.5 33.375C57.2474 33.375 67.0687 31.8395 73.9639 28.7686C71.0667 23.4378 66.9963 19.1646 61.7524 15.9487C56.5086 12.7329 50.7578 11.125 44.5 11.125ZM66.5762 42.6748C66.6921 43.3122 66.75 43.9206 66.75 44.5C66.75 48.3242 65.1855 51.7428 62.0566 54.7559C58.9277 57.7689 54.9297 59.7389 50.0625 60.666V77.3535C58.0007 76.0208 64.6206 72.269 69.9224 66.0981C75.2241 59.9272 77.875 52.7279 77.875 44.5C77.875 42.8776 77.7301 41.0814 77.4404 39.1113C74.7751 40.6178 71.1536 41.8057 66.5762 42.6748Z" fill="#5B5B5B"/>
</svg>
