<?xml version="1.0" encoding="UTF-8"?>
<svg width="230px" height="334px" viewBox="0 0 230 334" version="1.1" xmlns="http://www.w3.org/2000/svg" xmlns:xlink="http://www.w3.org/1999/xlink">
    <!-- Generator: Sketch 52.6 (67491) - http://www.bohemiancoding.com/sketch -->
    <title>Group 6</title>
    <desc>Created with Sketch.</desc>
    <defs>
        <rect id="path-1" x="0" y="0" width="229.056695" height="333.852925"></rect>
    </defs>
    <g id="Main-file" stroke="none" stroke-width="1" fill="none" fill-rule="evenodd">
        <g id="6-View-More-Details-Ride-hailing-Driver" transform="translate(-541.000000, -197.000000)">
            <g id="Group-6" transform="translate(541.000000, 197.000000)">
                <g id="Bitmap-Copy-6">
                    <mask id="mask-2" fill="white">
                        <use xlink:href="#path-1"></use>
                    </mask>
                    <use id="Mask" fill="#D8D8D8" xlink:href="#path-1"></use>
                </g>
                <g id="user-(2)" transform="translate(48.000000, 68.000000)" fill="#C9C9C9">
                    <path d="M134,151.593655 C134,142.374897 128.770955,133.945103 120.496455,129.824276 L91.4062727,115.331586 C87.6481818,113.45931 85.2727273,109.629793 85.2727273,105.442207 L85.2727273,94.0689655 C86.0889091,93.1434483 87.0269091,91.9508966 88.0258182,90.5428966 C91.991,84.9655172 94.9877273,78.8267586 97.0677727,72.3845517 C100.798455,71.2405517 103.545455,67.8055172 103.545455,63.7241379 L103.545455,51.5862069 C103.545455,48.9158621 102.354682,46.5277241 100.5,44.8587586 L100.5,27.3103448 C100.5,27.3103448 104.114955,0 67,0 C29.882,0 33.5,27.3103448 33.5,27.3103448 L33.5,44.8587586 C31.6453182,46.5277241 30.4545455,48.9158621 30.4545455,51.5862069 L30.4545455,63.7241379 C30.4545455,66.9224828 32.1417273,69.7354483 34.6664091,71.361931 C37.7088182,84.568 45.6818182,94.0689655 45.6818182,94.0689655 L45.6818182,105.16 C45.6818182,109.204966 43.4647273,112.928276 39.8985,114.864276 L12.73,129.633103 C4.88186364,133.896552 0,142.09269 0,150.998897 L0,157.793103 C0,157.793103 0,159.786759 0,160.827586 C0,169.205793 29.9977273,176 67,176 C104.002273,176 134,169.205793 134,160.827586 C134,159.786759 134,157.793103 134,157.793103 L134,151.593655 Z" id="Path"></path>
                </g>
            </g>
        </g>
    </g>
</svg>