<svg width="30" height="29" viewBox="0 0 30 29" fill="none" xmlns="http://www.w3.org/2000/svg">
<path fill-rule="evenodd" clip-rule="evenodd" d="M14.7578 28.9717C18.5703 28.9717 22.2266 27.4572 24.9225 24.7613C27.6183 22.0655 29.1328 18.4092 29.1328 14.5967C29.1328 10.7842 27.6183 7.12786 24.9225 4.43202C22.2266 1.73618 18.5703 0.22168 14.7578 0.22168C10.9453 0.22168 7.28899 1.73618 4.59315 4.43202C1.89732 7.12786 0.382813 10.7842 0.382812 14.5967C0.382813 18.4092 1.89732 22.0655 4.59315 24.7613C7.28899 27.4572 10.9453 28.9717 14.7578 28.9717ZM6.67188 9.20605C6.43359 9.20605 6.20507 9.30071 6.03658 9.4692C5.86809 9.63769 5.77344 9.86621 5.77344 10.1045C5.77344 10.3428 5.86809 10.5713 6.03658 10.7398C6.20507 10.9083 6.43359 11.0029 6.67188 11.0029H22.8438C23.082 11.0029 23.3106 10.9083 23.479 10.7398C23.6475 10.5713 23.7422 10.3428 23.7422 10.1045C23.7422 9.86621 23.6475 9.63769 23.479 9.4692C23.3106 9.30071 23.082 9.20605 22.8438 9.20605H6.67188ZM9.36719 15.4951C9.36719 15.2568 9.46184 15.0283 9.63033 14.8598C9.79882 14.6913 10.0273 14.5967 10.2656 14.5967H19.25C19.4883 14.5967 19.7168 14.6913 19.8853 14.8598C20.0538 15.0283 20.1484 15.2568 20.1484 15.4951C20.1484 15.7334 20.0538 15.9619 19.8853 16.1304C19.7168 16.2989 19.4883 16.3936 19.25 16.3936H10.2656C10.0273 16.3936 9.79882 16.2989 9.63033 16.1304C9.46184 15.9619 9.36719 15.7334 9.36719 15.4951ZM12.9609 20.8857C12.9609 20.6475 13.0556 20.4189 13.2241 20.2505C13.3926 20.082 13.6211 19.9873 13.8594 19.9873H15.6562C15.8945 19.9873 16.1231 20.082 16.2915 20.2505C16.46 20.4189 16.5547 20.6475 16.5547 20.8857C16.5547 21.124 16.46 21.3525 16.2915 21.521C16.1231 21.6895 15.8945 21.7842 15.6562 21.7842H13.8594C13.6211 21.7842 13.3926 21.6895 13.2241 21.521C13.0556 21.3525 12.9609 21.124 12.9609 20.8857Z" fill="#4B4747"/>
</svg>
