<svg width="23" height="26" viewBox="0 0 23 26" fill="none" xmlns="http://www.w3.org/2000/svg">
<path d="M21.3881 25.7188H1.54121C1.21223 25.7188 0.89672 25.5881 0.664095 25.3554C0.431469 25.1228 0.300781 24.8073 0.300781 24.4783V2.15059C0.300781 1.8216 0.431469 1.5061 0.664095 1.27347C0.89672 1.04084 1.21223 0.910156 1.54121 0.910156H21.3881C21.7171 0.910156 22.0326 1.04084 22.2652 1.27347C22.4978 1.5061 22.6285 1.8216 22.6285 2.15059V24.4783C22.6285 24.8073 22.4978 25.1228 22.2652 25.3554C22.0326 25.5881 21.7171 25.7188 21.3881 25.7188ZM20.1477 23.2379V3.39102H2.78164V23.2379H20.1477ZM5.2625 5.87187H10.2242V10.8336H5.2625V5.87187ZM5.2625 13.3145H17.6668V15.7953H5.2625V13.3145ZM5.2625 18.2762H17.6668V20.757H5.2625V18.2762ZM12.7051 7.1123H17.6668V9.59316H12.7051V7.1123Z" fill="#FFBB00"/>
</svg>
