<svg width="29" height="23" viewBox="0 0 29 23" fill="none" xmlns="http://www.w3.org/2000/svg">
<path d="M27.2774 4.0411H20.2055V1.01028L19.1952 0H9.09248L8.08221 1.01028V4.0411H1.01028L0 5.05138V21.2158L1.01028 22.2261H27.2774L28.2877 21.2158V5.05138L27.2774 4.0411ZM10.1028 2.02055H18.185V4.0411H10.1028V2.02055ZM26.2672 6.06165V7.59727L18.185 12.1233V11.113L17.1949 10.1028H11.1332L10.1028 11.113V12.1233L2.02055 7.49625V6.06165H26.2672ZM16.1644 12.1233V14.1439H12.1233V12.1233H16.1644ZM2.02055 20.2055V9.81988L10.1028 14.4469V15.1541L11.113 16.1644H17.1747L18.185 15.1541V14.5278L26.2672 9.92091V20.2055H2.02055Z" fill="#FFBB00"/>
</svg>
