<?xml version="1.0" encoding="UTF-8"?>
<svg width="15px" height="15px" viewBox="0 0 15 15" version="1.1" xmlns="http://www.w3.org/2000/svg" xmlns:xlink="http://www.w3.org/1999/xlink">
    <!-- Generator: Sketch 52.6 (67491) - http://www.bohemiancoding.com/sketch -->
    <title>call [#191]</title>
    <desc>Created with Sketch.</desc>
    <g id="Main-file" stroke="none" stroke-width="1" fill="none" fill-rule="evenodd">
        <g id="5-Search-Results" transform="translate(-319.000000, -420.000000)" fill="#F8BD00">
            <path d="M326.500065,426.000122 L326.500065,427.500153 L328.000052,427.500153 C328.000052,426.671386 327.328808,426.000122 326.500065,426.000122 M326.500065,423.000061 L326.500065,424.500092 C328.154551,424.500092 329.500039,425.845619 329.500039,427.500153 L331.000026,427.500153 C331.000026,425.014602 328.985544,423.000061 326.500065,423.000061 M326.500065,420 L326.500065,421.500031 C329.808287,421.500031 332.500013,424.191835 332.500013,427.500153 L334,427.500153 C334,423.357818 330.642279,420 326.500065,420 M329.989035,433.675779 C329.980785,433.699029 329.980035,433.702779 329.989035,433.675779 M329.587789,431.683738 C329.066543,431.403232 328.539298,431.083726 327.994052,430.860971 C326.940312,430.431213 327.011561,431.701739 326.259318,432.113497 C325.770322,432.381252 325.080328,431.895992 324.653582,431.627487 C323.908088,431.157977 323.247344,430.539965 322.698349,429.8252 C322.417101,429.459943 321.796107,428.772929 321.872606,428.260668 C321.994105,427.447652 322.955596,427.407151 322.680349,426.412631 C322.53335,425.88012 322.270102,425.355859 322.072854,424.842849 C321.808856,424.155085 321.700107,423.714826 320.929864,423.752326 C320.373369,423.779327 320.004372,424.017082 319.662375,424.463341 C318.736883,425.668616 318.876382,427.293899 319.498127,428.616176 C320.378619,430.487464 321.887606,432.2515 323.499342,433.391523 C324.595832,434.167039 326.040319,434.871303 327.367808,434.990556 C328.339799,435.078307 329.699538,434.552547 330.047534,433.497275 C330.023535,433.570777 330.000285,433.642028 329.989035,433.675779 C329.997285,433.649528 330.015285,433.596277 330.047534,433.497275 C330.082784,433.390773 330.100034,433.337522 330.108284,433.313521 C330.097784,433.345022 330.073784,433.418524 330.048284,433.495025 C330.354282,432.565006 330.391781,432.116497 329.587789,431.683738 M330.108284,433.313521 C330.114284,433.295521 330.114284,433.294021 330.108284,433.313521" id="call-[#191]"></path>
        </g>
    </g>
</svg>