<svg width="19" height="23" viewBox="0 0 19 23" fill="none" xmlns="http://www.w3.org/2000/svg">
<circle cx="9.354" cy="11.2617" r="8.85303" fill="#3B3B3B"/>
<path d="M9.07352 16.4117C7.69352 16.4117 6.62352 16.0567 5.86352 15.3467C5.11352 14.6367 4.71352 13.6367 4.66352 12.3467C4.65352 12.0767 4.64852 11.6367 4.64852 11.0267C4.64852 10.4067 4.65352 9.95672 4.66352 9.67672C4.71352 8.39672 5.11852 7.40172 5.87852 6.69172C6.64852 5.97172 7.71352 5.61172 9.07352 5.61172C9.96352 5.61172 10.7385 5.76672 11.3985 6.07672C12.0585 6.37672 12.5685 6.79172 12.9285 7.32172C13.2885 7.84172 13.4785 8.43172 13.4985 9.09172V9.12172C13.4985 9.20172 13.4635 9.27172 13.3935 9.33172C13.3335 9.38172 13.2635 9.40672 13.1835 9.40672H11.7585C11.6385 9.40672 11.5485 9.38172 11.4885 9.33172C11.4285 9.28172 11.3785 9.18672 11.3385 9.04672C11.1785 8.41672 10.9135 7.97672 10.5435 7.72672C10.1735 7.46672 9.67852 7.33672 9.05852 7.33672C7.61852 7.33672 6.86852 8.14172 6.80852 9.75172C6.79852 10.0217 6.79352 10.4367 6.79352 10.9967C6.79352 11.5567 6.79852 11.9817 6.80852 12.2717C6.86852 13.8817 7.61852 14.6867 9.05852 14.6867C9.67852 14.6867 10.1735 14.5567 10.5435 14.2967C10.9235 14.0367 11.1885 13.5967 11.3385 12.9767C11.3685 12.8367 11.4135 12.7417 11.4735 12.6917C11.5435 12.6417 11.6385 12.6167 11.7585 12.6167H13.1835C13.2735 12.6167 13.3485 12.6467 13.4085 12.7067C13.4785 12.7667 13.5085 12.8417 13.4985 12.9317C13.4785 13.5917 13.2885 14.1867 12.9285 14.7167C12.5685 15.2367 12.0585 15.6517 11.3985 15.9617C10.7385 16.2617 9.96352 16.4117 9.07352 16.4117Z" fill="white"/>
</svg>
