<svg width="55" height="27" viewBox="0 0 55 27" fill="none" xmlns="http://www.w3.org/2000/svg">
<path d="M27.0467 17.841C44.407 17.0951 50.8273 6.24427 52.5846 1.52788C53.1389 0.0403106 54.8909 1.12218 53.6699 3.15068C49.069 12.7282 40.5537 18.6726 27.0467 19.3735C13.5398 18.6726 5.02438 12.7282 0.423466 3.15068C-0.797485 1.12218 0.954483 0.0403106 1.50876 1.52788C3.2661 6.24427 9.68635 17.0951 27.0467 17.841Z" fill="white"/>
<path d="M15.4655 11.7899C13.7019 14.4946 16.0081 16.5231 18.45 15.1707C18.45 15.1707 22.2485 9.08522 22.6555 8.81474C22.9269 9.08522 24.6905 14.765 24.6905 14.765C25.8549 16.4345 26.8676 16.993 29.3029 16.5231C29.3029 16.5231 35.0007 14.6298 35.9504 14.765C36.2217 15.1707 31.7449 23.8257 31.7449 23.8257C30.5239 26.3951 33.3728 27.8827 34.7294 25.9894L41.5125 11.7899C42.4621 8.13858 39.7489 6.24531 36.9 7.19194L28.6246 9.76138L26.0471 3.67587C24.5548 1.51214 21.7059 1.91784 20.6206 3.67587L15.4655 11.7899Z" fill="white"/>
<ellipse cx="44.2254" cy="4.48724" rx="3.5272" ry="3.6513" fill="white"/>
</svg>
