<svg width="25" height="26" viewBox="0 0 25 26" fill="none" xmlns="http://www.w3.org/2000/svg">
<path d="M23.293 5.43262H19.293V2.93262C19.293 1.82949 18.3961 0.932617 17.293 0.932617H7.29297C6.18984 0.932617 5.29297 1.82949 5.29297 2.93262V5.43262H1.29297C0.739844 5.43262 0.292969 5.87949 0.292969 6.43262V7.43262C0.292969 7.57012 0.405469 7.68262 0.542969 7.68262H2.43047L3.20234 24.0264C3.25234 25.092 4.13359 25.9326 5.19922 25.9326H19.3867C20.4555 25.9326 21.3336 25.0951 21.3836 24.0264L22.1555 7.68262H24.043C24.1805 7.68262 24.293 7.57012 24.293 7.43262V6.43262C24.293 5.87949 23.8461 5.43262 23.293 5.43262ZM7.54297 3.18262H17.043V5.43262H7.54297V3.18262ZM19.1461 23.6826H5.43984L4.68359 7.68262H19.9023L19.1461 23.6826Z" fill="#6B6565"/>
</svg>
