<svg width="19" height="23" viewBox="0 0 19 23" fill="none" xmlns="http://www.w3.org/2000/svg">
<circle cx="9.55908" cy="11.3259" r="8.85303" fill="#279F2C"/>
<path d="M5.58859 16.3259C5.48859 16.3259 5.40359 16.2909 5.33359 16.2209C5.26359 16.1509 5.22859 16.0659 5.22859 15.9659V6.20093C5.22859 6.09093 5.25859 6.00093 5.31859 5.93093C5.38859 5.86093 5.47859 5.82593 5.58859 5.82593H9.24859C12.1886 5.82593 13.6886 7.18593 13.7486 9.90593C13.7686 10.4859 13.7786 10.8759 13.7786 11.0759C13.7786 11.2659 13.7686 11.6509 13.7486 12.2309C13.7086 13.6309 13.3336 14.6659 12.6236 15.3359C11.9136 15.9959 10.8136 16.3259 9.32359 16.3259H5.58859ZM9.24859 14.6009C10.0886 14.6009 10.6936 14.4159 11.0636 14.0459C11.4336 13.6659 11.6286 13.0459 11.6486 12.1859C11.6686 11.5859 11.6786 11.2109 11.6786 11.0609C11.6786 10.9009 11.6686 10.5309 11.6486 9.95093C11.6286 9.13093 11.4186 8.52593 11.0186 8.13593C10.6286 7.74593 10.0136 7.55093 9.17359 7.55093H7.31359V14.6009H9.24859Z" fill="white"/>
</svg>
