<?xml version="1.0" encoding="UTF-8"?>
<svg width="15px" height="15px" viewBox="0 0 15 15" version="1.1" xmlns="http://www.w3.org/2000/svg" xmlns:xlink="http://www.w3.org/1999/xlink">
    <!-- Generator: Sketch 52.6 (67491) - http://www.bohemiancoding.com/sketch -->
    <title>profile_round [#1342]</title>
    <desc>Created with Sketch.</desc>
    <g id="Main-file" stroke="none" stroke-width="1" fill="none" fill-rule="evenodd">
        <g id="5-Search-Results" transform="translate(-319.000000, -449.000000)" fill="#F8BD00">
            <path d="M331.421911,462.499998 L321.578628,462.499998 C321.048835,462.499998 320.657615,461.977248 320.857436,461.496497 C321.784574,459.273495 323.962698,457.999993 326.499887,457.999993 C329.037841,457.999993 331.215965,459.273495 332.143103,461.496497 C332.342924,461.977248 331.951704,462.499998 331.421911,462.499998 M323.437498,453.499988 C323.437498,451.845486 324.811745,450.499984 326.499887,450.499984 C328.188794,450.499984 329.562275,451.845486 329.562275,453.499988 C329.562275,455.15449 328.188794,456.499991 326.499887,456.499991 C324.811745,456.499991 323.437498,455.15449 323.437498,453.499988 M333.966756,462.226998 C333.410167,459.707745 331.669199,457.848493 329.377767,457.004742 C330.592004,456.046991 331.300181,454.498239 331.039878,452.802487 C330.738233,450.835235 329.0677,449.260983 327.051117,449.031483 C324.267406,448.714232 321.906304,450.836735 321.906304,453.499988 C321.906304,454.91749 322.576967,456.180491 323.622773,457.004742 C321.330575,457.848493 319.590373,459.707745 319.033018,462.226998 C318.8309,463.142749 319.584248,464 320.540479,464 L332.459295,464 C333.416291,464 334.169639,463.142749 333.966756,462.226998" id="profile_round-[#1342]"></path>
        </g>
    </g>
</svg>