<svg width="36" height="37" viewBox="0 0 36 37" fill="none" xmlns="http://www.w3.org/2000/svg">
<circle cx="18.2569" cy="18.4688" r="16.8223" stroke="#914A9C" stroke-width="1.43168"/>
<path d="M28.9274 9.51633C28.8298 9.50628 28.7315 9.50628 28.6339 9.51633H8.59033C8.46187 9.51831 8.33426 9.53757 8.21094 9.5736L18.5549 19.8746L28.9274 9.51633Z" fill="#914A9C"/>
<path d="M29.9851 10.5117L19.5624 20.8914C19.2942 21.1581 18.9313 21.3078 18.5531 21.3078C18.1749 21.3078 17.812 21.1581 17.5438 20.8914L7.21417 10.5905C7.18242 10.7072 7.16558 10.8274 7.16406 10.9484V25.2652C7.16406 25.6449 7.3149 26.0091 7.58339 26.2776C7.85189 26.5461 8.21604 26.6969 8.59575 26.6969H28.6393C29.019 26.6969 29.3832 26.5461 29.6517 26.2776C29.9202 26.0091 30.071 25.6449 30.071 25.2652V10.9484C30.0653 10.7992 30.0363 10.6519 29.9851 10.5117ZM9.57645 25.2652H8.58143V24.2416L13.7856 19.0803L14.7949 20.0897L9.57645 25.2652ZM28.625 25.2652H27.6228L22.4043 20.0897L23.4137 19.0803L28.6178 24.2416L28.625 25.2652Z" fill="#914A9C"/>
</svg>
