<svg width="19" height="23" viewBox="0 0 19 23" fill="none" xmlns="http://www.w3.org/2000/svg">
<circle cx="9.354" cy="11.543" r="8.85303" fill="#914A9C"/>
<path d="M5.38352 16.543C5.28352 16.543 5.19852 16.508 5.12852 16.438C5.05852 16.368 5.02352 16.283 5.02352 16.183V6.41797C5.02352 6.30797 5.05352 6.21797 5.11352 6.14797C5.18352 6.07797 5.27352 6.04297 5.38352 6.04297H11.9835C12.0935 6.04297 12.1835 6.07797 12.2535 6.14797C12.3235 6.21797 12.3585 6.30797 12.3585 6.41797V7.40797C12.3585 7.51797 12.3235 7.60797 12.2535 7.67797C12.1835 7.73797 12.0935 7.76797 11.9835 7.76797H7.04852V10.423H11.6535C11.7635 10.423 11.8535 10.458 11.9235 10.528C11.9935 10.588 12.0285 10.673 12.0285 10.783V11.713C12.0285 11.823 11.9935 11.913 11.9235 11.983C11.8535 12.043 11.7635 12.073 11.6535 12.073H7.04852V14.818H12.1035C12.2135 14.818 12.3035 14.853 12.3735 14.923C12.4435 14.993 12.4785 15.083 12.4785 15.193V16.183C12.4785 16.293 12.4435 16.383 12.3735 16.453C12.3035 16.513 12.2135 16.543 12.1035 16.543H5.38352Z" fill="white"/>
</svg>
