<svg width="26" height="23" viewBox="0 0 26 23" fill="none" xmlns="http://www.w3.org/2000/svg">
<path d="M10.1188 11.8334C13.0216 11.8334 15.3822 9.47276 15.3822 6.57001C15.3822 3.66726 13.0216 1.30664 10.1188 1.30664C7.21607 1.30664 4.85545 3.66726 4.85545 6.57001C4.85545 9.47276 7.21607 11.8334 10.1188 11.8334ZM12.0926 13.1492H8.14505C3.79093 13.1492 0.25 16.6902 0.25 21.0443V22.3601H19.9876V21.0443C19.9876 16.6902 16.4467 13.1492 12.0926 13.1492Z" fill="#FFBB00"/>
<path d="M19.4688 10.5808C20.2702 9.21502 20.6163 7.62972 20.457 6.05426C20.2214 3.70679 18.9109 1.63171 16.7687 0.211914L15.3147 2.40411C16.7871 3.38046 17.6832 4.77131 17.8384 6.31742C17.91 7.036 17.8206 7.76151 17.5766 8.44117C17.3326 9.12083 16.9402 9.73757 16.4279 10.2465L14.8594 11.815L16.9884 12.44C22.5571 14.0717 22.6215 19.6719 22.6215 19.7285H25.2532C25.2532 17.3744 23.9953 12.7743 19.4688 10.5808Z" fill="#FFBB00"/>
</svg>
