<svg width="23" height="17" viewBox="0 0 23 17" fill="none" xmlns="http://www.w3.org/2000/svg">
<path d="M21.4599 8.49083C20.4931 4.11981 19.038 1.78684 16.8797 1.14958C16.426 1.0165 15.9553 0.95001 15.4825 0.952201C14.8576 0.952201 14.3133 1.10445 13.7376 1.26582C13.0438 1.46046 12.2556 1.68154 11.1065 1.68154C9.95732 1.68154 9.16872 1.46091 8.47357 1.26627C7.89739 1.10445 7.35358 0.952201 6.73045 0.952201C6.24153 0.950506 5.75475 1.01678 5.28408 1.14912C3.13709 1.78365 1.68297 4.11571 0.702009 8.48809C-0.352798 13.1932 0.1664 16.1639 2.15795 16.8532C2.43094 16.9494 2.71818 16.999 3.00763 16.9999C4.37195 16.9999 5.46596 15.8635 6.21353 14.9332C7.0582 13.8802 8.04691 13.3459 11.1065 13.3459C13.8392 13.3459 14.9702 13.7165 15.947 14.9332C16.561 15.6981 17.1413 16.2332 17.7202 16.5701C18.4901 17.0177 19.2596 17.1171 20.0067 16.8604C21.1837 16.4589 21.8583 15.3972 22.0124 13.7042C22.1295 12.406 21.949 10.7007 21.4599 8.49083ZM8.91847 8.24559H7.45979V9.70427C7.45979 9.8977 7.38295 10.0832 7.24617 10.22C7.10939 10.3568 6.92388 10.4336 6.73045 10.4336C6.53702 10.4336 6.35151 10.3568 6.21473 10.22C6.07795 10.0832 6.00111 9.8977 6.00111 9.70427V8.24559H4.54243C4.349 8.24559 4.16349 8.16875 4.02671 8.03197C3.88994 7.89519 3.81309 7.70968 3.81309 7.51625C3.81309 7.32282 3.88994 7.13731 4.02671 7.00053C4.16349 6.86375 4.349 6.78691 4.54243 6.78691H6.00111V5.32823C6.00111 5.1348 6.07795 4.94929 6.21473 4.81251C6.35151 4.67574 6.53702 4.5989 6.73045 4.5989C6.92388 4.5989 7.10939 4.67574 7.24617 4.81251C7.38295 4.94929 7.45979 5.1348 7.45979 5.32823V6.78691H8.91847C9.1119 6.78691 9.29741 6.86375 9.43419 7.00053C9.57096 7.13731 9.64781 7.32282 9.64781 7.51625C9.64781 7.70968 9.57096 7.89519 9.43419 8.03197C9.29741 8.16875 9.1119 8.24559 8.91847 8.24559ZM12.7475 8.42792C12.5672 8.42792 12.3909 8.37446 12.241 8.27428C12.0911 8.1741 11.9742 8.03172 11.9052 7.86513C11.8362 7.69855 11.8182 7.51524 11.8533 7.33839C11.8885 7.16154 11.9753 6.9991 12.1028 6.8716C12.2303 6.7441 12.3928 6.65727 12.5696 6.62209C12.7465 6.58692 12.9298 6.60497 13.0964 6.67397C13.263 6.74298 13.4053 6.85983 13.5055 7.00975C13.6057 7.15968 13.6592 7.33594 13.6592 7.51625C13.6592 7.75804 13.5631 7.98993 13.3921 8.1609C13.2212 8.33187 12.9893 8.42792 12.7475 8.42792ZM14.7532 10.4336C14.5728 10.4336 14.3964 10.3801 14.2464 10.2798C14.0965 10.1795 13.9796 10.037 13.9107 9.87029C13.8418 9.70357 13.8238 9.52014 13.8592 9.34323C13.8946 9.16632 13.9816 9.00388 14.1093 8.87648C14.2371 8.74907 14.3997 8.66242 14.5767 8.6275C14.7537 8.59258 14.9371 8.61096 15.1036 8.68031C15.2702 8.74966 15.4124 8.86687 15.5123 9.01709C15.6122 9.16732 15.6653 9.3438 15.6649 9.52421C15.6642 9.76561 15.5679 9.99691 15.397 10.1674C15.2261 10.3379 14.9946 10.4336 14.7532 10.4336ZM14.7532 6.42224C14.5729 6.42224 14.3966 6.36877 14.2467 6.2686C14.0968 6.16842 13.9799 6.02604 13.9109 5.85945C13.8419 5.69286 13.8238 5.50956 13.859 5.33271C13.8942 5.15586 13.981 4.99342 14.1085 4.86592C14.236 4.73842 14.3985 4.65159 14.5753 4.61641C14.7522 4.58124 14.9355 4.59929 15.1021 4.66829C15.2686 4.7373 15.411 4.85415 15.5112 5.00407C15.6114 5.15399 15.6649 5.33026 15.6649 5.51057C15.6649 5.75236 15.5688 5.98425 15.3978 6.15522C15.2269 6.32619 14.995 6.42224 14.7532 6.42224ZM16.7589 8.42792C16.5785 8.42792 16.4023 8.37446 16.2524 8.27428C16.1024 8.1741 15.9856 8.03172 15.9166 7.86513C15.8476 7.69855 15.8295 7.51524 15.8647 7.33839C15.8999 7.16154 15.9867 6.9991 16.1142 6.8716C16.2417 6.7441 16.4042 6.65727 16.581 6.62209C16.7578 6.58692 16.9412 6.60497 17.1077 6.67397C17.2743 6.74298 17.4167 6.85983 17.5169 7.00975C17.6171 7.15968 17.6705 7.33594 17.6705 7.51625C17.6705 7.75804 17.5745 7.98993 17.4035 8.1609C17.2325 8.33187 17.0007 8.42792 16.7589 8.42792Z" fill="white"/>
</svg>
