<svg width="22" height="17" viewBox="0 0 22 17" fill="none" xmlns="http://www.w3.org/2000/svg">
<path d="M21.2919 7.53868C20.3251 3.16766 18.8701 0.83469 16.7117 0.19743C16.258 0.0643475 15.7874 -0.00213886 15.3145 5.24472e-05C14.6896 5.24472e-05 14.1453 0.152302 13.5696 0.313668C12.8758 0.50831 12.0877 0.729391 10.9385 0.729391C9.78935 0.729391 9.00075 0.508766 8.3056 0.314124C7.72942 0.152302 7.18561 5.24472e-05 6.56248 5.24472e-05C6.07356 -0.00164285 5.58678 0.0646318 5.11611 0.196974C2.96912 0.831499 1.515 3.16356 0.53404 7.53595C-0.520766 12.2411 -0.0015683 15.2118 1.98998 15.901C2.26297 15.9972 2.55021 16.0469 2.83966 16.0478C4.20398 16.0478 5.29799 14.9114 6.04556 13.981C6.89023 12.928 7.87894 12.3938 10.9385 12.3938C13.6713 12.3938 14.8022 12.7644 15.779 13.981C16.3931 14.7459 16.9733 15.2811 17.5522 15.6179C18.3222 16.0656 19.0916 16.1649 19.8387 15.9083C21.0157 15.5067 21.6903 14.4451 21.8444 12.7521C21.9616 11.4539 21.781 9.74858 21.2919 7.53868ZM8.7505 7.29344H7.29182V8.75212C7.29182 8.94555 7.21498 9.13106 7.0782 9.26784C6.94142 9.40462 6.75591 9.48146 6.56248 9.48146C6.36905 9.48146 6.18354 9.40462 6.04676 9.26784C5.90998 9.13106 5.83314 8.94555 5.83314 8.75212V7.29344H4.37446C4.18103 7.29344 3.99552 7.2166 3.85874 7.07982C3.72197 6.94304 3.64513 6.75753 3.64513 6.5641C3.64513 6.37067 3.72197 6.18516 3.85874 6.04838C3.99552 5.9116 4.18103 5.83476 4.37446 5.83476H5.83314V4.37609C5.83314 4.18265 5.90998 3.99714 6.04676 3.86037C6.18354 3.72359 6.36905 3.64675 6.56248 3.64675C6.75591 3.64675 6.94142 3.72359 7.0782 3.86037C7.21498 3.99714 7.29182 4.18265 7.29182 4.37609V5.83476H8.7505C8.94393 5.83476 9.12944 5.9116 9.26622 6.04838C9.403 6.18516 9.47984 6.37067 9.47984 6.5641C9.47984 6.75753 9.403 6.94304 9.26622 7.07982C9.12944 7.2166 8.94393 7.29344 8.7505 7.29344ZM12.5795 7.47578C12.3992 7.47578 12.223 7.42231 12.073 7.32213C11.9231 7.22196 11.8063 7.07957 11.7373 6.91298C11.6682 6.7464 11.6502 6.56309 11.6854 6.38624C11.7205 6.2094 11.8074 6.04695 11.9349 5.91945C12.0624 5.79195 12.2248 5.70512 12.4017 5.66995C12.5785 5.63477 12.7618 5.65282 12.9284 5.72183C13.095 5.79083 13.2374 5.90768 13.3376 6.0576C13.4377 6.20753 13.4912 6.38379 13.4912 6.5641C13.4912 6.80589 13.3952 7.03778 13.2242 7.20875C13.0532 7.37972 12.8213 7.47578 12.5795 7.47578ZM14.5852 9.48146C14.4048 9.48146 14.2284 9.42793 14.0785 9.32765C13.9285 9.22738 13.8117 9.08486 13.7427 8.91814C13.6738 8.75142 13.6559 8.568 13.6912 8.39109C13.7266 8.21418 13.8136 8.05174 13.9414 7.92433C14.0691 7.79692 14.2318 7.71027 14.4088 7.67535C14.5857 7.64043 14.7691 7.65881 14.9357 7.72816C15.1022 7.79752 15.2444 7.91472 15.3443 8.06495C15.4442 8.21517 15.4973 8.39165 15.4969 8.57206C15.4963 8.81346 15.4 9.04476 15.2291 9.21524C15.0581 9.38572 14.8266 9.48146 14.5852 9.48146ZM14.5852 5.47009C14.4049 5.47009 14.2286 5.41663 14.0787 5.31645C13.9288 5.21627 13.8119 5.07389 13.7429 4.9073C13.6739 4.74072 13.6559 4.55741 13.6911 4.38056C13.7262 4.20371 13.8131 4.04127 13.9406 3.91377C14.0681 3.78627 14.2305 3.69944 14.4074 3.66426C14.5842 3.62909 14.7675 3.64714 14.9341 3.71614C15.1007 3.78515 15.2431 3.902 15.3432 4.05192C15.4434 4.20185 15.4969 4.37811 15.4969 4.55842C15.4969 4.80021 15.4008 5.0321 15.2299 5.20307C15.0589 5.37404 14.827 5.47009 14.5852 5.47009ZM16.5909 7.47578C16.4106 7.47578 16.2343 7.42231 16.0844 7.32213C15.9345 7.22196 15.8176 7.07957 15.7486 6.91298C15.6796 6.7464 15.6616 6.56309 15.6967 6.38624C15.7319 6.2094 15.8187 6.04695 15.9462 5.91945C16.0737 5.79195 16.2362 5.70512 16.413 5.66995C16.5899 5.63477 16.7732 5.65282 16.9398 5.72183C17.1064 5.79083 17.2487 5.90768 17.3489 6.0576C17.4491 6.20753 17.5026 6.38379 17.5026 6.5641C17.5026 6.80589 17.4065 7.03778 17.2355 7.20875C17.0646 7.37972 16.8327 7.47578 16.5909 7.47578Z" fill="#5B5B5B"/>
</svg>
