<svg width="21" height="20" viewBox="0 0 21 20" fill="none" xmlns="http://www.w3.org/2000/svg">
<path d="M5.8158 7.81686H5.14474C4.22899 7.78377 3.31621 7.93923 2.46304 8.27359C1.60987 8.60796 0.834526 9.1141 0.185118 9.7606L0 9.97658V16.3632H3.14701V12.7379L3.57124 12.2597L3.76407 12.036C4.76828 11.0044 6.01848 10.2452 7.39701 9.83002C6.70683 9.30485 6.16249 8.61182 5.8158 7.81686Z" fill="#5B5B5B"/>
<path d="M20.7327 9.73717C20.0833 9.09066 19.3079 8.58452 18.4547 8.25016C17.6016 7.91579 16.6888 7.76033 15.773 7.79343C15.4922 7.79422 15.2116 7.80967 14.9323 7.83971C14.5791 8.5855 14.0496 9.2341 13.3896 9.72945C14.8613 10.1366 16.1945 10.9365 17.2463 12.0434L17.4391 12.2594L17.8556 12.7376V16.3706H20.8946V9.95314L20.7327 9.73717Z" fill="#5B5B5B"/>
<path d="M5.12116 6.31277H5.36027C5.24917 5.35883 5.41655 4.39312 5.84221 3.53221C6.26788 2.6713 6.93362 1.952 7.75909 1.46113C7.45987 1.00401 7.04705 0.632425 6.56107 0.382778C6.07509 0.13313 5.53261 0.0139742 4.98674 0.0369776C4.44087 0.0599811 3.91034 0.224355 3.44708 0.514005C2.98383 0.803654 2.60374 1.20865 2.34404 1.68933C2.08433 2.17001 1.95392 2.7099 1.96556 3.25612C1.9772 3.80235 2.1305 4.33619 2.41045 4.80537C2.6904 5.27455 3.0874 5.66298 3.56257 5.93263C4.03775 6.20228 4.5748 6.3439 5.12116 6.34362V6.31277Z" fill="#5B5B5B"/>
<path d="M15.4032 5.73419C15.4126 5.91147 15.4126 6.08912 15.4032 6.2664C15.5513 6.28987 15.7008 6.30276 15.8506 6.30497H15.9972C16.5411 6.27596 17.0683 6.10661 17.5274 5.81339C17.9864 5.52017 18.3617 5.11308 18.6168 4.63174C18.8718 4.15041 18.9979 3.61125 18.9827 3.06674C18.9675 2.52223 18.8116 1.99093 18.5301 1.52457C18.2486 1.05821 17.8512 0.672673 17.3765 0.405506C16.9018 0.138338 16.366 -0.00136032 15.8213 9.98466e-06C15.2765 0.00138029 14.7414 0.143773 14.2681 0.413326C13.7947 0.682878 13.3992 1.0704 13.1201 1.53818C13.8182 1.99398 14.3923 2.61595 14.7908 3.3483C15.1892 4.08065 15.3997 4.90046 15.4032 5.73419Z" fill="#5B5B5B"/>
<path d="M10.3433 9.1896C12.2475 9.1896 13.7912 7.64595 13.7912 5.74177C13.7912 3.83759 12.2475 2.29395 10.3433 2.29395C8.43915 2.29395 6.89551 3.83759 6.89551 5.74177C6.89551 7.64595 8.43915 9.1896 10.3433 9.1896Z" fill="#5B5B5B"/>
<path d="M10.5275 11.0255C9.52023 10.9848 8.51509 11.1483 7.57262 11.5062C6.63015 11.8641 5.76983 12.409 5.04342 13.108L4.85059 13.324V18.2065C4.8536 18.3655 4.88791 18.5224 4.95156 18.6682C5.01522 18.814 5.10697 18.9458 5.22157 19.0561C5.33618 19.1664 5.47139 19.253 5.61949 19.3111C5.76759 19.3691 5.92567 19.3974 6.08471 19.3944H14.9472C15.1063 19.3974 15.2644 19.3691 15.4125 19.3111C15.5606 19.253 15.6958 19.1664 15.8104 19.0561C15.925 18.9458 16.0167 18.814 16.0804 18.6682C16.144 18.5224 16.1784 18.3655 16.1814 18.2065V13.3394L15.9962 13.108C15.2745 12.4069 14.4172 11.8604 13.4768 11.5023C12.5365 11.1442 11.5329 10.982 10.5275 11.0255Z" fill="#5B5B5B"/>
</svg>
