<svg width="21" height="20" viewBox="0 0 21 20" fill="none" xmlns="http://www.w3.org/2000/svg">
<path d="M5.90564 7.9985H5.23459C4.31883 7.96541 3.40605 8.12087 2.55288 8.45523C1.69972 8.7896 0.92437 9.29574 0.274962 9.94225L0.0898438 10.1582V16.5448H3.23685V12.9196L3.66108 12.4413L3.85391 12.2177C4.85812 11.186 6.10833 10.4269 7.48686 10.0117C6.79667 9.48649 6.25234 8.79346 5.90564 7.9985Z" fill="white"/>
<path d="M20.8235 9.91881C20.1741 9.2723 19.3987 8.76616 18.5456 8.4318C17.6924 8.09743 16.7796 7.94197 15.8639 7.97507C15.583 7.97586 15.3024 7.99131 15.0231 8.02135C14.6699 8.76714 14.1405 9.41574 13.4805 9.91109C14.9521 10.3182 16.2853 11.1181 17.3371 12.2251L17.5299 12.441L17.9464 12.9193V16.5522H20.9855V10.1348L20.8235 9.91881Z" fill="white"/>
<path d="M5.211 6.49441H5.45011C5.33901 5.54047 5.50639 4.57476 5.93206 3.71385C6.35772 2.85295 7.02347 2.13364 7.84893 1.64277C7.54971 1.18565 7.13689 0.814066 6.65092 0.564418C6.16494 0.314771 5.62245 0.195615 5.07658 0.218618C4.53072 0.241622 4.00018 0.405996 3.53693 0.695645C3.07368 0.985294 2.69359 1.39029 2.43388 1.87097C2.17418 2.35165 2.04376 2.89154 2.0554 3.43777C2.06705 3.98399 2.22035 4.51783 2.5003 4.98701C2.78024 5.45619 3.17724 5.84462 3.65242 6.11427C4.12759 6.38392 4.66465 6.52554 5.211 6.52526V6.49441Z" fill="white"/>
<path d="M15.4921 5.91583C15.5015 6.09311 15.5015 6.27076 15.4921 6.44804C15.6401 6.47151 15.7896 6.4844 15.9395 6.48661H16.086C16.63 6.45761 17.1572 6.28825 17.6162 5.99503C18.0753 5.70181 18.4506 5.29472 18.7056 4.81339C18.9607 4.33206 19.0867 3.79289 19.0715 3.24838C19.0564 2.70387 18.9004 2.17257 18.619 1.70621C18.3375 1.23985 17.94 0.854314 17.4653 0.587147C16.9906 0.319979 16.4548 0.18028 15.9101 0.181651C15.3654 0.183021 14.8303 0.325414 14.357 0.594966C13.8836 0.864519 13.4881 1.25205 13.209 1.71982C13.9071 2.17562 14.4811 2.79759 14.8796 3.52994C15.2781 4.26229 15.4886 5.0821 15.4921 5.91583Z" fill="white"/>
<path d="M10.4322 9.37124C12.3364 9.37124 13.88 7.82759 13.88 5.92341C13.88 4.01923 12.3364 2.47559 10.4322 2.47559C8.52802 2.47559 6.98438 4.01923 6.98438 5.92341C6.98438 7.82759 8.52802 9.37124 10.4322 9.37124Z" fill="white"/>
<path d="M10.6184 11.2071C9.61105 11.1664 8.60591 11.33 7.66344 11.6879C6.72097 12.0458 5.86065 12.5906 5.13424 13.2897L4.94141 13.5057V18.3882C4.94442 18.5472 4.97873 18.7041 5.04238 18.8498C5.10604 18.9956 5.19779 19.1274 5.31239 19.2377C5.427 19.348 5.56221 19.4347 5.71031 19.4927C5.85841 19.5508 6.01649 19.5791 6.17553 19.576H15.0381C15.1971 19.5791 15.3552 19.5508 15.5033 19.4927C15.6514 19.4347 15.7866 19.348 15.9012 19.2377C16.0158 19.1274 16.1075 18.9956 16.1712 18.8498C16.2349 18.7041 16.2692 18.5472 16.2722 18.3882V13.5211L16.0871 13.2897C15.3654 12.5885 14.508 12.0421 13.5677 11.684C12.6273 11.3259 11.6237 11.1636 10.6184 11.2071Z" fill="white"/>
</svg>
