<svg width="23" height="22" viewBox="0 0 23 22" fill="none" xmlns="http://www.w3.org/2000/svg">
<path d="M6.25913 9.12579H5.53737C4.55243 9.09019 3.57068 9.2574 2.65305 9.61703C1.73542 9.97666 0.901487 10.521 0.203011 11.2164L0.00390625 11.4487V18.3178H3.3887V14.4187L3.84498 13.9043L4.05238 13.6637C5.13246 12.5541 6.47714 11.7376 7.95982 11.2911C7.21749 10.7262 6.63203 9.98081 6.25913 9.12579Z" fill="#FFBB00"/>
<path d="M22.3041 11.192C21.6056 10.4966 20.7717 9.95224 19.8541 9.59261C18.9364 9.23298 17.9547 9.06578 16.9697 9.10137C16.6676 9.10223 16.3658 9.11884 16.0655 9.15115C15.6856 9.9533 15.1161 10.6509 14.4062 11.1837C15.9891 11.6216 17.423 12.4819 18.5543 13.6725L18.7617 13.9048L19.2097 14.4191V18.3266H22.4783V11.4243L22.3041 11.192Z" fill="#FFBB00"/>
<path d="M5.51198 7.50885H5.76916C5.64967 6.48283 5.8297 5.44415 6.28752 4.5182C6.74535 3.59224 7.4614 2.81859 8.34923 2.29063C8.0274 1.79896 7.5834 1.39931 7.0607 1.1308C6.538 0.862286 5.95452 0.734127 5.36741 0.758869C4.7803 0.78361 4.20968 0.960404 3.71142 1.27194C3.21317 1.58347 2.80436 2.01907 2.52503 2.53607C2.24571 3.05307 2.10544 3.63375 2.11796 4.22125C2.13048 4.80875 2.29536 5.38292 2.59646 5.88755C2.89757 6.39218 3.32456 6.80996 3.83564 7.09998C4.34671 7.39001 4.92435 7.54233 5.51198 7.54203V7.50885Z" fill="#FFBB00"/>
<path d="M16.5728 6.8862C16.5829 7.07688 16.5829 7.26795 16.5728 7.45863C16.732 7.48387 16.8928 7.49773 17.054 7.50011H17.2116C17.7967 7.46891 18.3637 7.28676 18.8574 6.97139C19.3512 6.65601 19.7549 6.21816 20.0292 5.70046C20.3035 5.18276 20.4391 4.60286 20.4227 4.0172C20.4064 3.43155 20.2387 2.86011 19.9359 2.35851C19.6332 1.85691 19.2057 1.44225 18.6951 1.1549C18.1846 0.867541 17.6083 0.717287 17.0224 0.718761C16.4365 0.720235 15.861 0.873386 15.3519 1.16331C14.8428 1.45322 14.4174 1.87003 14.1172 2.37315C14.868 2.86339 15.4855 3.53236 15.9141 4.32004C16.3427 5.10772 16.569 5.98948 16.5728 6.8862Z" fill="#FFBB00"/>
<path d="M11.1302 10.6032C13.1783 10.6032 14.8385 8.94292 14.8385 6.89486C14.8385 4.8468 13.1783 3.18652 11.1302 3.18652C9.08215 3.18652 7.42188 4.8468 7.42188 6.89486C7.42188 8.94292 9.08215 10.6032 11.1302 10.6032Z" fill="#FFBB00"/>
<path d="M11.3286 12.5768C10.2451 12.533 9.16405 12.7089 8.15037 13.0939C7.13668 13.4788 6.21136 14.0648 5.43006 14.8167L5.22266 15.049V20.3004C5.22589 20.4715 5.2628 20.6402 5.33126 20.797C5.39973 20.9538 5.49841 21.0955 5.62167 21.2142C5.74494 21.3328 5.89037 21.426 6.04966 21.4884C6.20895 21.5509 6.37897 21.5813 6.55003 21.578H16.0822C16.2532 21.5813 16.4233 21.5509 16.5826 21.4884C16.7418 21.426 16.8873 21.3328 17.0105 21.2142C17.1338 21.0955 17.2325 20.9538 17.301 20.797C17.3694 20.6402 17.4063 20.4715 17.4096 20.3004V15.0656L17.2105 14.8167C16.4342 14.0625 15.5121 13.4748 14.5007 13.0897C13.4893 12.7045 12.4098 12.53 11.3286 12.5768Z" fill="#FFBB00"/>
</svg>
