<svg width="21" height="25" viewBox="0 0 21 25" fill="none" xmlns="http://www.w3.org/2000/svg">
<path d="M5.98438 24.1621H10.2344M14.4844 24.1621H10.2344M10.2344 24.1621V21.6621" stroke="#FFFDFD" stroke-width="1.2" stroke-linecap="round"/>
<rect x="5.58438" y="1.26211" width="9.8" height="16.8" rx="4.9" fill="#C4C4C4" stroke="#FFFDFD" stroke-width="1.2"/>
<path d="M18.4364 13.6614C18.1313 17.9049 16.3566 21.1543 10.6435 21.6494C10.5416 21.6582 10.4392 21.6623 10.3369 21.6588C9.48771 21.6302 5.28028 21.3529 3.48552 18.6621C2.27442 16.8464 1.97982 14.8479 1.93598 13.5527C1.90892 12.7532 2.57962 12.1623 3.37959 12.1623C4.26754 12.1624 4.96515 12.8869 5.10138 13.7644C5.43829 15.9345 6.65852 18.1621 10.4879 18.1621C14.2626 18.1621 15.1926 15.6884 15.4177 13.6591C15.509 12.836 16.1593 12.1624 16.9874 12.1623C17.8156 12.1623 18.4958 12.8353 18.4364 13.6614Z" stroke="#FFFDFD"/>
<path d="M19.4844 3.66211L0.984375 22.1621" stroke="#FFFDFD" stroke-width="1.2" stroke-linecap="round" stroke-linejoin="round"/>
</svg>
