<svg width="13" height="13" viewBox="0 0 13 13" fill="none" xmlns="http://www.w3.org/2000/svg">
<path d="M8.25858 6.1825L12.2276 2.21349C12.4108 2.03031 12.4108 1.73031 12.2276 1.5458L10.8192 0.137397C10.7304 0.0493805 10.6104 0 10.4853 0C10.3603 0 10.2403 0.0493805 10.1515 0.137397L6.18249 4.1064L2.21348 0.137397C2.12466 0.0493805 2.00468 0 1.87964 0C1.75459 0 1.63461 0.0493805 1.54579 0.137397L0.138716 1.5458C0.0948469 1.58962 0.0600456 1.64166 0.0363014 1.69895C0.0125572 1.75623 0.000335745 1.81763 0.000335745 1.87964C0.000335745 1.94165 0.0125572 2.00306 0.0363014 2.06034C0.0600456 2.11762 0.0948469 2.16967 0.138716 2.21349L4.10639 6.1825L0.137389 10.1515C-0.0457962 10.3347 -0.0457962 10.6347 0.137389 10.8192L1.54579 12.2276C1.63461 12.3156 1.75459 12.365 1.87964 12.365C2.00468 12.365 2.12466 12.3156 2.21348 12.2276L6.18249 8.25726L10.1515 12.2276C10.2403 12.3156 10.3603 12.365 10.4853 12.365C10.6104 12.365 10.7304 12.3156 10.8192 12.2276L12.2276 10.8192C12.4108 10.6347 12.4108 10.3347 12.2276 10.1515L8.25858 6.1825Z" fill="#696969"/>
</svg>
