<svg width="25" height="26" viewBox="0 0 25 26" fill="none" xmlns="http://www.w3.org/2000/svg">
<path fill-rule="evenodd" clip-rule="evenodd" d="M2.8831 15.4603H2.57053C1.91261 15.4603 1.28164 15.1989 0.81642 14.7337C0.351201 14.2685 0.0898438 13.6375 0.0898438 12.9796C0.0898437 12.3217 0.351201 11.6907 0.81642 11.2255C1.28164 10.7603 1.91261 10.4989 2.57053 10.4989H2.8831C3.11752 9.58851 3.47846 8.72895 3.94483 7.93885L3.72157 7.71683C3.25642 7.25136 2.99524 6.62016 2.99547 5.96211C2.9957 5.30406 3.25733 4.67305 3.72281 4.2079C4.18829 3.74275 4.81948 3.48156 5.47754 3.4818C6.13559 3.48203 6.7666 3.74366 7.23175 4.20914L7.45253 4.43116C8.25166 3.95852 9.11352 3.60108 10.0126 3.36943V3.05686C10.0126 2.39894 10.274 1.76797 10.7392 1.30275C11.2044 0.837529 11.8354 0.576172 12.4933 0.576172C13.1512 0.576172 13.7822 0.837529 14.2474 1.30275C14.7126 1.76797 14.974 2.39894 14.974 3.05686V3.36943C15.8844 3.60385 16.7439 3.96479 17.534 4.43116L17.7561 4.2079C18.2215 3.74275 18.8527 3.48156 19.5108 3.4818C19.8366 3.48191 20.1592 3.5462 20.4602 3.671C20.7612 3.7958 21.0347 3.97866 21.265 4.20914C21.4953 4.43962 21.678 4.71321 21.8026 5.01429C21.9272 5.31536 21.9912 5.63803 21.9911 5.96386C21.991 6.2897 21.9267 6.61232 21.8019 6.91331C21.6771 7.2143 21.4942 7.48776 21.2638 7.71807L21.0417 7.93885C21.5093 8.72895 21.869 9.58851 22.1035 10.4989H22.416C23.074 10.4989 23.7049 10.7603 24.1702 11.2255C24.6354 11.6907 24.8967 12.3217 24.8967 12.9796C24.8967 13.6375 24.6354 14.2685 24.1702 14.7337C23.7049 15.1989 23.074 15.4603 22.416 15.4603H22.1035C21.8718 16.3594 21.5144 17.2212 21.0417 18.0204L21.265 18.2424C21.4953 18.4729 21.678 18.7465 21.8026 19.0475C21.9272 19.3486 21.9912 19.6713 21.9911 19.9971C21.991 20.323 21.9267 20.6456 21.8019 20.9466C21.6771 21.2476 21.4942 21.521 21.2638 21.7513C21.0333 21.9816 20.7597 22.1643 20.4586 22.2889C20.1575 22.4135 19.8349 22.4775 19.509 22.4774C19.1832 22.4773 18.8606 22.413 18.5596 22.2882C18.2586 22.1634 17.9851 21.9806 17.7548 21.7501L17.534 21.5281C16.7349 22.0007 15.873 22.3581 14.974 22.5898V22.9024C14.974 23.5603 14.7126 24.1913 14.2474 24.6565C13.7822 25.1217 13.1512 25.3831 12.4933 25.3831C11.8354 25.3831 11.2044 25.1217 10.7392 24.6565C10.274 24.1913 10.0126 23.5603 10.0126 22.9024V22.5898C9.11352 22.3581 8.25166 22.0007 7.45253 21.5281L7.23051 21.7513C7.00002 21.9816 6.72644 22.1643 6.42536 22.2889C6.12428 22.4135 5.80162 22.4775 5.47578 22.4774C5.14995 22.4773 4.82733 22.413 4.52634 22.2882C4.22535 22.1634 3.95189 21.9806 3.72157 21.7501C3.49125 21.5196 3.30859 21.246 3.184 20.9449C3.05942 20.6439 2.99535 20.3212 2.99547 19.9954C2.99558 19.6695 3.05988 19.3469 3.18467 19.0459C3.30947 18.7449 3.49233 18.4715 3.72281 18.2412L3.94483 18.0204C3.47219 17.2212 3.11475 16.3594 2.8831 15.4603ZM8.77225 10.4989L6.29156 12.9796L11.2529 17.941L18.695 10.4989L16.2143 8.01824L11.2529 12.9796L8.77225 10.4989Z" fill="white"/>
</svg>
