<svg width="76" height="23" viewBox="0 0 76 23" fill="none" xmlns="http://www.w3.org/2000/svg">
<path d="M35.5147 16.693C34.2047 16.693 33.1897 16.353 32.4697 15.673C31.7597 14.983 31.3847 13.948 31.3447 12.568C31.3347 12.268 31.3297 11.843 31.3297 11.293C31.3297 10.743 31.3347 10.323 31.3447 10.033C31.3847 8.68297 31.7747 7.65797 32.5147 6.95797C33.2547 6.24797 34.2547 5.89297 35.5147 5.89297C36.7647 5.89297 37.7597 6.24797 38.4997 6.95797C39.2397 7.65797 39.6297 8.68297 39.6697 10.033C39.6897 10.613 39.6997 11.033 39.6997 11.293C39.6997 11.543 39.6897 11.968 39.6697 12.568C39.6297 13.948 39.2497 14.983 38.5297 15.673C37.8197 16.353 36.8147 16.693 35.5147 16.693ZM35.5147 15.418C36.3047 15.418 36.9347 15.178 37.4047 14.698C37.8747 14.218 38.1297 13.483 38.1697 12.493C38.1897 11.893 38.1997 11.493 38.1997 11.293C38.1997 11.073 38.1897 10.673 38.1697 10.093C38.1297 9.10297 37.8697 8.36797 37.3897 7.88797C36.9197 7.40797 36.2947 7.16797 35.5147 7.16797C34.7247 7.16797 34.0897 7.40797 33.6097 7.88797C33.1397 8.36797 32.8847 9.10297 32.8447 10.093C32.8347 10.383 32.8297 10.783 32.8297 11.293C32.8297 11.793 32.8347 12.193 32.8447 12.493C32.8847 13.483 33.1397 14.218 33.6097 14.698C34.0897 15.178 34.7247 15.418 35.5147 15.418ZM42.0361 16.543C41.9361 16.543 41.8511 16.513 41.7811 16.453C41.7211 16.383 41.6911 16.298 41.6911 16.198V9.08797C41.6911 8.98797 41.7211 8.90797 41.7811 8.84797C41.8511 8.77797 41.9361 8.74297 42.0361 8.74297H42.7411C42.8411 8.74297 42.9211 8.77797 42.9811 8.84797C43.0511 8.90797 43.0861 8.98797 43.0861 9.08797V9.74797C43.3761 9.37797 43.7161 9.09297 44.1061 8.89297C44.5061 8.69297 45.0011 8.59297 45.5911 8.59297C46.5511 8.59297 47.2961 8.90297 47.8261 9.52297C48.3661 10.133 48.6361 10.948 48.6361 11.968V16.198C48.6361 16.298 48.6011 16.383 48.5311 16.453C48.4711 16.513 48.3911 16.543 48.2911 16.543H47.5411C47.4411 16.543 47.3561 16.513 47.2861 16.453C47.2261 16.383 47.1961 16.298 47.1961 16.198V12.043C47.1961 11.333 47.0211 10.783 46.6711 10.393C46.3311 10.003 45.8361 9.80797 45.1861 9.80797C44.5561 9.80797 44.0561 10.008 43.6861 10.408C43.3161 10.798 43.1311 11.343 43.1311 12.043V16.198C43.1311 16.298 43.0961 16.383 43.0261 16.453C42.9661 16.513 42.8861 16.543 42.7861 16.543H42.0361ZM51.1477 16.543C51.0477 16.543 50.9627 16.513 50.8927 16.453C50.8327 16.383 50.8027 16.298 50.8027 16.198V6.23797C50.8027 6.13797 50.8327 6.05797 50.8927 5.99797C50.9627 5.92797 51.0477 5.89297 51.1477 5.89297H51.8527C51.9527 5.89297 52.0327 5.92797 52.0927 5.99797C52.1627 6.05797 52.1977 6.13797 52.1977 6.23797V16.198C52.1977 16.298 52.1627 16.383 52.0927 16.453C52.0327 16.513 51.9527 16.543 51.8527 16.543H51.1477ZM54.6602 7.28797C54.5602 7.28797 54.4752 7.25797 54.4052 7.19797C54.3452 7.12797 54.3152 7.04297 54.3152 6.94297V6.13297C54.3152 6.03297 54.3452 5.94797 54.4052 5.87797C54.4752 5.80797 54.5602 5.77297 54.6602 5.77297H55.6052C55.7052 5.77297 55.7902 5.80797 55.8602 5.87797C55.9302 5.94797 55.9652 6.03297 55.9652 6.13297V6.94297C55.9652 7.04297 55.9302 7.12797 55.8602 7.19797C55.7902 7.25797 55.7052 7.28797 55.6052 7.28797H54.6602ZM54.7802 16.543C54.6802 16.543 54.5952 16.513 54.5252 16.453C54.4652 16.383 54.4352 16.298 54.4352 16.198V9.08797C54.4352 8.98797 54.4652 8.90797 54.5252 8.84797C54.5952 8.77797 54.6802 8.74297 54.7802 8.74297H55.5002C55.6002 8.74297 55.6802 8.77797 55.7402 8.84797C55.8102 8.90797 55.8452 8.98797 55.8452 9.08797V16.198C55.8452 16.298 55.8102 16.383 55.7402 16.453C55.6802 16.513 55.6002 16.543 55.5002 16.543H54.7802ZM58.413 16.543C58.313 16.543 58.228 16.513 58.158 16.453C58.098 16.383 58.068 16.298 58.068 16.198V9.08797C58.068 8.98797 58.098 8.90797 58.158 8.84797C58.228 8.77797 58.313 8.74297 58.413 8.74297H59.118C59.218 8.74297 59.298 8.77797 59.358 8.84797C59.428 8.90797 59.463 8.98797 59.463 9.08797V9.74797C59.753 9.37797 60.093 9.09297 60.483 8.89297C60.883 8.69297 61.378 8.59297 61.968 8.59297C62.928 8.59297 63.673 8.90297 64.203 9.52297C64.743 10.133 65.013 10.948 65.013 11.968V16.198C65.013 16.298 64.978 16.383 64.908 16.453C64.848 16.513 64.768 16.543 64.668 16.543H63.918C63.818 16.543 63.733 16.513 63.663 16.453C63.603 16.383 63.573 16.298 63.573 16.198V12.043C63.573 11.333 63.398 10.783 63.048 10.393C62.708 10.003 62.213 9.80797 61.563 9.80797C60.933 9.80797 60.433 10.008 60.063 10.408C59.693 10.798 59.508 11.343 59.508 12.043V16.198C59.508 16.298 59.473 16.383 59.403 16.453C59.343 16.513 59.263 16.543 59.163 16.543H58.413ZM70.2847 16.693C69.2547 16.693 68.4297 16.378 67.8097 15.748C67.1997 15.108 66.8647 14.238 66.8047 13.138L66.7897 12.628L66.8047 12.133C66.8747 11.053 67.2147 10.193 67.8247 9.55297C68.4447 8.91297 69.2597 8.59297 70.2697 8.59297C71.3797 8.59297 72.2397 8.94797 72.8497 9.65797C73.4597 10.358 73.7647 11.308 73.7647 12.508V12.763C73.7647 12.863 73.7297 12.948 73.6597 13.018C73.5997 13.078 73.5197 13.108 73.4197 13.108H68.2297V13.243C68.2597 13.893 68.4547 14.448 68.8147 14.908C69.1847 15.358 69.6697 15.583 70.2697 15.583C70.7297 15.583 71.1047 15.493 71.3947 15.313C71.6947 15.123 71.9147 14.928 72.0547 14.728C72.1447 14.608 72.2097 14.538 72.2497 14.518C72.2997 14.488 72.3847 14.473 72.5047 14.473H73.2397C73.3297 14.473 73.4047 14.498 73.4647 14.548C73.5247 14.598 73.5547 14.668 73.5547 14.758C73.5547 14.978 73.4147 15.243 73.1347 15.553C72.8647 15.863 72.4797 16.133 71.9797 16.363C71.4897 16.583 70.9247 16.693 70.2847 16.693ZM72.3397 12.073V12.028C72.3397 11.338 72.1497 10.778 71.7697 10.348C71.3997 9.90797 70.8997 9.68797 70.2697 9.68797C69.6397 9.68797 69.1397 9.90797 68.7697 10.348C68.4097 10.778 68.2297 11.338 68.2297 12.028V12.073H72.3397Z" fill="#279F2C"/>
<path fill-rule="evenodd" clip-rule="evenodd" d="M5.94089 3.10032C6.18935 3.34885 6.32892 3.68589 6.32892 4.03732C6.32892 4.38874 6.18935 4.72578 5.94089 4.97432C5.07932 5.8358 4.39588 6.85856 3.92959 7.98419C3.46331 9.10981 3.22332 10.3163 3.22332 11.5346C3.22332 12.753 3.46331 13.9595 3.92959 15.0851C4.39588 16.2107 5.07932 17.2335 5.94089 18.095C6.06747 18.2172 6.16844 18.3635 6.2379 18.5252C6.30735 18.6869 6.34391 18.8608 6.34544 19.0368C6.34697 19.2127 6.31344 19.3872 6.2468 19.5501C6.18016 19.713 6.08175 19.861 5.95732 19.9854C5.83288 20.1098 5.6849 20.2083 5.52203 20.2749C5.35915 20.3415 5.18463 20.3751 5.00866 20.3735C4.83268 20.372 4.65877 20.3354 4.49708 20.266C4.33539 20.1965 4.18914 20.0956 4.06689 19.969C2.95927 18.8614 2.08065 17.5465 1.48121 16.0993C0.881771 14.6521 0.573242 13.1011 0.573242 11.5346C0.573242 9.96825 0.881771 8.41718 1.48121 6.97002C2.08065 5.52285 2.95927 4.20792 4.06689 3.10032C4.31542 2.85186 4.65246 2.71228 5.00389 2.71228C5.35532 2.71228 5.69236 2.85186 5.94089 3.10032ZM19.0616 3.10032C19.3101 2.85186 19.6471 2.71228 19.9986 2.71228C20.35 2.71228 20.687 2.85186 20.9356 3.10032C22.0432 4.20792 22.9218 5.52285 23.5212 6.97002C24.1207 8.41718 24.4292 9.96825 24.4292 11.5346C24.4292 13.1011 24.1207 14.6521 23.5212 16.0993C22.9218 17.5465 22.0432 18.8614 20.9356 19.969C20.8133 20.0956 20.6671 20.1965 20.5054 20.266C20.3437 20.3354 20.1698 20.372 19.9938 20.3735C19.8178 20.3751 19.6433 20.3415 19.4804 20.2749C19.3175 20.2083 19.1696 20.1098 19.0451 19.9854C18.9207 19.861 18.8223 19.713 18.7556 19.5501C18.689 19.3872 18.6555 19.2127 18.657 19.0368C18.6585 18.8608 18.6951 18.6869 18.7645 18.5252C18.834 18.3635 18.935 18.2172 19.0616 18.095C19.9231 17.2335 20.6066 16.2107 21.0728 15.0851C21.5391 13.9595 21.7791 12.753 21.7791 11.5346C21.7791 10.3163 21.5391 9.10981 21.0728 7.98419C20.6066 6.85856 19.9231 5.8358 19.0616 4.97432C18.8131 4.72578 18.6735 4.38874 18.6735 4.03732C18.6735 3.68589 18.8131 3.34885 19.0616 3.10032ZM9.69022 6.84832C9.93868 7.09685 10.0783 7.43389 10.0783 7.78532C10.0783 8.13675 9.93868 8.47379 9.69022 8.72232C9.32094 9.09153 9.02802 9.52987 8.82817 10.0123C8.62831 10.4947 8.52545 11.0118 8.52545 11.534C8.52545 12.0562 8.62831 12.5732 8.82817 13.0557C9.02802 13.5381 9.32094 13.9764 9.69022 14.3457C9.81327 14.4688 9.91086 14.615 9.97742 14.7758C10.044 14.9367 10.0782 15.109 10.0781 15.2831C10.0781 15.4572 10.0437 15.6296 9.97706 15.7904C9.91039 15.9512 9.81269 16.0973 9.68956 16.2203C9.56642 16.3434 9.42025 16.441 9.2594 16.5075C9.09855 16.5741 8.92616 16.6083 8.75209 16.6082C8.57801 16.6082 8.40564 16.5738 8.24484 16.5072C8.08404 16.4405 7.93794 16.3428 7.81489 16.2197C6.5726 14.977 5.87471 13.2918 5.87471 11.5346C5.87471 9.77751 6.5726 8.09232 7.81489 6.84965C7.93798 6.72642 8.08414 6.62867 8.24504 6.56197C8.40593 6.49528 8.57839 6.46095 8.75255 6.46095C8.92672 6.46095 9.09918 6.49528 9.26007 6.56197C9.42096 6.62867 9.56713 6.72642 9.69022 6.84965V6.84832ZM15.3122 6.84832C15.4353 6.7251 15.5815 6.62734 15.7424 6.56065C15.9033 6.49395 16.0757 6.45962 16.2499 6.45962C16.4241 6.45962 16.5965 6.49395 16.7574 6.56065C16.9183 6.62734 17.0645 6.7251 17.1875 6.84832C17.8031 7.46368 18.2913 8.19427 18.6245 8.99836C18.9576 9.80245 19.1291 10.6643 19.1291 11.5346C19.1291 12.405 18.9576 13.2669 18.6245 14.0709C18.2913 14.875 17.8031 15.6056 17.1875 16.221C16.9389 16.4697 16.6016 16.6094 16.2499 16.6094C15.8982 16.6094 15.5609 16.4697 15.3122 16.221C15.0635 15.9723 14.9238 15.635 14.9238 15.2833C14.9238 14.9316 15.0635 14.5943 15.3122 14.3457C16.0576 13.6 16.4763 12.5889 16.4763 11.5346C16.4763 10.4804 16.0576 9.46925 15.3122 8.72365C15.189 8.60056 15.0912 8.45439 15.0245 8.2935C14.9579 8.13261 14.9235 7.96015 14.9235 7.78598C14.9235 7.61182 14.9579 7.43936 15.0245 7.27846C15.0912 7.11757 15.189 6.97141 15.3122 6.84832ZM12.5012 10.2093C12.8527 10.2093 13.1898 10.349 13.4384 10.5975C13.6869 10.8461 13.8265 11.1832 13.8265 11.5346V11.5479C13.8265 11.8994 13.6869 12.2365 13.4384 12.485C13.1898 12.7336 12.8527 12.8732 12.5012 12.8732C12.1497 12.8732 11.8126 12.7336 11.5641 12.485C11.3155 12.2365 11.1759 11.8994 11.1759 11.5479V11.5346C11.1759 11.1832 11.3155 10.8461 11.5641 10.5975C11.8126 10.349 12.1497 10.2093 12.5012 10.2093Z" fill="#279F2C"/>
</svg>
