<svg width="18" height="23" viewBox="0 0 18 23" fill="none" xmlns="http://www.w3.org/2000/svg">
<circle cx="8.93408" cy="11.041" r="8.85303" fill="#15ACED"/>
<path d="M8.63859 16.191C7.27859 16.191 6.21859 15.846 5.45859 15.156C4.69859 14.466 4.29859 13.441 4.25859 12.081C4.24859 11.791 4.24359 11.366 4.24359 10.806C4.24359 10.236 4.24859 9.80602 4.25859 9.51602C4.29859 8.18602 4.70859 7.16602 5.48859 6.45601C6.26859 5.74601 7.31859 5.39102 8.63859 5.39102C9.95859 5.39102 11.0086 5.74601 11.7886 6.45601C12.5786 7.16602 12.9936 8.18602 13.0336 9.51602C13.0536 10.096 13.0636 10.526 13.0636 10.806C13.0636 11.076 13.0536 11.501 13.0336 12.081C12.9836 13.441 12.5786 14.466 11.8186 15.156C11.0586 15.846 9.99859 16.191 8.63859 16.191ZM8.63859 14.466C9.30859 14.466 9.84359 14.266 10.2436 13.866C10.6436 13.456 10.8586 12.836 10.8886 12.006C10.9086 11.406 10.9186 11.001 10.9186 10.791C10.9186 10.561 10.9086 10.156 10.8886 9.57602C10.8586 8.74602 10.6436 8.13102 10.2436 7.73102C9.84359 7.32102 9.30859 7.11602 8.63859 7.11602C7.97859 7.11602 7.44859 7.32102 7.04859 7.73102C6.64859 8.13102 6.43359 8.74602 6.40359 9.57602C6.39359 9.86602 6.38859 10.271 6.38859 10.791C6.38859 11.301 6.39359 11.706 6.40359 12.006C6.43359 12.836 6.64359 13.456 7.03359 13.866C7.43359 14.266 7.96859 14.466 8.63859 14.466Z" fill="white"/>
</svg>
