<svg width="36" height="36" viewBox="0 0 36 36" fill="none" xmlns="http://www.w3.org/2000/svg">
<path d="M18.2569 0.197266C8.57083 0.197266 0.71875 8.04935 0.71875 17.7354C0.71875 27.4214 8.57083 35.2735 18.2569 35.2735C27.9429 35.2735 35.795 27.4214 35.795 17.7354C35.795 8.04935 27.9429 0.197266 18.2569 0.197266ZM11.9541 7.1637C12.3155 7.14239 12.6421 7.35838 12.8897 7.74173L15.2875 12.289C15.5399 12.8278 15.3965 13.4047 15.0199 13.7897L13.9216 14.888C13.8538 14.9809 13.8092 15.0855 13.8081 15.2006C14.2293 16.8309 15.5069 18.3347 16.6341 19.3689C17.7613 20.403 18.9728 21.8032 20.5455 22.1349C20.7399 22.1891 20.978 22.2086 21.1171 22.0793L22.3931 20.7798C22.8335 20.4459 23.4707 20.2841 23.9409 20.5571H23.9623L28.289 23.1112C28.9241 23.5093 28.9899 24.2788 28.5352 24.7468L25.5552 27.7034C25.1151 28.1547 24.5304 28.3064 23.9624 28.3071C21.4501 28.2318 19.0763 26.9988 17.1265 25.7316C13.9261 23.4033 10.9905 20.5156 9.14743 17.0268C8.44058 15.5638 7.61024 13.6972 7.68948 12.0642C7.69656 11.4499 7.86276 10.8481 8.29537 10.4522L11.2755 7.47205C11.5076 7.27451 11.7373 7.17651 11.9541 7.1637Z" fill="#914A9C"/>
</svg>
