<svg width="30" height="24" viewBox="0 0 30 24" fill="none" xmlns="http://www.w3.org/2000/svg">
<path d="M28.2755 4.93661H21.2036V1.90578L20.1933 0.895508H10.0905L9.08025 1.90578V4.93661H2.00832L0.998047 5.94689V22.1113L2.00832 23.1216H28.2755L29.2858 22.1113V5.94689L28.2755 4.93661ZM11.1008 2.91606H19.183V4.93661H11.1008V2.91606ZM27.2652 6.95716V8.49278L19.183 13.0188V12.0085L18.1929 10.9983H12.1313L11.1008 12.0085V13.0188L3.0186 8.39175V6.95716H27.2652ZM17.1625 13.0188V15.0394H13.1214V13.0188H17.1625ZM3.0186 21.101V10.7154L11.1008 15.3425V16.0496L12.1111 17.0599H18.1727L19.183 16.0496V15.4233L27.2652 10.8164V21.101H3.0186Z" fill="white"/>
</svg>
