<svg width="185" height="186" viewBox="0 0 185 186" fill="none" xmlns="http://www.w3.org/2000/svg">
<path d="M182.884 85.1054H157.723C154.161 54.9613 130.255 31.0561 100.111 27.494V2.33276C100.111 1.42679 99.3701 0.685547 98.4642 0.685547H86.11C85.2041 0.685547 84.4628 1.42679 84.4628 2.33276V27.494C54.3188 31.0561 30.4135 54.9613 26.8514 85.1054H1.69019C0.784216 85.1054 0.0429688 85.8467 0.0429688 86.7526V99.1068C0.0429688 100.013 0.784216 100.754 1.69019 100.754H26.8514C30.4135 130.898 54.3188 154.803 84.4628 158.365V183.527C84.4628 184.433 85.2041 185.174 86.11 185.174H98.4642C99.3701 185.174 100.111 184.433 100.111 183.527V158.365C130.255 154.803 154.161 130.898 157.723 100.754H182.884C183.79 100.754 184.531 100.013 184.531 99.1068V86.7526C184.531 85.8467 183.79 85.1054 182.884 85.1054ZM92.2871 143.17C64.5315 143.17 42.047 120.685 42.047 92.9297C42.047 65.1741 64.5315 42.6896 92.2871 42.6896C120.043 42.6896 142.527 65.1741 142.527 92.9297C142.527 120.685 120.043 143.17 92.2871 143.17Z" fill="white"/>
<path d="M92.2864 68.2214C85.6769 68.2214 79.4999 70.7746 74.8259 75.4692C70.1519 80.1432 67.5781 86.3202 67.5781 92.9297C67.5781 99.5391 70.1519 105.716 74.8259 110.39C79.4999 115.044 85.6975 117.638 92.2864 117.638C98.8752 117.638 105.073 115.064 109.747 110.39C114.4 105.716 116.995 99.5186 116.995 92.9297C116.995 86.3408 114.421 80.1432 109.747 75.4692C105.073 70.7746 98.8958 68.2214 92.2864 68.2214Z" fill="white"/>
</svg>
