<svg width="25" height="25" viewBox="0 0 25 25" fill="none" xmlns="http://www.w3.org/2000/svg">
<path fill-rule="evenodd" clip-rule="evenodd" d="M2.79326 14.8841H2.48069C1.82277 14.8841 1.1918 14.6228 0.726577 14.1576C0.261357 13.6923 0 13.0614 0 12.4034C0 11.7455 0.261357 11.1146 0.726577 10.6493C1.1918 10.1841 1.82277 9.92275 2.48069 9.92275H2.79326C3.02768 9.01234 3.38862 8.15278 3.85499 7.36268L3.63173 7.14066C3.16658 6.67518 2.90539 6.04399 2.90562 5.38594C2.90586 4.72789 3.16749 4.09688 3.63297 3.63173C4.09845 3.16658 4.72964 2.90539 5.38769 2.90562C6.04574 2.90586 6.67675 3.16749 7.1419 3.63297L7.36268 3.85499C8.16182 3.38235 9.02368 3.02491 9.92275 2.79326V2.48069C9.92275 1.82277 10.1841 1.1918 10.6493 0.726577C11.1146 0.261357 11.7455 0 12.4034 0C13.0614 0 13.6923 0.261357 14.1576 0.726577C14.6228 1.1918 14.8841 1.82277 14.8841 2.48069V2.79326C15.7945 3.02768 16.6541 3.38862 17.4442 3.85499L17.6662 3.63173C18.1317 3.16658 18.7629 2.90539 19.4209 2.90562C19.7468 2.90574 20.0694 2.97003 20.3704 3.09483C20.6714 3.21963 20.9448 3.40249 21.1752 3.63297C21.4055 3.86345 21.5881 4.13704 21.7127 4.43811C21.8373 4.73919 21.9014 5.06186 21.9013 5.38769C21.9011 5.71353 21.8369 6.03615 21.7121 6.33714C21.5873 6.63812 21.4044 6.91158 21.1739 7.1419L20.9519 7.36268C21.4195 8.15278 21.7792 9.01234 22.0136 9.92275H22.3262C22.9841 9.92275 23.6151 10.1841 24.0803 10.6493C24.5455 11.1146 24.8069 11.7455 24.8069 12.4034C24.8069 13.0614 24.5455 13.6923 24.0803 14.1576C23.6151 14.6228 22.9841 14.8841 22.3262 14.8841H22.0136C21.782 15.7832 21.4245 16.6451 20.9519 17.4442L21.1752 17.6662C21.4055 17.8967 21.5881 18.1703 21.7127 18.4714C21.8373 18.7724 21.9014 19.0951 21.9013 19.4209C21.9011 19.7468 21.8369 20.0694 21.7121 20.3704C21.5873 20.6714 21.4044 20.9448 21.1739 21.1752C20.9434 21.4055 20.6698 21.5881 20.3688 21.7127C20.0677 21.8373 19.745 21.9014 19.4192 21.9013C19.0934 21.9011 18.7707 21.8369 18.4697 21.7121C18.1688 21.5873 17.8953 21.4044 17.665 21.1739L17.4442 20.9519C16.6451 21.4245 15.7832 21.782 14.8841 22.0136V22.3262C14.8841 22.9841 14.6228 23.6151 14.1576 24.0803C13.6923 24.5455 13.0614 24.8069 12.4034 24.8069C11.7455 24.8069 11.1146 24.5455 10.6493 24.0803C10.1841 23.6151 9.92275 22.9841 9.92275 22.3262V22.0136C9.02368 21.782 8.16182 21.4245 7.36268 20.9519L7.14066 21.1752C6.91018 21.4055 6.63659 21.5881 6.33552 21.7127C6.03444 21.8373 5.71177 21.9014 5.38594 21.9013C5.0601 21.9011 4.73748 21.8369 4.43649 21.7121C4.13551 21.5873 3.86205 21.4044 3.63173 21.1739C3.40141 20.9434 3.21874 20.6698 3.09416 20.3688C2.96957 20.0677 2.90551 19.745 2.90562 19.4192C2.90574 19.0934 2.97003 18.7707 3.09483 18.4697C3.21963 18.1688 3.40249 17.8953 3.63297 17.665L3.85499 17.4442C3.38235 16.6451 3.02491 15.7832 2.79326 14.8841ZM8.68241 9.92275L6.20172 12.4034L11.1631 17.3648L18.6052 9.92275L16.1245 7.44207L11.1631 12.4034L8.68241 9.92275Z" fill="#5B5B5B"/>
</svg>
