<?xml version="1.0" encoding="UTF-8"?>
<svg width="15px" height="15px" viewBox="0 0 15 15" version="1.1" xmlns="http://www.w3.org/2000/svg" xmlns:xlink="http://www.w3.org/1999/xlink">
    <!-- Generator: Sketch 52.6 (67491) - http://www.bohemiancoding.com/sketch -->
    <title>calendar [#1322]</title>
    <desc>Created with Sketch.</desc>
    <g id="Main-file" stroke="none" stroke-width="1" fill="none" fill-rule="evenodd">
        <g id="5-Search-Results" transform="translate(-319.000000, -536.000000)" fill="#F8BD00">
            <path d="M332.478435,542 L320.497604,542 L320.497604,539.72825 C320.497604,539.32625 320.823333,539 321.22469,539 L321.995208,539 L321.995208,540.5 L323.492812,540.5 L323.492812,539 L329.483227,539 L329.483227,540.5 L330.980831,540.5 L330.980831,539 L331.729633,539 C332.142971,539 332.478435,539.336 332.478435,539.75 L332.478435,542 Z M332.478435,548.75 C332.478435,549.1625 332.141474,549.5 331.729633,549.5 L321.246406,549.5 C320.833067,549.5 320.497604,549.164 320.497604,548.75 L320.497604,543.5 L332.478435,543.5 L332.478435,548.75 Z M319.047923,549.32075 C319.047923,550.14875 319.766024,551 320.592702,551 L332.573532,551 C333.400958,551 334,550.23425 334,549.32075 C334,549.029 333.976038,540.02 333.976038,539.531 C333.976038,537.9695 333.765625,537.5 330.980831,537.5 L330.980831,536 L329.483227,536 L329.483227,537.5 L323.492812,537.5 L323.492812,536 L321.995208,536 L321.995208,537.5 L320.497604,537.5 C319.673922,537.5 319,538.175 319,539 L319.047923,549.32075 Z" id="calendar-[#1322]"></path>
        </g>
    </g>
</svg>