<svg width="26" height="20" viewBox="0 0 26 20" fill="none" xmlns="http://www.w3.org/2000/svg">
<path d="M9.20919 19.4577L0.41108 10.7065C0.36034 10.656 0.320074 10.5961 0.292598 10.53C0.265121 10.4639 0.250977 10.3931 0.250977 10.3215C0.250977 10.25 0.265121 10.1791 0.292598 10.113C0.320074 10.047 0.36034 9.98697 0.41108 9.93652L2.6322 7.71293C2.84444 7.50069 3.18748 7.50069 3.39972 7.71293L9.19191 13.4706C9.40415 13.6828 9.74966 13.6803 9.9619 13.4681L22.7605 0.546107C22.9727 0.331398 23.3182 0.331398 23.533 0.543639L25.7565 2.76723C25.9688 2.97947 25.9688 3.32251 25.759 3.53475L11.8153 17.6043L11.8178 17.6068L9.97918 19.4553C9.76694 19.6675 9.42143 19.6675 9.20919 19.4577Z" fill="#FCB819"/>
</svg>
