<svg width="30" height="19" viewBox="0 0 30 19" fill="none" xmlns="http://www.w3.org/2000/svg">
<path d="M8.54219 0.845703C5.37625 0.845703 2.78594 3.43602 2.78594 6.60195C2.78594 8.50535 3.72325 10.1996 5.15463 11.2492C2.62476 12.504 0.867188 15.1059 0.867188 18.1145H2.78594C2.78594 14.9255 5.35323 12.3582 8.54219 12.3582C11.7312 12.3582 14.2984 14.9255 14.2984 18.1145H16.2172C16.2172 14.9255 18.7845 12.3582 21.9734 12.3582C25.1624 12.3582 27.7297 14.9255 27.7297 18.1145H29.6484C29.6484 15.1049 27.8909 12.504 25.361 11.2492C26.0935 10.7154 26.6897 10.0164 27.1013 9.20894C27.5129 8.40146 27.7282 7.50827 27.7297 6.60195C27.7297 3.43602 25.1394 0.845703 21.9734 0.845703C18.8075 0.845703 16.2172 3.43602 16.2172 6.60195C16.2172 8.50535 17.1545 10.1996 18.5859 11.2492C17.1842 11.9383 16.0239 13.0357 15.2578 14.3969C14.4917 13.0357 13.3315 11.9383 11.9297 11.2492C12.6622 10.7154 13.2585 10.0164 13.6701 9.20894C14.0816 8.40146 14.2969 7.50827 14.2984 6.60195C14.2984 3.43602 11.7081 0.845703 8.54219 0.845703ZM8.54219 2.76445C10.6749 2.76445 12.3797 4.46926 12.3797 6.60195C12.3797 8.73464 10.6749 10.4395 8.54219 10.4395C6.4095 10.4395 4.70469 8.73464 4.70469 6.60195C4.70469 4.46926 6.4095 2.76445 8.54219 2.76445ZM21.9734 2.76445C24.1061 2.76445 25.8109 4.46926 25.8109 6.60195C25.8109 8.73464 24.1061 10.4395 21.9734 10.4395C19.8407 10.4395 18.1359 8.73464 18.1359 6.60195C18.1359 4.46926 19.8407 2.76445 21.9734 2.76445Z" fill="#FFBB00"/>
</svg>
