<svg width="29" height="26" viewBox="0 0 29 26" fill="none" xmlns="http://www.w3.org/2000/svg">
<path d="M21.6703 12.4233C22.5548 10.916 22.9367 9.16633 22.7609 7.42752C22.501 4.83669 21.0545 2.54648 18.6902 0.979492L17.0855 3.39896C18.7106 4.47653 19.6996 6.01157 19.8709 7.71798C19.9499 8.51105 19.8512 9.31177 19.5819 10.0619C19.3126 10.812 18.8795 11.4927 18.3141 12.0544L16.583 13.7855L18.9328 14.4753C25.0787 16.2761 25.1499 22.457 25.1499 22.5194H28.0544C28.0544 19.9213 26.666 14.8442 21.6703 12.4233Z" fill="#FFBB00"/>
<path d="M11.3529 13.8056C14.5566 13.8056 17.1619 11.2002 17.1619 7.99654C17.1619 4.79285 14.5566 2.1875 11.3529 2.1875C8.1492 2.1875 5.54385 4.79285 5.54385 7.99654C5.54385 11.2002 8.1492 13.8056 11.3529 13.8056ZM11.3529 5.09202C12.9547 5.09202 14.2574 6.3947 14.2574 7.99654C14.2574 9.59838 12.9547 10.9011 11.3529 10.9011C9.75104 10.9011 8.44837 9.59838 8.44837 7.99654C8.44837 6.3947 9.75104 5.09202 11.3529 5.09202ZM13.5313 15.2578H9.17449C4.36897 15.2578 0.460938 19.1659 0.460938 23.9714V25.4237H3.36546V23.9714C3.36546 20.7677 5.97081 18.1624 9.17449 18.1624H13.5313C16.735 18.1624 19.3403 20.7677 19.3403 23.9714V25.4237H22.2448V23.9714C22.2448 19.1659 18.3368 15.2578 13.5313 15.2578Z" fill="#FFBB00"/>
</svg>
