<svg width="26" height="24" viewBox="0 0 26 24" fill="none" xmlns="http://www.w3.org/2000/svg">
<path d="M10.6266 12.5336C13.5294 12.5336 15.89 10.173 15.89 7.27021C15.89 4.36746 13.5294 2.00684 10.6266 2.00684C7.72388 2.00684 5.36326 4.36746 5.36326 7.27021C5.36326 10.173 7.72388 12.5336 10.6266 12.5336ZM12.6004 13.8494H8.65287C4.29874 13.8494 0.757812 17.3904 0.757812 21.7445V23.0603H20.4955V21.7445C20.4955 17.3904 16.9545 13.8494 12.6004 13.8494Z" fill="#FFBB00"/>
<path d="M19.9751 11.2809C20.7765 9.91522 21.1226 8.32992 20.9633 6.75445C20.7278 4.40699 19.4172 2.3319 17.275 0.912109L15.821 3.1043C17.2934 4.08066 18.1895 5.4715 18.3448 7.01762C18.4164 7.7362 18.3269 8.4617 18.0829 9.14137C17.8389 9.82103 17.4465 10.4378 16.9342 10.9467L15.3657 12.5152L17.4948 13.1402C23.0634 14.7719 23.1279 20.3721 23.1279 20.4287H25.7596C25.7596 18.0746 24.5016 13.4745 19.9751 11.2809Z" fill="#FFBB00"/>
</svg>
