<svg width="23" height="22" viewBox="0 0 23 22" fill="none" xmlns="http://www.w3.org/2000/svg">
<path d="M6.27866 9.38653H5.55691C4.57196 9.35093 3.59021 9.51814 2.67258 9.87777C1.75495 10.2374 0.921019 10.7818 0.222543 11.4771L0.0234375 11.7094V18.5786H3.40823V14.6794L3.86451 14.1651L4.07191 13.9245C5.152 12.8149 6.49667 11.9984 7.97935 11.5518C7.23702 10.9869 6.65156 10.2416 6.27866 9.38653Z" fill="#FFBB00"/>
<path d="M22.3226 11.4527C21.6242 10.7574 20.7902 10.213 19.8726 9.85335C18.955 9.49372 17.9732 9.32652 16.9883 9.36212C16.6862 9.36297 16.3844 9.37959 16.084 9.41189C15.7041 10.214 15.1347 10.9116 14.4248 11.4444C16.0077 11.8823 17.4416 12.7427 18.5728 13.9332L18.7802 14.1655L19.2282 14.6799V18.5873H22.4969V11.685L22.3226 11.4527Z" fill="#FFBB00"/>
<path d="M5.53103 7.76959H5.7882C5.66871 6.74357 5.84874 5.70489 6.30657 4.77894C6.76439 3.85298 7.48044 3.07933 8.36828 2.55137C8.04644 2.05971 7.60244 1.66005 7.07974 1.39154C6.55704 1.12303 5.97357 0.994869 5.38646 1.01961C4.79934 1.04435 4.22872 1.22115 3.73047 1.53268C3.23221 1.84422 2.8234 2.27981 2.54408 2.79681C2.26475 3.31381 2.12448 3.89449 2.137 4.48199C2.14952 5.06949 2.31441 5.64366 2.61551 6.14829C2.91661 6.65292 3.3436 7.0707 3.85468 7.36073C4.36576 7.65075 4.94339 7.80307 5.53103 7.80277V7.76959Z" fill="#FFBB00"/>
<path d="M16.5904 7.14694C16.6005 7.33762 16.6005 7.5287 16.5904 7.71937C16.7496 7.74461 16.9104 7.75847 17.0716 7.76085H17.2292C17.8142 7.72966 18.3812 7.5475 18.875 7.23213C19.3688 6.91675 19.7724 6.4789 20.0467 5.9612C20.3211 5.4435 20.4566 4.8636 20.4403 4.27795C20.424 3.69229 20.2562 3.12085 19.9535 2.61925C19.6508 2.11765 19.2233 1.70299 18.7127 1.41564C18.2021 1.12828 17.6259 0.978029 17.04 0.979503C16.4541 0.980977 15.8786 1.13413 15.3695 1.42405C14.8604 1.71397 14.435 2.13077 14.1348 2.63389C14.8856 3.12413 15.503 3.7931 15.9316 4.58078C16.3602 5.36846 16.5866 6.25022 16.5904 7.14694Z" fill="#FFBB00"/>
<path d="M11.1478 10.8639C13.1958 10.8639 14.8561 9.20366 14.8561 7.1556C14.8561 5.10754 13.1958 3.44727 11.1478 3.44727C9.09973 3.44727 7.43945 5.10754 7.43945 7.1556C7.43945 9.20366 9.09973 10.8639 11.1478 10.8639Z" fill="#FFBB00"/>
<path d="M11.3466 12.8375C10.2632 12.7938 9.18211 12.9697 8.16843 13.3546C7.15475 13.7395 6.22942 14.3256 5.44812 15.0774L5.24072 15.3097V20.5611C5.24396 20.7322 5.28086 20.9009 5.34933 21.0577C5.41779 21.2145 5.51648 21.3563 5.63974 21.4749C5.763 21.5936 5.90843 21.6868 6.06772 21.7492C6.22701 21.8116 6.39704 21.842 6.56809 21.8387H16.1003C16.2713 21.842 16.4413 21.8116 16.6006 21.7492C16.7599 21.6868 16.9053 21.5936 17.0286 21.4749C17.1519 21.3563 17.2506 21.2145 17.319 21.0577C17.3875 20.9009 17.4244 20.7322 17.4276 20.5611V15.3263L17.2285 15.0774C16.4523 14.3233 15.5302 13.7356 14.5188 13.3504C13.5073 12.9652 12.4279 12.7907 11.3466 12.8375Z" fill="#FFBB00"/>
</svg>
