<svg width="22" height="25" viewBox="0 0 22 25" fill="none" xmlns="http://www.w3.org/2000/svg">
<path fill-rule="evenodd" clip-rule="evenodd" d="M18.1328 0.0410156H4.38281C3.47113 0.0410156 2.59679 0.40318 1.95213 1.04784C1.30748 1.69249 0.945313 2.56683 0.945312 3.47852V20.666C0.945313 21.5777 1.30748 22.452 1.95213 23.0967C2.59679 23.7414 3.47113 24.1035 4.38281 24.1035H18.1328C19.0445 24.1035 19.9188 23.7414 20.5635 23.0967C21.2081 22.452 21.5703 21.5777 21.5703 20.666V3.47852C21.5703 2.56683 21.2081 1.69249 20.5635 1.04784C19.9188 0.40318 19.0445 0.0410156 18.1328 0.0410156ZM5.24219 3.47852C5.01427 3.47852 4.79568 3.56906 4.63452 3.73022C4.47335 3.89139 4.38281 4.10997 4.38281 4.33789C4.38281 4.56581 4.47335 4.7844 4.63452 4.94556C4.79568 5.10672 5.01427 5.19727 5.24219 5.19727H13.8359C14.0639 5.19727 14.2824 5.10672 14.4436 4.94556C14.6048 4.7844 14.6953 4.56581 14.6953 4.33789C14.6953 4.10997 14.6048 3.89139 14.4436 3.73022C14.2824 3.56906 14.0639 3.47852 13.8359 3.47852H5.24219ZM5.24219 6.91602C5.01427 6.91602 4.79568 7.00656 4.63452 7.16772C4.47335 7.32889 4.38281 7.54747 4.38281 7.77539V19.8066C4.38281 20.0346 4.47335 20.2531 4.63452 20.4143C4.79568 20.5755 5.01427 20.666 5.24219 20.666H17.2734C17.5014 20.666 17.7199 20.5755 17.8811 20.4143C18.0423 20.2531 18.1328 20.0346 18.1328 19.8066V7.77539C18.1328 7.54747 18.0423 7.32889 17.8811 7.16772C17.7199 7.00656 17.5014 6.91602 17.2734 6.91602H5.24219Z" fill="#FFBB00"/>
</svg>
