<svg width="28" height="27" viewBox="0 0 28 27" fill="none" xmlns="http://www.w3.org/2000/svg">
<path d="M13.6094 0C6.15252 0 0.125 6.02752 0.125 13.4844C0.125 20.9412 6.15252 26.9688 13.6094 26.9688C21.0662 26.9688 27.0938 20.9412 27.0938 13.4844C27.0938 6.02752 21.0662 0 13.6094 0ZM19.4077 19.2827C19.2829 19.4077 19.1347 19.5068 18.9716 19.5745C18.8085 19.6422 18.6336 19.677 18.457 19.677C18.2804 19.677 18.1055 19.6422 17.9424 19.5745C17.7793 19.5068 17.6311 19.4077 17.5064 19.2827L13.6094 15.3857L9.71239 19.2827C9.46026 19.5348 9.1183 19.6764 8.76174 19.6764C8.40518 19.6764 8.06322 19.5348 7.81109 19.2827C7.55897 19.0305 7.41732 18.6886 7.41732 18.332C7.41732 18.1555 7.4521 17.9806 7.51966 17.8175C7.58722 17.6544 7.68625 17.5062 7.81109 17.3814L11.7081 13.4844L7.81109 9.58739C7.55897 9.33526 7.41732 8.9933 7.41732 8.63674C7.41732 8.28018 7.55897 7.93822 7.81109 7.68609C8.06322 7.43397 8.40518 7.29232 8.76174 7.29232C9.1183 7.29232 9.46026 7.43397 9.71239 7.68609L13.6094 11.5831L17.5064 7.68609C17.6312 7.56125 17.7794 7.46222 17.9425 7.39466C18.1056 7.3271 18.2805 7.29232 18.457 7.29232C18.6336 7.29232 18.8084 7.3271 18.9715 7.39466C19.1346 7.46222 19.2828 7.56125 19.4077 7.68609C19.5325 7.81093 19.6315 7.95914 19.6991 8.12226C19.7667 8.28537 19.8014 8.46019 19.8014 8.63674C19.8014 8.81329 19.7667 8.98812 19.6991 9.15123C19.6315 9.31434 19.5325 9.46255 19.4077 9.58739L15.5107 13.4844L19.4077 17.3814C19.9201 17.8938 19.9201 18.7568 19.4077 19.2827Z" fill="#5B5B5B"/>
</svg>
