<svg width="30" height="18" viewBox="0 0 30 18" fill="none" xmlns="http://www.w3.org/2000/svg">
<path d="M8.16328 0.182617C4.99734 0.182617 2.40703 2.77293 2.40703 5.93887C2.40703 7.84227 3.34434 9.53652 4.77573 10.5861C2.24586 11.8409 0.488281 14.4428 0.488281 17.4514H2.40703C2.40703 14.2624 4.97432 11.6951 8.16328 11.6951C11.3522 11.6951 13.9195 14.2624 13.9195 17.4514H15.8383C15.8383 14.2624 18.4056 11.6951 21.5945 11.6951C24.7835 11.6951 27.3508 14.2624 27.3508 17.4514H29.2695C29.2695 14.4418 27.512 11.8409 24.9821 10.5861C25.7146 10.0523 26.3108 9.35333 26.7224 8.54585C27.134 7.73837 27.3493 6.84519 27.3508 5.93887C27.3508 2.77293 24.7605 0.182617 21.5945 0.182617C18.4286 0.182617 15.8383 2.77293 15.8383 5.93887C15.8383 7.84227 16.7756 9.53652 18.207 10.5861C16.8053 11.2752 15.645 12.3726 14.8789 13.7338C14.1128 12.3726 12.9525 11.2752 11.5508 10.5861C12.2833 10.0523 12.8796 9.35333 13.2912 8.54585C13.7027 7.73837 13.918 6.84519 13.9195 5.93887C13.9195 2.77293 11.3292 0.182617 8.16328 0.182617ZM8.16328 2.10137C10.296 2.10137 12.0008 3.80618 12.0008 5.93887C12.0008 8.07156 10.296 9.77637 8.16328 9.77637C6.03059 9.77637 4.32578 8.07156 4.32578 5.93887C4.32578 3.80618 6.03059 2.10137 8.16328 2.10137ZM21.5945 2.10137C23.7272 2.10137 25.432 3.80618 25.432 5.93887C25.432 8.07156 23.7272 9.77637 21.5945 9.77637C19.4618 9.77637 17.757 8.07156 17.757 5.93887C17.757 3.80618 19.4618 2.10137 21.5945 2.10137Z" fill="#FFBB00"/>
</svg>
