<svg width="28" height="26" viewBox="0 0 28 26" fill="none" xmlns="http://www.w3.org/2000/svg">
<path d="M21.4584 12.1196C22.3429 10.6123 22.7248 8.86262 22.549 7.12381C22.2891 4.53298 20.8426 2.24277 18.4783 0.675781L16.8736 3.09525C18.4987 4.17282 19.4876 5.70786 19.659 7.41427C19.738 8.20734 19.6393 9.00806 19.37 9.75819C19.1007 10.5083 18.6676 11.189 18.1022 11.7507L16.3711 13.4818L18.7208 14.1716C24.8668 15.9724 24.938 22.1532 24.938 22.2157H27.8425C27.8425 19.6176 26.4541 14.5405 21.4584 12.1196Z" fill="#FFBB00"/>
<path d="M11.1419 13.5019C14.3456 13.5019 16.951 10.8965 16.951 7.69283C16.951 4.48914 14.3456 1.88379 11.1419 1.88379C7.93826 1.88379 5.33291 4.48914 5.33291 7.69283C5.33291 10.8965 7.93826 13.5019 11.1419 13.5019ZM11.1419 4.78831C12.7438 4.78831 14.0465 6.09099 14.0465 7.69283C14.0465 9.29467 12.7438 10.5973 11.1419 10.5973C9.5401 10.5973 8.23743 9.29467 8.23743 7.69283C8.23743 6.09099 9.5401 4.78831 11.1419 4.78831ZM13.3203 14.9541H8.96356C4.15803 14.9541 0.25 18.8622 0.25 23.6677V25.1199H3.15452V23.6677C3.15452 20.464 5.75987 17.8586 8.96356 17.8586H13.3203C16.524 17.8586 19.1294 20.464 19.1294 23.6677V25.1199H22.0339V23.6677C22.0339 18.8622 18.1259 14.9541 13.3203 14.9541Z" fill="#FFBB00"/>
</svg>
