<svg width="23" height="19" viewBox="0 0 23 19" fill="none" xmlns="http://www.w3.org/2000/svg">
<path d="M11.2264 12.9092H9.02484V10.7076H11.2264V12.9092ZM17.8309 12.9092H13.4279V10.7076H17.8309V12.9092ZM6.82332 8.50611H4.6218V6.30459H6.82332V8.50611ZM17.8309 8.50611H9.02484V6.30459H17.8309V8.50611ZM20.0325 18.413H2.42027C1.83639 18.413 1.27643 18.181 0.863561 17.7682C0.450695 17.3553 0.21875 16.7953 0.21875 16.2114V3.0023C0.21875 2.41842 0.450695 1.85846 0.863561 1.44559C1.27643 1.03273 1.83639 0.800781 2.42027 0.800781H20.0325C20.6163 0.800781 21.1763 1.03273 21.5892 1.44559C22.002 1.85846 22.234 2.41842 22.234 3.0023V16.2114C22.234 16.7953 22.002 17.3553 21.5892 17.7682C21.1763 18.181 20.6163 18.413 20.0325 18.413ZM2.42027 3.0023V16.2114H20.0325V3.0023H2.42027Z" fill="#FFBB00"/>
</svg>
