<svg width="28" height="30" viewBox="0 0 28 30" fill="none" xmlns="http://www.w3.org/2000/svg">
<path d="M23.9336 16.4571V13.8711H21.9336V16.8711C21.9337 17.1363 22.039 17.3906 22.2266 17.5781L24.9336 20.2851V21.8711H2.93359V20.2851L5.64059 17.5781C5.82814 17.3906 5.93354 17.1363 5.93359 16.8711V12.8711C5.93081 11.4659 6.29889 10.0848 7.00068 8.86741C7.70247 7.64999 8.7131 6.63933 9.93049 5.9375C11.1479 5.23567 12.5289 4.86754 13.9341 4.87027C15.3393 4.87301 16.7189 5.24653 17.9336 5.95309V3.71809C16.9817 3.29661 15.9692 3.02798 14.9336 2.92209V0.871094H12.9336V2.92109C10.4682 3.17203 8.18335 4.32821 6.52096 6.16608C4.85857 8.00394 3.93669 10.3929 3.93359 12.8711V16.4571L1.22659 19.1641C1.03904 19.3516 0.93365 19.6059 0.933594 19.8711V22.8711C0.933594 23.1363 1.03895 23.3907 1.22649 23.5782C1.41402 23.7657 1.66838 23.8711 1.93359 23.8711H8.93359V24.8711C8.93359 26.1972 9.46038 27.4689 10.3981 28.4066C11.3357 29.3443 12.6075 29.8711 13.9336 29.8711C15.2597 29.8711 16.5314 29.3443 17.4691 28.4066C18.4068 27.4689 18.9336 26.1972 18.9336 24.8711V23.8711H25.9336C26.1988 23.8711 26.4532 23.7657 26.6407 23.5782C26.8282 23.3907 26.9336 23.1363 26.9336 22.8711V19.8711C26.9335 19.6059 26.8281 19.3516 26.6406 19.1641L23.9336 16.4571ZM16.9336 24.8711C16.9336 25.6667 16.6175 26.4298 16.0549 26.9924C15.4923 27.555 14.7292 27.8711 13.9336 27.8711C13.1379 27.8711 12.3749 27.555 11.8123 26.9924C11.2497 26.4298 10.9336 25.6667 10.9336 24.8711V23.8711H16.9336V24.8711Z" fill="#3B3B3B"/>
<path d="M23.9336 11.8711C26.1427 11.8711 27.9336 10.0802 27.9336 7.87109C27.9336 5.66195 26.1427 3.87109 23.9336 3.87109C21.7245 3.87109 19.9336 5.66195 19.9336 7.87109C19.9336 10.0802 21.7245 11.8711 23.9336 11.8711Z" fill="#3B3B3B"/>
</svg>
