<svg width="22" height="26" viewBox="0 0 22 26" fill="none" xmlns="http://www.w3.org/2000/svg">
<path fill-rule="evenodd" clip-rule="evenodd" d="M18.1328 0.948242H4.38281C3.47113 0.948242 2.59679 1.31041 1.95213 1.95506C1.30748 2.59972 0.945313 3.47406 0.945312 4.38574V21.5732C0.945313 22.4849 1.30748 23.3593 1.95213 24.0039C2.59679 24.6486 3.47113 25.0107 4.38281 25.0107H18.1328C19.0445 25.0107 19.9188 24.6486 20.5635 24.0039C21.2081 23.3593 21.5703 22.4849 21.5703 21.5732V4.38574C21.5703 3.47406 21.2081 2.59972 20.5635 1.95506C19.9188 1.31041 19.0445 0.948242 18.1328 0.948242ZM5.24219 4.38574C5.01427 4.38574 4.79568 4.47628 4.63452 4.63745C4.47335 4.79861 4.38281 5.0172 4.38281 5.24512C4.38281 5.47304 4.47335 5.69162 4.63452 5.85279C4.79568 6.01395 5.01427 6.10449 5.24219 6.10449H13.8359C14.0639 6.10449 14.2824 6.01395 14.4436 5.85279C14.6048 5.69162 14.6953 5.47304 14.6953 5.24512C14.6953 5.0172 14.6048 4.79861 14.4436 4.63745C14.2824 4.47628 14.0639 4.38574 13.8359 4.38574H5.24219ZM5.24219 7.82324C5.01427 7.82324 4.79568 7.91378 4.63452 8.07495C4.47335 8.23611 4.38281 8.4547 4.38281 8.68262V20.7139C4.38281 20.9418 4.47335 21.1604 4.63452 21.3215C4.79568 21.4827 5.01427 21.5732 5.24219 21.5732H17.2734C17.5014 21.5732 17.7199 21.4827 17.8811 21.3215C18.0423 21.1604 18.1328 20.9418 18.1328 20.7139V8.68262C18.1328 8.4547 18.0423 8.23611 17.8811 8.07495C17.7199 7.91378 17.5014 7.82324 17.2734 7.82324H5.24219Z" fill="#FFBB00"/>
</svg>
