<svg width="27" height="27" viewBox="0 0 27 27" fill="none" xmlns="http://www.w3.org/2000/svg">
<path d="M25.6711 23.9456L20.8124 19.1012C22.38 17.1041 23.2306 14.6379 23.2274 12.0991C23.2274 9.83803 22.557 7.62775 21.3008 5.74775C20.0446 3.86776 18.2592 2.40248 16.1702 1.53721C14.0813 0.671945 11.7827 0.445552 9.56508 0.886662C7.34747 1.32777 5.31047 2.41657 3.71166 4.01538C2.11286 5.61418 1.02406 7.65118 0.582951 9.86879C0.141841 12.0864 0.368235 14.385 1.2335 16.4739C2.09877 18.5629 3.56405 20.3483 5.44404 21.6045C7.32404 22.8607 9.53431 23.5312 11.7954 23.5312C14.3342 23.5343 16.8004 22.6837 18.7975 21.1161L23.6419 25.9748C23.7747 26.1087 23.9328 26.215 24.1069 26.2876C24.281 26.3601 24.4678 26.3975 24.6565 26.3975C24.8451 26.3975 25.0319 26.3601 25.206 26.2876C25.3802 26.215 25.5382 26.1087 25.6711 25.9748C25.805 25.8419 25.9113 25.6839 25.9839 25.5097C26.0564 25.3356 26.0938 25.1488 26.0938 24.9602C26.0938 24.7715 26.0564 24.5847 25.9839 24.4106C25.9113 24.2365 25.805 24.0784 25.6711 23.9456ZM3.22131 12.0991C3.22131 10.4033 3.72417 8.74558 4.6663 7.33559C5.60843 5.92559 6.94751 4.82663 8.51422 4.17768C10.0809 3.52873 11.8049 3.35893 13.4681 3.68977C15.1313 4.0206 16.659 4.8372 17.8581 6.0363C19.0572 7.2354 19.8738 8.76316 20.2047 10.4264C20.5355 12.0896 20.3657 13.8135 19.7168 15.3802C19.0678 16.9469 17.9689 18.286 16.5589 19.2281C15.1489 20.1703 13.4912 20.6731 11.7954 20.6731C9.52138 20.6731 7.34054 19.7698 5.73259 18.1619C4.12464 16.5539 3.22131 14.3731 3.22131 12.0991Z" fill="#969393"/>
</svg>
