<svg width="25" height="34" viewBox="0 0 25 34" fill="none" xmlns="http://www.w3.org/2000/svg">
<path d="M24.3677 12.7583C24.3695 10.7416 23.8586 8.75746 22.8832 6.99229C21.9077 5.22712 20.4997 3.73883 18.7912 2.66717C17.0827 1.59551 15.1299 0.975657 13.1162 0.865811C11.1024 0.755965 9.09374 1.15973 7.27884 2.0392C5.46394 2.91866 3.90234 4.24497 2.74068 5.89356C1.57902 7.54216 0.855415 9.45895 0.637825 11.4639C0.420234 13.4689 0.715794 15.4963 1.49675 17.3557C2.2777 19.2152 3.51843 20.8456 5.10241 22.0939V33.1578C5.10239 33.2544 5.12707 33.3494 5.17412 33.4338C5.22116 33.5182 5.28899 33.5891 5.37118 33.6399C5.45337 33.6907 5.54718 33.7196 5.6437 33.724C5.74022 33.7283 5.83624 33.7079 5.92264 33.6646L12.4677 30.3914L19.0152 33.6646C19.1016 33.7078 19.1976 33.7282 19.2941 33.7239C19.3906 33.7195 19.4844 33.6906 19.5666 33.6398C19.6488 33.589 19.7166 33.5181 19.7636 33.4337C19.8106 33.3493 19.8353 33.2544 19.8353 33.1578V22.0928C21.2476 20.981 22.3893 19.5634 23.1744 17.9465C23.9594 16.3296 24.3674 14.5557 24.3677 12.7583ZM18.702 32.2409L12.7212 29.251C12.6425 29.2117 12.5557 29.1912 12.4677 29.1912C12.3798 29.1912 12.293 29.2117 12.2143 29.251L6.23571 32.2408V22.8901C8.1093 24.0461 10.2675 24.6582 12.469 24.658C14.6705 24.6579 16.8286 24.0454 18.702 22.8891V32.2409ZM12.468 23.5247C10.3386 23.5247 8.25707 22.8933 6.48655 21.7102C4.71603 20.5272 3.33608 18.8457 2.5212 16.8785C1.70632 14.9112 1.49311 12.7464 1.90853 10.6579C2.32395 8.56946 3.34935 6.65108 4.85505 5.14538C6.36075 3.63968 8.27914 2.61428 10.3676 2.19886C12.4561 1.78344 14.6208 1.99665 16.5881 2.81153C18.5554 3.62641 20.2369 5.00636 21.4199 6.77688C22.6029 8.54739 23.2344 10.629 23.2344 12.7583C23.2311 15.6128 22.0958 18.3494 20.0774 20.3677C18.059 22.3861 15.3224 23.5215 12.468 23.5247ZM12.468 5.39189C11.0111 5.39189 9.58684 5.82392 8.37543 6.63336C7.16403 7.4428 6.21985 8.59328 5.6623 9.93932C5.10475 11.2854 4.95887 12.7665 5.24311 14.1955C5.52734 15.6244 6.22893 16.937 7.25915 17.9672C8.28936 18.9974 9.60194 19.699 11.0309 19.9833C12.4598 20.2675 13.941 20.1216 15.287 19.5641C16.6331 19.0065 17.7836 18.0623 18.593 16.8509C19.4024 15.6395 19.8345 14.2153 19.8345 12.7583C19.8323 10.8053 19.0554 8.93292 17.6744 7.55192C16.2934 6.17092 14.421 5.3941 12.468 5.39189ZM12.468 18.9915C11.2352 18.9915 10.0301 18.6259 9.00506 17.941C7.98002 17.2561 7.18111 16.2826 6.70933 15.1437C6.23756 14.0047 6.11412 12.7514 6.35463 11.5423C6.59514 10.3332 7.18879 9.22256 8.06051 8.35084C8.93223 7.47912 10.0429 6.88547 11.252 6.64496C12.4611 6.40445 13.7144 6.52789 14.8533 6.99966C15.9923 7.47143 16.9658 8.27035 17.6507 9.29539C18.3356 10.3204 18.7012 11.5255 18.7012 12.7583C18.6993 14.4109 18.042 15.9952 16.8735 17.1638C15.7049 18.3323 14.1206 18.9896 12.468 18.9915Z" fill="white"/>
</svg>
