<svg width="29" height="30" viewBox="0 0 29 30" xmlns="http://www.w3.org/2000/svg">
<path d="M11.7451 14.9717C13.1181 14.9717 14.1309 13.9589 14.1309 12.5859C14.1309 11.2129 13.1181 10.2002 11.7451 10.2002C10.3721 10.2002 9.35938 11.2129 9.35938 12.5859C9.35938 13.9589 10.3709 14.9717 11.7451 14.9717Z"/>
<path d="M24.0146 5.42871H4.92871C3.61297 5.42871 2.54297 6.43192 2.54297 7.66534V22.278C2.54297 23.5114 3.61297 24.5146 4.92871 24.5146H24.0146C25.3304 24.5146 26.4004 23.5114 26.4004 22.278V7.66534C26.4004 6.43192 25.3304 5.42871 24.0146 5.42871ZM24.0146 22.1289L4.92871 22.1158V7.81445L24.0146 7.82757V22.1289Z" />
<path d="M16.8555 11.3931H21.627V13.7788H16.8555V11.3931ZM18.0483 16.1646H21.627V18.5503H18.0483V16.1646ZM16.1755 19.1897C16.1755 17.5507 14.1763 15.8663 11.744 15.8663C9.31175 15.8663 7.3125 17.5507 7.3125 19.1897V19.7432H16.1755V19.1897Z"/>
</svg>
