<svg width="29" height="19" viewBox="0 0 29 19" xmlns="http://www.w3.org/2000/svg">
<path d="M23.6314 6.67734C22.2299 2.98099 18.659 0.352539 14.4762 0.352539C10.2933 0.352539 6.7224 2.97793 5.32096 6.67428C2.69863 7.36276 0.761719 9.74948 0.761719 12.5921C0.761719 15.9733 3.50033 18.7119 6.87845 18.7119H22.0617C25.4398 18.7119 28.1784 15.9733 28.1784 12.5921C28.1784 9.7556 26.2476 7.36888 23.6314 6.67734ZM24.7421 15.2757C24.391 15.6288 23.9733 15.9089 23.5132 16.0995C23.0531 16.2902 22.5597 16.3877 22.0617 16.3864H6.87845C5.86562 16.3864 4.914 15.9917 4.19798 15.2757C3.84473 14.9239 3.56469 14.5057 3.37404 14.0451C3.18339 13.5844 3.08592 13.0906 3.08724 12.5921C3.08724 11.7354 3.36569 10.9306 3.88893 10.2574C4.40133 9.6053 5.1108 9.13626 5.91152 8.92025L7.07122 8.61732L7.49655 7.4974C7.7597 6.79974 8.12689 6.14798 8.58893 5.55742C9.04508 4.97209 9.5854 4.45754 10.1923 4.03053C11.4499 3.14622 12.9309 2.67806 14.4762 2.67806C16.0214 2.67806 17.5024 3.14622 18.76 4.03053C19.3689 4.45892 19.9075 4.97298 20.3634 5.55742C20.8255 6.14798 21.1926 6.8028 21.4558 7.4974L21.8781 8.61426L23.0347 8.92025C24.6962 9.36393 25.8529 10.8725 25.8529 12.5921C25.8529 13.6049 25.4581 14.5596 24.7421 15.2757Z" />
</svg>
