<svg width="28" height="30" viewBox="0 0 28 30" xmlns="http://www.w3.org/2000/svg">
<path d="M23.9336 15.9571V13.3711H21.9336V16.3711C21.9337 16.6363 22.039 16.8906 22.2266 17.0781L24.9336 19.7851V21.3711H2.93359V19.7851L5.64059 17.0781C5.82814 16.8906 5.93354 16.6363 5.93359 16.3711V12.3711C5.93081 10.9659 6.29889 9.58483 7.00068 8.36741C7.70247 7.14999 8.7131 6.13933 9.93049 5.4375C11.1479 4.73567 12.5289 4.36754 13.9341 4.37027C15.3393 4.37301 16.7189 4.74653 17.9336 5.45309V3.21809C16.9817 2.79661 15.9692 2.52798 14.9336 2.42209V0.371094H12.9336V2.42109C10.4682 2.67203 8.18335 3.82821 6.52096 5.66608C4.85857 7.50394 3.93669 9.89293 3.93359 12.3711V15.9571L1.22659 18.6641C1.03904 18.8516 0.93365 19.1059 0.933594 19.3711V22.3711C0.933594 22.6363 1.03895 22.8907 1.22649 23.0782C1.41402 23.2657 1.66838 23.3711 1.93359 23.3711H8.93359V24.3711C8.93359 25.6972 9.46038 26.9689 10.3981 27.9066C11.3357 28.8443 12.6075 29.3711 13.9336 29.3711C15.2597 29.3711 16.5314 28.8443 17.4691 27.9066C18.4068 26.9689 18.9336 25.6972 18.9336 24.3711V23.3711H25.9336C26.1988 23.3711 26.4532 23.2657 26.6407 23.0782C26.8282 22.8907 26.9336 22.6363 26.9336 22.3711V19.3711C26.9335 19.1059 26.8281 18.8516 26.6406 18.6641L23.9336 15.9571ZM16.9336 24.3711C16.9336 25.1667 16.6175 25.9298 16.0549 26.4924C15.4923 27.055 14.7292 27.3711 13.9336 27.3711C13.1379 27.3711 12.3749 27.055 11.8123 26.4924C11.2497 25.9298 10.9336 25.1667 10.9336 24.3711V23.3711H16.9336V24.3711Z" />
<path d="M23.9336 11.3711C26.1427 11.3711 27.9336 9.58023 27.9336 7.37109C27.9336 5.16195 26.1427 3.37109 23.9336 3.37109C21.7245 3.37109 19.9336 5.16195 19.9336 7.37109C19.9336 9.58023 21.7245 11.3711 23.9336 11.3711Z"/>
</svg>
