<svg width="27" height="27" viewBox="0 0 27 27" xmlns="http://www.w3.org/2000/svg">
<path d="M7.55803 14.1184H19.3838V16.3394H20.5375V12.9647H14.0478V10.6572H12.894V12.9647H6.4043V16.3394H7.55803V14.1184Z" />
<path d="M10.5876 17.1475H3.37674C2.99425 17.1475 2.62743 17.2994 2.35697 17.5699C2.08651 17.8403 1.93457 18.2071 1.93457 18.5896V22.9161C1.93457 23.2986 2.08651 23.6654 2.35697 23.9359C2.62743 24.2063 2.99425 24.3583 3.37674 24.3583H10.5876C10.9701 24.3583 11.3369 24.2063 11.6073 23.9359C11.8778 23.6654 12.0297 23.2986 12.0297 22.9161V18.5896C12.0297 18.2071 11.8778 17.8403 11.6073 17.5699C11.3369 17.2994 10.9701 17.1475 10.5876 17.1475ZM3.37674 22.9161V18.5896H10.5876V22.9161H3.37674Z" />
<path d="M23.5671 17.1475H16.3562C15.9737 17.1475 15.6069 17.2994 15.3365 17.5699C15.066 17.8403 14.9141 18.2071 14.9141 18.5896V22.9161C14.9141 23.2986 15.066 23.6654 15.3365 23.9359C15.6069 24.2063 15.9737 24.3583 16.3562 24.3583H23.5671C23.9495 24.3583 24.3164 24.2063 24.5868 23.9359C24.8573 23.6654 25.0092 23.2986 25.0092 22.9161V18.5896C25.0092 18.2071 24.8573 17.8403 24.5868 17.5699C24.3164 17.2994 23.9495 17.1475 23.5671 17.1475ZM16.3562 22.9161V18.5896H23.5671V22.9161H16.3562Z" />
<path d="M9.86599 9.93641H17.0768C17.4593 9.93641 17.8261 9.78447 18.0966 9.51401C18.367 9.24356 18.519 8.87674 18.519 8.49425V4.16775C18.519 3.78527 18.367 3.41844 18.0966 3.14799C17.8261 2.87753 17.4593 2.72559 17.0768 2.72559H9.86599C9.48351 2.72559 9.11669 2.87753 8.84623 3.14799C8.57577 3.41844 8.42383 3.78527 8.42383 4.16775V8.49425C8.42383 8.87674 8.57577 9.24356 8.84623 9.51401C9.11669 9.78447 9.48351 9.93641 9.86599 9.93641ZM9.86599 4.16775H17.0768V8.49425H9.86599V4.16775Z" />
</svg>
