<svg width="27" height="28" viewBox="0 0 27 28" xmlns="http://www.w3.org/2000/svg">
<path fill-rule="evenodd" clip-rule="evenodd" d="M6.74237 2.6748H20.2001C21.0924 2.6748 21.9482 3.02927 22.5792 3.66023C23.2101 4.29118 23.5646 5.14694 23.5646 6.03925V22.8615C23.5646 23.7538 23.2101 24.6095 22.5792 25.2405C21.9482 25.8714 21.0924 26.2259 20.2001 26.2259H6.74237C5.85007 26.2259 4.99431 25.8714 4.36335 25.2405C3.7324 24.6095 3.37793 23.7538 3.37793 22.8615V6.03925C3.37793 5.14694 3.7324 4.29118 4.36335 3.66023C4.99431 3.02927 5.85007 2.6748 6.74237 2.6748ZM6.74237 4.35703C6.29622 4.35703 5.86834 4.53426 5.55286 4.84974C5.23738 5.16521 5.06015 5.59309 5.06015 6.03925V22.8615C5.06015 23.3076 5.23738 23.7355 5.55286 24.051C5.86834 24.3664 6.29622 24.5437 6.74237 24.5437H20.2001C20.6463 24.5437 21.0742 24.3664 21.3896 24.051C21.7051 23.7355 21.8824 23.3076 21.8824 22.8615V6.03925C21.8824 5.59309 21.7051 5.16521 21.3896 4.84974C21.0742 4.53426 20.6463 4.35703 20.2001 4.35703H6.74237Z" />
<path d="M6.74121 10.2444C6.74121 10.0214 6.82983 9.80741 6.98757 9.64968C7.14531 9.49194 7.35924 9.40332 7.58232 9.40332H19.3579C19.5809 9.40332 19.7949 9.49194 19.9526 9.64968C20.1104 9.80741 20.199 10.0214 20.199 10.2444V22.02C20.199 22.243 20.1104 22.457 19.9526 22.6147C19.7949 22.7725 19.5809 22.8611 19.3579 22.8611H7.58232C7.35924 22.8611 7.14531 22.7725 6.98757 22.6147C6.82983 22.457 6.74121 22.243 6.74121 22.02V10.2444Z"/>
<path fill-rule="evenodd" clip-rule="evenodd" d="M6.74121 6.88017C6.74121 6.6571 6.82983 6.44316 6.98757 6.28542C7.14531 6.12768 7.35924 6.03906 7.58232 6.03906H15.9934C16.2165 6.03906 16.4304 6.12768 16.5882 6.28542C16.7459 6.44316 16.8345 6.6571 16.8345 6.88017C16.8345 7.10325 16.7459 7.31719 16.5882 7.47493C16.4304 7.63267 16.2165 7.72128 15.9934 7.72128H7.58232C7.35924 7.72128 7.14531 7.63267 6.98757 7.47493C6.82983 7.31719 6.74121 7.10325 6.74121 6.88017Z"/>
</svg>
