<svg width="25" height="26" viewBox="0 0 25 26"  xmlns="http://www.w3.org/2000/svg">
<g clip-path="url(#clip0)">
<path d="M9.43286 3.76611C10.184 3.76611 10.9182 3.98884 11.5427 4.40613C12.1672 4.82341 12.654 5.41652 12.9414 6.11044C13.2288 6.80436 13.304 7.56793 13.1575 8.3046C13.011 9.04126 12.6493 9.71793 12.1182 10.249C11.5871 10.7801 10.9104 11.1418 10.1737 11.2884C9.43708 11.4349 8.6735 11.3597 7.97958 11.0723C7.28566 10.7848 6.69256 10.2981 6.27527 9.67356C5.85798 9.04905 5.63526 8.31482 5.63526 7.56372C5.63526 6.55653 6.03536 5.5906 6.74755 4.87841C7.45974 4.16622 8.42568 3.76611 9.43286 3.76611ZM9.43286 2.24707C8.38133 2.24707 7.35341 2.55889 6.47909 3.14309C5.60477 3.72729 4.92332 4.55764 4.52092 5.52913C4.11851 6.50062 4.01323 7.56962 4.21837 8.60095C4.42352 9.63228 4.92988 10.5796 5.67342 11.3232C6.41697 12.0667 7.36431 12.5731 8.39564 12.7782C9.42697 12.9834 10.496 12.8781 11.4675 12.4757C12.4389 12.0733 13.2693 11.3918 13.8535 10.5175C14.4377 9.64317 14.7495 8.61525 14.7495 7.56372C14.7495 6.15366 14.1894 4.80135 13.1923 3.80428C12.1952 2.80722 10.8429 2.24707 9.43286 2.24707Z" />
<path d="M17.0273 23.5127H15.5083V19.7151C15.5083 18.7079 15.1082 17.742 14.396 17.0298C13.6838 16.3176 12.7179 15.9175 11.7107 15.9175H7.15356C6.14638 15.9175 5.18044 16.3176 4.46825 17.0298C3.75606 17.742 3.35596 18.7079 3.35596 19.7151V23.5127H1.83691V19.7151C1.83691 18.305 2.39706 16.9527 3.39412 15.9556C4.39119 14.9586 5.7435 14.3984 7.15356 14.3984H11.7107C13.1208 14.3984 14.4731 14.9586 15.4701 15.9556C16.4672 16.9527 17.0273 18.305 17.0273 19.7151V23.5127Z"/>
<path d="M17.0273 3.76562H24.6226V5.28467H17.0273V3.76562Z"/>
<path d="M17.0273 7.56348H24.6226V9.08252H17.0273V7.56348Z"/>
<path d="M17.0273 11.3613H22.344V12.8804H17.0273V11.3613Z"/>
</g>
<defs>
<clipPath id="clip0">
<rect width="24.3047" height="24.3047"  transform="translate(0.318359 0.727539)"/>
</clipPath>
</defs>
</svg>
