<svg width="37" height="37" viewBox="0 0 37 37" xmlns="http://www.w3.org/2000/svg">
<path d="M30.3696 14.2579C30.3714 12.2411 29.8606 10.257 28.8852 8.4918C27.9097 6.72663 26.5016 5.23834 24.7932 4.16668C23.0847 3.09502 21.1319 2.47517 19.1181 2.36532C17.1043 2.25548 15.0957 2.65924 13.2808 3.53871C11.4659 4.41817 9.90429 5.74448 8.74263 7.39307C7.58097 9.04167 6.85737 10.9585 6.63978 12.9634C6.42219 14.9684 6.71775 16.9958 7.4987 18.8552C8.27966 20.7147 9.52038 22.3451 11.1044 23.5934V34.6573C11.1043 34.7539 11.129 34.8489 11.1761 34.9333C11.2231 35.0177 11.2909 35.0886 11.3731 35.1394C11.4553 35.1902 11.5491 35.2192 11.6457 35.2235C11.7422 35.2278 11.8382 35.2074 11.9246 35.1641L18.4697 31.8909L25.0172 35.1641C25.1036 35.2073 25.1996 35.2277 25.2961 35.2234C25.3926 35.2191 25.4864 35.1901 25.5685 35.1393C25.6507 35.0885 25.7185 35.0176 25.7656 34.9332C25.8126 34.8489 25.8373 34.7539 25.8373 34.6573V23.5923C27.2496 22.4805 28.3912 21.0629 29.1763 19.446C29.9614 17.8291 30.3694 16.0552 30.3696 14.2579ZM24.704 33.7404L18.7231 30.7505C18.6444 30.7112 18.5577 30.6907 18.4697 30.6907C18.3817 30.6907 18.295 30.7112 18.2163 30.7505L12.2377 33.7403V24.3896C14.1113 25.5456 16.2694 26.1577 18.471 26.1575C20.6725 26.1574 22.8306 25.5449 24.704 24.3886V33.7404ZM18.47 25.0242C16.3406 25.0242 14.259 24.3928 12.4885 23.2098C10.718 22.0267 9.33803 20.3453 8.52315 18.378C7.70827 16.4107 7.49506 14.2459 7.91049 12.1574C8.32591 10.069 9.3513 8.15059 10.857 6.64489C12.3627 5.13919 14.2811 4.11379 16.3696 3.69837C18.458 3.28295 20.6228 3.49616 22.5901 4.31104C24.5574 5.12592 26.2388 6.50587 27.4219 8.27639C28.6049 10.0469 29.2363 12.1285 29.2363 14.2579C29.2331 17.1123 28.0978 19.8489 26.0794 21.8673C24.061 23.8856 21.3244 25.021 18.47 25.0242ZM18.47 6.8914C17.013 6.8914 15.5888 7.32344 14.3774 8.13287C13.166 8.94231 12.2218 10.0928 11.6643 11.4388C11.1067 12.7849 10.9608 14.266 11.2451 15.695C11.5293 17.1239 12.2309 18.4365 13.2611 19.4667C14.2913 20.4969 15.6039 21.1985 17.0328 21.4828C18.4618 21.767 19.9429 21.6211 21.289 21.0636C22.635 20.506 23.7855 19.5618 24.595 18.3504C25.4044 17.139 25.8364 15.7148 25.8364 14.2579C25.8342 12.3048 25.0574 10.4324 23.6764 9.05143C22.2954 7.67043 20.423 6.89361 18.47 6.8914ZM18.47 20.491C17.2372 20.491 16.0321 20.1254 15.007 19.4405C13.982 18.7556 13.1831 17.7821 12.7113 16.6432C12.2395 15.5042 12.1161 14.2509 12.3566 13.0418C12.5971 11.8327 13.1907 10.7221 14.0625 9.85035C14.9342 8.97863 16.0448 8.38498 17.2539 8.14447C18.4631 7.90396 19.7163 8.0274 20.8553 8.49917C21.9943 8.97094 22.9677 9.76986 23.6526 10.7949C24.3376 11.8199 24.7031 13.0251 24.7031 14.2579C24.7013 15.9104 24.0439 17.4948 22.8754 18.6633C21.7069 19.8318 20.1225 20.4891 18.47 20.491Z"/>
</svg>
